<svg width="28" height="22" viewBox="0 0 28 22" fill="none" xmlns="http://www.w3.org/2000/svg">
<path d="M11.5 6V4.75M11.5 11.625V10.375M11.5 17.25V16M5.5 1H22.5C23.9001 1 24.6002 1 25.135 1.27248C25.6054 1.51217 25.9878 1.89462 26.2275 2.36502C26.5 2.8998 26.5 3.59987 26.5 5V6.625C24.0838 6.625 22.125 8.58375 22.125 11C22.125 13.4162 24.0838 15.375 26.5 15.375V17C26.5 18.4001 26.5 19.1002 26.2275 19.635C25.9878 20.1054 25.6054 20.4878 25.135 20.7275C24.6002 21 23.9001 21 22.5 21H5.5C4.09987 21 3.3998 21 2.86502 20.7275C2.39462 20.4878 2.01217 20.1054 1.77248 19.635C1.5 19.1002 1.5 18.4001 1.5 17V15.375C3.91625 15.375 5.875 13.4162 5.875 11C5.875 8.58375 3.91625 6.625 1.5 6.625V5C1.5 3.59987 1.5 2.8998 1.77248 2.36502C2.01217 1.89462 2.39462 1.51217 2.86502 1.27248C3.3998 1 4.09987 1 5.5 1Z" stroke="#BC8B09" stroke-width="2" stroke-linecap="round" stroke-linejoin="round"/>
</svg>
