<svg width="30" height="30" viewBox="0 0 30 30" fill="none" xmlns="http://www.w3.org/2000/svg">
<path d="M25 26.25C25 24.5055 25 23.6333 24.7847 22.9236C24.2999 21.3256 23.0494 20.075 21.4514 19.5903C20.7417 19.375 19.8695 19.375 18.125 19.375H11.875C10.1305 19.375 9.25832 19.375 8.54857 19.5903C6.95057 20.075 5.70005 21.3256 5.2153 22.9236C5 23.6333 5 24.5055 5 26.25M20.625 9.375C20.625 12.4816 18.1066 15 15 15C11.8934 15 9.375 12.4816 9.375 9.375C9.375 6.2684 11.8934 3.75 15 3.75C18.1066 3.75 20.625 6.2684 20.625 9.375Z" stroke="#BC8B09" stroke-width="2" stroke-linecap="round" stroke-linejoin="round"/>
</svg>
