<svg width="40" height="40" viewBox="0 0 40 40" fill="none" xmlns="http://www.w3.org/2000/svg">
<path d="M23.333 11.667H27.2284C27.6361 11.667 27.8399 11.667 28.0317 11.713C28.2018 11.7539 28.3644 11.8212 28.5135 11.9126C28.6817 12.0157 28.8258 12.1598 29.1141 12.448L35.8853 19.2193C36.1735 19.5075 36.3177 19.6517 36.4207 19.8199C36.5121 19.969 36.5795 20.1315 36.6203 20.3016C36.6663 20.4934 36.6663 20.6972 36.6663 21.1049V25.8337C36.6663 26.6102 36.6663 26.9985 36.5395 27.3048C36.3703 27.7132 36.0459 28.0376 35.6375 28.2068C35.3312 28.3337 34.9429 28.3337 34.1663 28.3337M25.833 28.3337H23.333M23.333 28.3337V12.0003C23.333 10.1335 23.333 9.20006 22.9697 8.48702C22.6501 7.85982 22.1402 7.34988 21.513 7.0303C20.7999 6.66699 19.8665 6.66699 17.9997 6.66699H8.66634C6.7995 6.66699 5.86608 6.66699 5.15304 7.0303C4.52583 7.34988 4.0159 7.85982 3.69632 8.48702C3.33301 9.20006 3.33301 10.1335 3.33301 12.0003V25.0003C3.33301 26.8413 4.82539 28.3337 6.66634 28.3337M23.333 28.3337H16.6663M16.6663 28.3337C16.6663 31.0951 14.4278 33.3337 11.6663 33.3337C8.90492 33.3337 6.66634 31.0951 6.66634 28.3337M16.6663 28.3337C16.6663 25.5722 14.4278 23.3337 11.6663 23.3337C8.90492 23.3337 6.66634 25.5722 6.66634 28.3337M34.1663 29.167C34.1663 31.4682 32.3009 33.3337 29.9997 33.3337C27.6985 33.3337 25.833 31.4682 25.833 29.167C25.833 26.8658 27.6985 25.0003 29.9997 25.0003C32.3009 25.0003 34.1663 26.8658 34.1663 29.167Z" stroke="#090A0A" stroke-width="2" stroke-linecap="round" stroke-linejoin="round"/>
</svg>
