<svg width="40" height="40" viewBox="0 0 40 40" fill="none" xmlns="http://www.w3.org/2000/svg">
<path d="M23.5141 5.134L24.2604 5.05937L24.2604 5.05937L23.5141 5.134ZM23.1 3.59156L23.6033 3.03547L23.6033 3.03547L23.1 3.59156ZM23.6573 6.56622L24.4036 6.49159L24.4036 6.49159L23.6573 6.56622ZM26.9139 7.91513L27.3888 8.49559L27.3888 8.49559L26.9139 7.91513ZM28.0278 7.00369L27.5529 6.42322L27.5529 6.42322L28.0278 7.00369ZM29.4113 6.20582L29.4487 5.45675L29.4487 5.45675L29.4113 6.20582ZM30.7085 7.13739L30.1782 7.66772L30.1782 7.66772L30.7085 7.13739ZM32.8629 9.29175L33.3932 8.76142L33.3932 8.76142L32.8629 9.29175ZM33.7944 10.589L33.0454 10.6263L33.0454 10.6263L33.7944 10.589ZM32.9966 11.9724L32.4161 11.4975L32.4161 11.4975L32.9966 11.9724ZM32.0851 13.0865L32.6656 13.5614L32.6656 13.5614L32.0851 13.0865ZM33.434 16.343L33.5086 15.5967L33.5086 15.5967L33.434 16.343ZM34.8663 16.4862L34.7917 17.2325L34.7917 17.2325L34.8663 16.4862ZM36.4088 16.9003L35.8527 17.4036L35.8527 17.4036L36.4088 16.9003ZM36.4088 23.099L35.8527 22.5958L35.8527 22.5958L36.4088 23.099ZM34.8663 23.5131L34.7917 22.7668L34.7917 22.7668L34.8663 23.5131ZM33.4346 23.6563L33.5093 24.4026L33.5093 24.4026L33.4346 23.6563ZM32.0857 26.9128L31.5053 27.3878L31.5053 27.3878L32.0857 26.9128ZM32.9967 28.0262L33.5771 27.5512L33.5771 27.5512L32.9967 28.0262ZM33.7945 29.4096L33.0455 29.3723L33.0455 29.3723L33.7945 29.4096ZM29.4114 33.7928L29.374 33.0437L29.374 33.0437L29.4114 33.7928ZM28.0279 32.9949L28.5029 32.4145L28.4745 32.3912L28.4439 32.3709L28.0279 32.9949ZM28.0279 32.9949L27.553 33.5754L27.5814 33.5986L27.6119 33.619L28.0279 32.9949ZM26.9139 32.0835L26.439 32.664L26.439 32.664L26.9139 32.0835ZM24.4552 30.7531L24.1682 30.0602L24.1682 30.0602L24.4552 30.7531ZM23.6574 33.4324L22.9111 33.3578L22.9111 33.3578L23.6574 33.4324ZM23.5141 34.8653L24.2604 34.94L24.2604 34.94L23.5141 34.8653ZM23.1 36.4078L23.6033 36.9639L23.6033 36.9639L23.1 36.4078ZM16.9013 36.4078L16.398 36.9639L16.398 36.9639L16.9013 36.4078ZM16.344 33.433L17.0903 33.3584L17.0903 33.3584L16.344 33.433ZM15.5461 30.7538L15.2591 31.4467L15.2591 31.4467L15.5461 30.7538ZM13.0874 32.0841L12.6125 31.5037L12.6125 31.5037L13.0874 32.0841ZM11.9733 32.9957L12.4483 33.5761L12.4483 33.5761L11.9733 32.9957ZM9.29265 32.862L9.82298 32.3316L9.82298 32.3316L9.29265 32.862ZM7.13829 30.7076L6.60796 31.238L6.60796 31.238L7.13829 30.7076ZM6.20672 29.4104L6.95579 29.373L6.95579 29.373L6.20672 29.4104ZM7.00459 28.0269L7.58506 28.5019L7.58506 28.5019L7.00459 28.0269ZM7.91609 26.9129L7.33563 26.4379L7.33563 26.4379L7.91609 26.9129ZM9.24648 24.4542L9.93939 24.1672L9.93938 24.1672L9.24648 24.4542ZM6.56719 23.6563L6.49256 24.4026L6.49256 24.4026L6.56719 23.6563ZM5.13498 23.5131L5.2096 22.7668L5.2096 22.7668L5.13498 23.5131ZM3.59253 23.099L3.03644 23.6023L3.03644 23.6023L3.59253 23.099ZM3.59253 16.9003L4.14862 17.4036L4.14862 17.4036L3.59253 16.9003ZM5.13498 16.4862L5.06035 15.74L5.06035 15.74L5.13498 16.4862ZM6.56781 16.343L6.64244 17.0892L6.64244 17.0892L6.56781 16.343ZM9.2471 15.5451L9.94001 15.8321L9.94001 15.8321L9.2471 15.5451ZM7.91672 13.0864L8.49719 12.6115L8.49719 12.6115L7.91672 13.0864ZM7.00467 11.9717L6.4242 12.4466L6.4242 12.4466L7.00467 11.9717ZM7.13837 9.29099L6.60804 8.76066L6.60804 8.76066L7.13837 9.29099ZM9.29273 7.13664L9.82306 7.66697L9.82306 7.66697L9.29273 7.13664ZM11.9734 7.00294L12.4483 6.42247L12.4483 6.42247L11.9734 7.00294ZM13.0875 7.91447L12.6126 8.49494L12.6126 8.49494L13.0875 7.91447ZM15.5462 9.24485L15.2592 8.55195L15.2592 8.55195L15.5462 9.24485ZM16.3441 6.56557L17.0903 6.64019L17.0903 6.64019L16.3441 6.56557ZM16.4872 5.134L15.7409 5.05937L15.7409 5.05937L16.4872 5.134ZM16.9013 3.59156L16.398 3.03547L16.398 3.03547L16.9013 3.59156ZM24.2604 5.05937C24.2196 4.65136 24.1833 4.27364 24.1127 3.96935C24.0373 3.6442 23.9033 3.30701 23.6033 3.03547L22.5967 4.14764C22.5972 4.14809 22.597 4.14785 22.597 4.14787C22.5971 4.14806 22.5997 4.15143 22.6042 4.16024C22.614 4.17963 22.6316 4.22236 22.6515 4.30817C22.6951 4.49648 22.723 4.76071 22.7678 5.20863L24.2604 5.05937ZM24.4036 6.49159L24.2604 5.05937L22.7678 5.20863L22.911 6.64084L24.4036 6.49159ZM24.7422 8.5526C24.8035 8.578 24.7304 8.61884 24.6375 8.24959C24.5444 7.87928 24.4878 7.33371 24.4036 6.49159L22.911 6.64084C22.9902 7.43226 23.0561 8.11185 23.1828 8.61555C23.3098 9.12031 23.554 9.68404 24.1681 9.93842L24.7422 8.5526ZM26.4389 7.33466C25.7839 7.87058 25.3581 8.21636 25.0304 8.41234C24.7036 8.60775 24.6809 8.5272 24.7422 8.5526L24.1681 9.93842C24.7823 10.1928 25.3535 9.96685 25.8003 9.69972C26.246 9.43315 26.7732 8.99925 27.3888 8.49559L26.4389 7.33466ZM27.5529 6.42322L26.4389 7.33466L27.3888 8.49559L28.5028 7.58416L27.5529 6.42322ZM29.4487 5.45675C29.0445 5.43659 28.7113 5.58027 28.4281 5.75688C28.163 5.92215 27.8703 6.16357 27.5529 6.42322L28.5028 7.58416C28.8512 7.29911 29.0577 7.13199 29.2217 7.0297C29.2965 6.9831 29.3391 6.96532 29.3598 6.95855C29.3692 6.95548 29.3734 6.95491 29.3736 6.95487C29.3736 6.95487 29.3733 6.95485 29.3739 6.95489L29.4487 5.45675ZM31.2388 6.60706C30.9489 6.31712 30.6816 6.04777 30.4343 5.85694C30.1701 5.65303 29.8528 5.47691 29.4487 5.45675L29.3739 6.95489C29.3746 6.95492 29.3743 6.9549 29.3743 6.95491C29.3745 6.95496 29.3786 6.95595 29.3877 6.95994C29.4075 6.96873 29.4482 6.99066 29.5179 7.04448C29.671 7.16257 29.8599 7.34942 30.1782 7.66772L31.2388 6.60706ZM33.3932 8.76142L31.2388 6.60706L30.1782 7.66772L32.3325 9.82208L33.3932 8.76142ZM34.5435 10.5516C34.5234 10.1474 34.3472 9.8302 34.1433 9.56595C33.9525 9.31865 33.6832 9.05137 33.3932 8.76142L32.3325 9.82208C32.6508 10.1404 32.8377 10.3293 32.9558 10.4823C33.0096 10.5521 33.0315 10.5927 33.0403 10.6126C33.0443 10.6216 33.0453 10.6258 33.0454 10.626C33.0454 10.626 33.0453 10.6257 33.0454 10.6263L34.5435 10.5516ZM33.577 12.4474C33.8367 12.13 34.0781 11.8372 34.2434 11.5722C34.42 11.289 34.5637 10.9558 34.5435 10.5516L33.0454 10.6263C33.0454 10.627 33.0454 10.6266 33.0454 10.6267C33.0454 10.6269 33.0448 10.6311 33.0417 10.6405C33.0349 10.6611 33.0172 10.7038 32.9706 10.7785C32.8683 10.9425 32.7012 11.1491 32.4161 11.4975L33.577 12.4474ZM32.6656 13.5614L33.577 12.4474L32.4161 11.4975L31.5046 12.6115L32.6656 13.5614ZM31.4476 15.2582C31.473 15.3195 31.3925 15.2967 31.5879 14.9699C31.7839 14.6422 32.1296 14.2164 32.6656 13.5614L31.5046 12.6115C31.001 13.2271 30.5671 13.7543 30.3005 14.2001C30.0334 14.6468 29.8074 15.218 30.0618 15.8322L31.4476 15.2582ZM33.5086 15.5967C32.6665 15.5125 32.121 15.456 31.7506 15.3628C31.3814 15.2699 31.4222 15.1968 31.4476 15.2582L30.0618 15.8322C30.3162 16.4463 30.8799 16.6905 31.3847 16.8175C31.8884 16.9442 32.568 17.0101 33.3594 17.0893L33.5086 15.5967ZM34.941 15.74L33.5086 15.5967L33.3594 17.0893L34.7917 17.2325L34.941 15.74ZM36.9649 16.3971C36.6933 16.097 36.3561 15.963 36.031 15.8876C35.7267 15.8171 35.349 15.7808 34.941 15.74L34.7917 17.2325C35.2396 17.2773 35.5039 17.3052 35.6922 17.3489C35.778 17.3688 35.8207 17.3863 35.8401 17.3962C35.8489 17.4006 35.8523 17.4032 35.8525 17.4033C35.8525 17.4033 35.8522 17.4031 35.8527 17.4036L36.9649 16.3971ZM37.4173 18.4763C37.4173 18.0663 37.4188 17.6868 37.3788 17.377C37.3362 17.046 37.2364 16.6971 36.9649 16.3971L35.8527 17.4036C35.8531 17.4041 35.8529 17.4038 35.8529 17.4038C35.853 17.404 35.8552 17.4076 35.8588 17.4168C35.8667 17.4371 35.8799 17.4814 35.8912 17.5687C35.9159 17.7605 35.9173 18.0262 35.9173 18.4763H37.4173ZM37.4173 21.523V18.4763H35.9173V21.523H37.4173ZM36.9649 23.6023C37.2364 23.3022 37.3362 22.9534 37.3788 22.6223C37.4188 22.3125 37.4173 21.9331 37.4173 21.523H35.9173C35.9173 21.9732 35.9159 22.2389 35.8912 22.4306C35.8799 22.518 35.8667 22.5622 35.8588 22.5825C35.8552 22.5917 35.853 22.5953 35.8529 22.5955C35.8529 22.5955 35.8531 22.5953 35.8527 22.5958L36.9649 23.6023ZM34.941 24.2594C35.349 24.2186 35.7267 24.1823 36.031 24.1117C36.3561 24.0363 36.6933 23.9023 36.9649 23.6023L35.8527 22.5958C35.8522 22.5963 35.8525 22.596 35.8525 22.596C35.8523 22.5962 35.8489 22.5987 35.8401 22.6032C35.8207 22.613 35.778 22.6306 35.6922 22.6505C35.5039 22.6942 35.2396 22.722 34.7917 22.7668L34.941 24.2594ZM33.5093 24.4026L34.941 24.2594L34.7917 22.7668L33.36 22.91L33.5093 24.4026ZM31.4483 24.7411C31.4229 24.8024 31.382 24.7294 31.7513 24.6365C32.1216 24.5433 32.6671 24.4868 33.5093 24.4026L33.36 22.91C32.5686 22.9891 31.889 23.0551 31.3853 23.1818C30.8805 23.3088 30.3168 23.553 30.0624 24.1671L31.4483 24.7411ZM32.6662 26.4379C32.1303 25.7829 31.7845 25.3571 31.5885 25.0294C31.3931 24.7026 31.4737 24.6798 31.4483 24.7411L30.0624 24.1671C29.8081 24.7812 30.034 25.3525 30.3011 25.7992C30.5677 26.245 31.0016 26.7722 31.5053 27.3878L32.6662 26.4379ZM33.5771 27.5512L32.6662 26.4379L31.5053 27.3878L32.4162 28.5011L33.5771 27.5512ZM34.5436 29.447C34.5638 29.0428 34.4201 28.7096 34.2435 28.4264C34.0782 28.1614 33.8368 27.8686 33.5771 27.5512L32.4162 28.5011C32.7012 28.8495 32.8684 29.0561 32.9706 29.2201C33.0172 29.2948 33.035 29.3375 33.0418 29.3581C33.0449 29.3675 33.0454 29.3717 33.0455 29.372C33.0455 29.372 33.0455 29.3716 33.0455 29.3723L34.5436 29.447ZM33.3933 31.2372C33.6832 30.9472 33.9526 30.68 34.1434 30.4327C34.3473 30.1684 34.5234 29.8512 34.5436 29.447L33.0455 29.3723C33.0454 29.3729 33.0454 29.3726 33.0454 29.3726C33.0454 29.3729 33.0444 29.377 33.0404 29.386C33.0316 29.4059 33.0097 29.4465 32.9559 29.5163C32.8378 29.6693 32.6509 29.8582 32.3326 30.1765L33.3933 31.2372ZM31.2389 33.3915L33.3933 31.2372L32.3326 30.1765L30.1783 32.3309L31.2389 33.3915ZM29.4487 34.5419C29.8529 34.5217 30.1701 34.3456 30.4344 34.1417C30.6817 33.9508 30.949 33.6815 31.2389 33.3915L30.1783 32.3309C29.86 32.6492 29.6711 32.836 29.518 32.9541C29.4483 33.0079 29.4076 33.0299 29.3877 33.0387C29.3787 33.0427 29.3746 33.0436 29.3744 33.0437C29.3743 33.0437 29.3747 33.0437 29.374 33.0437L29.4487 34.5419ZM27.553 33.5754C27.8704 33.8351 28.1631 34.0765 28.4282 34.2417C28.7114 34.4183 29.0446 34.562 29.4487 34.5419L29.374 33.0437C29.3734 33.0438 29.3737 33.0437 29.3737 33.0437C29.3734 33.0437 29.3693 33.0431 29.3599 33.0401C29.3392 33.0333 29.2966 33.0155 29.2218 32.9689C29.0578 32.8666 28.8512 32.6995 28.5029 32.4145L27.553 33.5754ZM27.6119 33.619L27.6119 33.619L28.4439 32.3709L28.4439 32.3709L27.6119 33.619ZM26.439 32.664L27.553 33.5754L28.5028 32.4145L27.3889 31.503L26.439 32.664ZM24.7422 31.446C24.6809 31.4714 24.7037 31.3909 25.0305 31.5863C25.3582 31.7823 25.784 32.128 26.439 32.664L27.3889 31.503C26.7733 30.9994 26.2461 30.5655 25.8003 30.2989C25.3536 30.0318 24.7823 29.8058 24.1682 30.0602L24.7422 31.446ZM24.4037 33.507C24.4879 32.6649 24.5444 32.1193 24.6376 31.749C24.7305 31.3798 24.8036 31.4206 24.7422 31.446L24.1682 30.0602C23.5541 30.3146 23.3099 30.8783 23.1829 31.3831C23.0562 31.8868 22.9902 32.5663 22.9111 33.3578L24.4037 33.507ZM24.2604 34.94L24.4037 33.507L22.9111 33.3578L22.7678 34.7907L24.2604 34.94ZM23.6033 36.9639C23.9033 36.6923 24.0373 36.3551 24.1127 36.03C24.1833 35.7257 24.2196 35.348 24.2604 34.94L22.7678 34.7907C22.723 35.2386 22.6951 35.5029 22.6515 35.6912C22.6316 35.777 22.614 35.8197 22.6042 35.8391C22.5997 35.8479 22.5971 35.8513 22.597 35.8515C22.597 35.8515 22.5972 35.8513 22.5967 35.8517L23.6033 36.9639ZM21.524 37.4163C21.9341 37.4163 22.3135 37.4178 22.6233 37.3779C22.9544 37.3352 23.3032 37.2354 23.6033 36.9639L22.5967 35.8517C22.5963 35.8522 22.5965 35.8519 22.5965 35.8519C22.5963 35.8521 22.5927 35.8543 22.5835 35.8578C22.5632 35.8657 22.5189 35.8789 22.4316 35.8902C22.2399 35.9149 21.9742 35.9163 21.524 35.9163V37.4163ZM18.4773 37.4163H21.524V35.9163H18.4773V37.4163ZM16.398 36.9639C16.6981 37.2354 17.0469 37.3352 17.378 37.3779C17.6878 37.4178 18.0672 37.4163 18.4773 37.4163V35.9163C18.0271 35.9163 17.7614 35.9149 17.5697 35.8902C17.4824 35.8789 17.4381 35.8657 17.4178 35.8578C17.4086 35.8543 17.405 35.8521 17.4048 35.8519C17.4048 35.8519 17.405 35.8522 17.4046 35.8517L16.398 36.9639ZM15.7409 34.94C15.7817 35.348 15.8181 35.7257 15.8886 36.03C15.964 36.3551 16.098 36.6923 16.398 36.9639L17.4046 35.8517C17.4041 35.8513 17.4043 35.8515 17.4043 35.8515C17.4042 35.8513 17.4016 35.8479 17.3971 35.8391C17.3873 35.8197 17.3697 35.777 17.3498 35.6912C17.3062 35.5029 17.2783 35.2386 17.2335 34.7907L15.7409 34.94ZM15.5977 33.5077L15.7409 34.94L17.2335 34.7907L17.0903 33.3584L15.5977 33.5077ZM15.2591 31.4467C15.1978 31.4213 15.2709 31.3804 15.3638 31.7497C15.4569 32.12 15.5135 32.6656 15.5977 33.5077L17.0903 33.3584C17.0111 32.567 16.9452 31.8874 16.8185 31.3837C16.6915 30.879 16.4473 30.3152 15.8332 30.0608L15.2591 31.4467ZM13.5624 32.6646C14.2174 32.1287 14.6431 31.7829 14.9709 31.5869C15.2977 31.3915 15.3204 31.4721 15.2591 31.4467L15.8332 30.0608C15.219 29.8065 14.6478 30.0324 14.201 30.2995C13.7553 30.5661 13.2281 31 12.6125 31.5037L13.5624 32.6646ZM12.4483 33.5761L13.5624 32.6646L12.6125 31.5037L11.4984 32.4152L12.4483 33.5761ZM10.5525 34.5426C10.9567 34.5628 11.2899 34.4191 11.5731 34.2425C11.8381 34.0772 12.1309 33.8358 12.4483 33.5761L11.4984 32.4152C11.15 32.7003 10.9435 32.8674 10.7794 32.9697C10.7047 33.0163 10.662 33.0341 10.6414 33.0408C10.632 33.0439 10.6278 33.0445 10.6276 33.0445C10.6275 33.0445 10.6279 33.0445 10.6272 33.0445L10.5525 34.5426ZM8.76232 33.3923C9.05227 33.6823 9.31955 33.9516 9.56685 34.1424C9.8311 34.3463 10.1483 34.5225 10.5525 34.5426L10.6272 33.0445C10.6266 33.0444 10.6269 33.0445 10.6269 33.0445C10.6267 33.0444 10.6225 33.0434 10.6135 33.0394C10.5936 33.0306 10.553 33.0087 10.4832 32.9549C10.3302 32.8368 10.1413 32.65 9.82298 32.3316L8.76232 33.3923ZM6.60796 31.238L8.76232 33.3923L9.82298 32.3316L7.66862 30.1773L6.60796 31.238ZM5.45765 29.4478C5.47781 29.8519 5.65393 30.1692 5.85784 30.4334C6.04867 30.6807 6.31802 30.948 6.60796 31.238L7.66862 30.1773C7.35032 29.859 7.16347 29.6701 7.04538 29.517C6.99156 29.4473 6.96963 29.4066 6.96084 29.3868C6.95685 29.3777 6.95587 29.3736 6.95581 29.3734C6.9558 29.3734 6.95582 29.3737 6.95579 29.373L5.45765 29.4478ZM6.42413 27.552C6.16447 27.8694 5.92306 28.1621 5.75778 28.4272C5.58117 28.7104 5.43749 29.0436 5.45765 29.4478L6.95579 29.373C6.95576 29.3724 6.95577 29.3727 6.95577 29.3727C6.95581 29.3725 6.95638 29.3683 6.95945 29.3589C6.96622 29.3382 6.984 29.2956 7.03061 29.2208C7.13289 29.0568 7.30001 28.8503 7.58506 28.5019L6.42413 27.552ZM7.33563 26.4379L6.42413 27.552L7.58506 28.5019L8.49656 27.3878L7.33563 26.4379ZM8.55357 24.7412C8.52817 24.6799 8.60872 24.7026 8.4133 25.0294C8.21733 25.3572 7.87155 25.7829 7.33563 26.4379L8.49656 27.3878C9.00022 26.7722 9.43412 26.245 9.70069 25.7993C9.96781 25.3526 10.1938 24.7813 9.93939 24.1672L8.55357 24.7412ZM6.49256 24.4026C7.33468 24.4868 7.88024 24.5434 8.25056 24.6365C8.61981 24.7294 8.57896 24.8025 8.55357 24.7412L9.93938 24.1672C9.685 23.553 9.12128 23.3088 8.61652 23.1819C8.11282 23.0551 7.43323 22.9892 6.64181 22.91L6.49256 24.4026ZM5.06035 24.2594L6.49256 24.4026L6.64181 22.91L5.2096 22.7668L5.06035 24.2594ZM3.03644 23.6023C3.30798 23.9023 3.64518 24.0363 3.97033 24.1117C4.27462 24.1823 4.65233 24.2186 5.06035 24.2594L5.2096 22.7668C4.76169 22.722 4.49745 22.6941 4.30914 22.6505C4.22333 22.6306 4.18061 22.613 4.16122 22.6032C4.15241 22.5987 4.14904 22.5962 4.14885 22.596C4.14882 22.596 4.14907 22.5963 4.14862 22.5958L3.03644 23.6023ZM2.58398 21.523C2.58398 21.9331 2.58253 22.3125 2.62246 22.6223C2.66512 22.9534 2.7649 23.3022 3.03644 23.6023L4.14862 22.5958C4.14818 22.5953 4.14841 22.5955 4.1484 22.5955C4.14827 22.5953 4.14606 22.5917 4.1425 22.5825C4.13465 22.5622 4.12141 22.518 4.11015 22.4306C4.08544 22.2389 4.08398 21.9732 4.08398 21.523H2.58398ZM2.58398 18.4763V21.523H4.08398V18.4763H2.58398ZM3.03644 16.3971C2.7649 16.6971 2.66512 17.046 2.62246 17.377C2.58253 17.6868 2.58398 18.0663 2.58398 18.4763H4.08398C4.08398 18.0262 4.08544 17.7605 4.11015 17.5687C4.12141 17.4814 4.13465 17.4371 4.1425 17.4168C4.14606 17.4076 4.14827 17.404 4.1484 17.4038C4.14841 17.4038 4.14818 17.4041 4.14862 17.4036L3.03644 16.3971ZM5.06035 15.74C4.65234 15.7808 4.27462 15.8171 3.97033 15.8876C3.64518 15.963 3.30798 16.097 3.03644 16.3971L4.14862 17.4036C4.14907 17.4031 4.14882 17.4033 4.14885 17.4033C4.14904 17.4032 4.15241 17.4006 4.16122 17.3962C4.18061 17.3863 4.22333 17.3688 4.30914 17.3489C4.49745 17.3052 4.76169 17.2773 5.20961 17.2325L5.06035 15.74ZM6.49318 15.5967L5.06035 15.74L5.2096 17.2325L6.64244 17.0892L6.49318 15.5967ZM8.55419 15.2581C8.57959 15.1968 8.62044 15.2699 8.25118 15.3627C7.88087 15.4559 7.33531 15.5125 6.49318 15.5967L6.64244 17.0892C7.43385 17.0101 8.11344 16.9441 8.61714 16.8174C9.1219 16.6904 9.68563 16.4463 9.94001 15.8321L8.55419 15.2581ZM7.33625 13.5613C7.87217 14.2164 8.21795 14.6421 8.41393 14.9698C8.60934 15.2966 8.52879 15.3194 8.55419 15.2581L9.94001 15.8321C10.1944 15.218 9.96844 14.6467 9.70131 14.2C9.43474 13.7542 9.00084 13.2271 8.49719 12.6115L7.33625 13.5613ZM6.4242 12.4466L7.33625 13.5613L8.49719 12.6115L7.58514 11.4968L6.4242 12.4466ZM5.45773 10.5508C5.43757 10.955 5.58125 11.2882 5.75786 11.5714C5.92313 11.8365 6.16454 12.1292 6.4242 12.4466L7.58514 11.4968C7.30009 11.1484 7.13296 10.9418 7.03068 10.7778C6.98407 10.703 6.96629 10.6604 6.95953 10.6397C6.95646 10.6303 6.95588 10.6261 6.95585 10.6259C6.95585 10.6259 6.95583 10.6262 6.95587 10.6256L5.45773 10.5508ZM6.60804 8.76066C6.31809 9.05061 6.04875 9.31789 5.85792 9.56519C5.65401 9.82944 5.47789 10.1467 5.45773 10.5508L6.95587 10.6256C6.9559 10.6249 6.95588 10.6253 6.95588 10.6252C6.95594 10.625 6.95693 10.6209 6.96092 10.6119C6.96971 10.592 6.99164 10.5513 7.04545 10.4816C7.16355 10.3285 7.3504 10.1396 7.6687 9.82132L6.60804 8.76066ZM8.7624 6.60631L6.60804 8.76066L7.6687 9.82132L9.82306 7.66697L8.7624 6.60631ZM10.5526 5.456C10.1484 5.47615 9.83117 5.65227 9.56692 5.85619C9.31963 6.04702 9.05234 6.31636 8.7624 6.60631L9.82306 7.66697C10.1414 7.34866 10.3303 7.16182 10.4833 7.04372C10.553 6.98991 10.5937 6.96797 10.6136 6.95919C10.6226 6.9552 10.6267 6.95421 10.627 6.95415C10.627 6.95414 10.6266 6.95417 10.6273 6.95413L10.5526 5.456ZM12.4483 6.42247C12.131 6.16281 11.8382 5.9214 11.5732 5.75612C11.2899 5.57952 10.9568 5.43584 10.5526 5.456L10.6273 6.95413C10.628 6.9541 10.6276 6.95411 10.6276 6.95412C10.6279 6.95415 10.6321 6.95473 10.6414 6.9578C10.6621 6.96456 10.7047 6.98234 10.7795 7.02895C10.9435 7.13123 11.1501 7.29835 11.4985 7.58341L12.4483 6.42247ZM13.5624 7.334L12.4483 6.42247L11.4985 7.58341L12.6126 8.49494L13.5624 7.334ZM15.2592 8.55195C15.3205 8.52655 15.2977 8.6071 14.971 8.41168C14.6432 8.21571 14.2175 7.86993 13.5624 7.334L12.6126 8.49494C13.2282 8.99859 13.7553 9.4325 14.2011 9.69906C14.6478 9.96619 15.2191 10.1921 15.8332 9.93776L15.2592 8.55195ZM15.5978 6.49094C15.5136 7.33306 15.457 7.87862 15.3639 8.24894C15.271 8.61819 15.1979 8.57734 15.2592 8.55195L15.8332 9.93776C16.4474 9.68338 16.6915 9.11966 16.8185 8.6149C16.9452 8.1112 17.0112 7.43161 17.0903 6.64019L15.5978 6.49094ZM15.7409 5.05937L15.5978 6.49094L17.0903 6.64019L17.2335 5.20863L15.7409 5.05937ZM16.398 3.03547C16.098 3.30701 15.964 3.6442 15.8886 3.96935C15.818 4.27364 15.7817 4.65136 15.7409 5.05937L17.2335 5.20863C17.2783 4.76071 17.3062 4.49648 17.3498 4.30817C17.3697 4.22236 17.3873 4.17963 17.3971 4.16024C17.4016 4.15144 17.4042 4.14806 17.4043 4.14787C17.4043 4.14785 17.4041 4.14809 17.4046 4.14764L16.398 3.03547ZM18.4773 2.58301C18.0672 2.58301 17.6878 2.58155 17.378 2.62148C17.0469 2.66414 16.6981 2.76393 16.398 3.03547L17.4046 4.14765C17.405 4.1472 17.4048 4.14744 17.4048 4.14742C17.405 4.1473 17.4086 4.14508 17.4178 4.14152C17.4381 4.13367 17.4824 4.12043 17.5697 4.10917C17.7614 4.08446 18.0271 4.08301 18.4773 4.08301V2.58301ZM21.524 2.58301H18.4773V4.08301H21.524V2.58301ZM23.6033 3.03547C23.3032 2.76393 22.9544 2.66414 22.6233 2.62148C22.3135 2.58155 21.9341 2.58301 21.524 2.58301V4.08301C21.9742 4.08301 22.2399 4.08446 22.4316 4.10917C22.5189 4.12043 22.5632 4.13367 22.5835 4.14152C22.5927 4.14508 22.5963 4.1473 22.5965 4.14742C22.5965 4.14744 22.5963 4.1472 22.5968 4.14765L23.6033 3.03547ZM25.9173 19.9997C25.9173 23.2674 23.2683 25.9163 20.0007 25.9163V27.4163C24.0968 27.4163 27.4173 24.0958 27.4173 19.9997H25.9173ZM20.0007 14.083C23.2683 14.083 25.9173 16.732 25.9173 19.9997H27.4173C27.4173 15.9036 24.0968 12.583 20.0007 12.583V14.083ZM14.084 19.9997C14.084 16.732 16.733 14.083 20.0007 14.083V12.583C15.9045 12.583 12.584 15.9036 12.584 19.9997H14.084ZM20.0007 25.9163C16.733 25.9163 14.084 23.2674 14.084 19.9997H12.584C12.584 24.0958 15.9045 27.4163 20.0007 27.4163V25.9163Z" fill="#090A0A"/>
</svg>
