<svg width="35" height="35" viewBox="0 0 35 35" fill="none" xmlns="http://www.w3.org/2000/svg">
<path d="M27.7084 14.584V5.83398M23.3334 10.209H32.0834M23.3334 30.6256V28.8757C23.3334 26.4254 23.3334 25.2003 22.8566 24.2644C22.4371 23.4412 21.7678 22.7719 20.9446 22.3525C20.0088 21.8757 18.7836 21.8757 16.3334 21.8757H9.91675C7.46652 21.8757 6.2414 21.8757 5.30554 22.3525C4.48233 22.7719 3.81304 23.4412 3.39359 24.2644C2.91675 25.2003 2.91675 26.4254 2.91675 28.8757V30.6256M18.2292 10.9382C18.2292 13.7571 15.944 16.0423 13.1251 16.0423C10.3061 16.0423 8.02091 13.7571 8.02091 10.9382C8.02091 8.1192 10.3061 5.83398 13.1251 5.83398C15.944 5.83398 18.2292 8.1192 18.2292 10.9382Z" stroke="#979C9E" stroke-width="2" stroke-linecap="round" stroke-linejoin="round"/>
</svg>
