<svg width="35" height="35" viewBox="0 0 35 35" fill="none" xmlns="http://www.w3.org/2000/svg">
<path d="M11.6667 11.668L11.6667 10.2096C11.6667 6.98797 14.2784 4.3763 17.5001 4.3763V4.3763C20.7217 4.3763 23.3334 6.98797 23.3334 10.2096L23.3334 11.668" stroke="#979C9E" stroke-width="2" stroke-linecap="round"/>
<path d="M21.875 20.4167V17.5" stroke="#979C9E" stroke-width="2" stroke-linecap="round"/>
<path d="M13.125 20.4167V17.5" stroke="#979C9E" stroke-width="2" stroke-linecap="round"/>
<path d="M5.83325 15.668C5.83325 13.7824 5.83325 12.8395 6.41904 12.2538C7.00482 11.668 7.94763 11.668 9.83325 11.668H25.1666C27.0522 11.668 27.995 11.668 28.5808 12.2538C29.1666 12.8395 29.1666 13.7824 29.1666 15.668V22.6263C29.1666 26.3975 29.1666 28.2832 27.995 29.4547C26.8234 30.6263 24.9378 30.6263 21.1666 30.6263H13.8333C10.062 30.6263 8.1764 30.6263 7.00482 29.4547C5.83325 28.2832 5.83325 26.3975 5.83325 22.6263V15.668Z" stroke="#979C9E" stroke-width="2"/>
</svg>
