<svg width="20" height="20" viewBox="0 0 20 20" fill="none" xmlns="http://www.w3.org/2000/svg">
<path d="M17.5 9.08366C17.9142 9.08366 18.25 8.74787 18.25 8.33366C18.25 7.91945 17.9142 7.58366 17.5 7.58366V9.08366ZM2.5 7.58366C2.08579 7.58366 1.75 7.91945 1.75 8.33366C1.75 8.74787 2.08579 9.08366 2.5 9.08366V7.58366ZM3.86502 18.0612L3.52453 18.7294L3.86502 18.0612ZM2.77248 16.9686L2.10423 17.3091L2.77248 16.9686ZM17.2275 16.9686L17.8958 17.3091L17.2275 16.9686ZM16.135 18.0612L16.4755 18.7294L16.135 18.0612ZM16.135 3.60614L16.4755 2.93789L16.135 3.60614ZM17.2275 4.69868L17.8958 4.35819L17.2275 4.69868ZM3.86502 3.60614L3.52453 2.93789H3.52453L3.86502 3.60614ZM2.77248 4.69868L2.10423 4.35819L2.77248 4.69868ZM14.0833 1.66699C14.0833 1.25278 13.7475 0.916992 13.3333 0.916992C12.9191 0.916992 12.5833 1.25278 12.5833 1.66699H14.0833ZM12.5833 5.00033C12.5833 5.41454 12.9191 5.75033 13.3333 5.75033C13.7475 5.75033 14.0833 5.41454 14.0833 5.00033H12.5833ZM7.41667 1.66699C7.41667 1.25278 7.08088 0.916992 6.66667 0.916992C6.25245 0.916992 5.91667 1.25278 5.91667 1.66699H7.41667ZM5.91667 5.00033C5.91667 5.41454 6.25245 5.75033 6.66667 5.75033C7.08088 5.75033 7.41667 5.41454 7.41667 5.00033H5.91667ZM8.33397 11.043C7.98933 11.2727 7.8962 11.7384 8.12596 12.083C8.35573 12.4277 8.82138 12.5208 9.16603 12.291L8.33397 11.043ZM10 10.8337H10.75C10.75 10.5571 10.5978 10.3029 10.3539 10.1724C10.11 10.0419 9.81412 10.0562 9.58397 10.2096L10 10.8337ZM9.25 15.0003C9.25 15.4145 9.58579 15.7503 10 15.7503C10.4142 15.7503 10.75 15.4145 10.75 15.0003H9.25ZM8.95833 14.2503C8.54412 14.2503 8.20833 14.5861 8.20833 15.0003C8.20833 15.4145 8.54412 15.7503 8.95833 15.7503V14.2503ZM11.0417 15.7503C11.4559 15.7503 11.7917 15.4145 11.7917 15.0003C11.7917 14.5861 11.4559 14.2503 11.0417 14.2503V15.7503ZM17.5 7.58366H2.5V9.08366H17.5V7.58366ZM6.5 4.08366H13.5V2.58366H6.5V4.08366ZM16.75 7.33366V14.3337H18.25V7.33366H16.75ZM13.5 17.5837H6.5V19.0837H13.5V17.5837ZM3.25 14.3337V7.33366H1.75V14.3337H3.25ZM6.5 17.5837C5.78756 17.5837 5.29833 17.5831 4.91908 17.5521C4.54858 17.5218 4.34956 17.4663 4.20552 17.3929L3.52453 18.7294C3.91527 18.9285 4.33367 19.0093 4.79693 19.0471C5.25144 19.0842 5.81231 19.0837 6.5 19.0837V17.5837ZM1.75 14.3337C1.75 15.0213 1.74942 15.5822 1.78655 16.0367C1.8244 16.5 1.90514 16.9184 2.10423 17.3091L3.44074 16.6281C3.36735 16.4841 3.31184 16.2851 3.28157 15.9146C3.25058 15.5353 3.25 15.0461 3.25 14.3337H1.75ZM4.20552 17.3929C3.87623 17.2251 3.60852 16.9574 3.44074 16.6281L2.10423 17.3091C2.41582 17.9207 2.913 18.4178 3.52453 18.7294L4.20552 17.3929ZM16.75 14.3337C16.75 15.0461 16.7494 15.5353 16.7184 15.9146C16.6882 16.2851 16.6327 16.4841 16.5593 16.6281L17.8958 17.3091C18.0949 16.9184 18.1756 16.5 18.2134 16.0367C18.2506 15.5822 18.25 15.0213 18.25 14.3337H16.75ZM13.5 19.0837C14.1877 19.0837 14.7486 19.0842 15.2031 19.0471C15.6663 19.0093 16.0847 18.9285 16.4755 18.7294L15.7945 17.3929C15.6504 17.4663 15.4514 17.5218 15.0809 17.5521C14.7017 17.5831 14.2124 17.5837 13.5 17.5837V19.0837ZM16.5593 16.6281C16.3915 16.9574 16.1238 17.2251 15.7945 17.3929L16.4755 18.7294C17.087 18.4178 17.5842 17.9207 17.8958 17.3091L16.5593 16.6281ZM13.5 4.08366C14.2124 4.08366 14.7017 4.08424 15.0809 4.11523C15.4514 4.1455 15.6504 4.20101 15.7945 4.2744L16.4755 2.93789C16.0847 2.7388 15.6663 2.65806 15.2031 2.62021C14.7486 2.58308 14.1877 2.58366 13.5 2.58366V4.08366ZM18.25 7.33366C18.25 6.64597 18.2506 6.0851 18.2134 5.63059C18.1756 5.16733 18.0949 4.74893 17.8958 4.35819L16.5593 5.03918C16.6327 5.18321 16.6882 5.38224 16.7184 5.75274C16.7494 6.13199 16.75 6.62122 16.75 7.33366H18.25ZM15.7945 4.2744C16.1238 4.44218 16.3915 4.70989 16.5593 5.03918L17.8958 4.35819C17.5842 3.74666 17.087 3.24948 16.4755 2.93789L15.7945 4.2744ZM6.5 2.58366C5.81231 2.58366 5.25144 2.58308 4.79693 2.62021C4.33367 2.65806 3.91527 2.7388 3.52453 2.93789L4.20552 4.2744C4.34956 4.20101 4.54858 4.1455 4.91908 4.11523C5.29833 4.08424 5.78756 4.08366 6.5 4.08366V2.58366ZM3.25 7.33366C3.25 6.62122 3.25058 6.13199 3.28157 5.75274C3.31184 5.38224 3.36735 5.18321 3.44074 5.03918L2.10423 4.35819C1.90514 4.74893 1.8244 5.16733 1.78655 5.63059C1.74942 6.0851 1.75 6.64597 1.75 7.33366H3.25ZM3.52453 2.93789C2.913 3.24948 2.41582 3.74666 2.10423 4.35819L3.44074 5.03918C3.60852 4.70989 3.87623 4.44218 4.20552 4.2744L3.52453 2.93789ZM12.5833 1.66699V5.00033H14.0833V1.66699H12.5833ZM5.91667 1.66699V5.00033H7.41667V1.66699H5.91667ZM9.16603 12.291L10.416 11.4577L9.58397 10.2096L8.33397 11.043L9.16603 12.291ZM9.25 10.8337V15.0003H10.75V10.8337H9.25ZM8.95833 15.7503H11.0417V14.2503H8.95833V15.7503Z" fill="#979C9E"/>
</svg>
