<svg width="120" height="120" viewBox="0 0 120 120" fill="none" xmlns="http://www.w3.org/2000/svg">
<path d="M110 57.5V73C110 84.201 110 89.8016 107.82 94.0798C105.903 97.8431 102.843 100.903 99.0798 102.82C94.8016 105 89.201 105 78 105H42C30.799 105 25.1984 105 20.9202 102.82C17.1569 100.903 14.0973 97.8431 12.1799 94.0798C10 89.8016 10 84.201 10 73V47C10 35.799 10 30.1984 12.1799 25.9202C14.0973 22.1569 17.1569 19.0973 20.9202 17.1799C25.1984 15 30.799 15 42 15H62.5M95 40V10M80 25H110M80 60C80 71.0457 71.0457 80 60 80C48.9543 80 40 71.0457 40 60C40 48.9543 48.9543 40 60 40C71.0457 40 80 48.9543 80 60Z" stroke="#979C9E" stroke-width="5" stroke-linecap="round" stroke-linejoin="round"/>
</svg>
