<svg width="35" height="35" viewBox="0 0 35 35" fill="none" xmlns="http://www.w3.org/2000/svg">
<path d="M11.667 11.666L11.667 10.2077C11.667 6.98602 14.2787 4.37435 17.5003 4.37435V4.37435C20.722 4.37435 23.3337 6.98602 23.3337 10.2077L23.3337 11.666" stroke="#979C9E" stroke-width="2" stroke-linecap="round"/>
<path d="M21.875 20.4167V17.5" stroke="#979C9E" stroke-width="2" stroke-linecap="round"/>
<path d="M13.125 20.4167V17.5" stroke="#979C9E" stroke-width="2" stroke-linecap="round"/>
<path d="M5.83301 15.666C5.83301 13.7804 5.83301 12.8376 6.41879 12.2518C7.00458 11.666 7.94739 11.666 9.83301 11.666H25.1663C27.052 11.666 27.9948 11.666 28.5806 12.2518C29.1663 12.8376 29.1663 13.7804 29.1663 15.666V22.6243C29.1663 26.3956 29.1663 28.2812 27.9948 29.4528C26.8232 30.6243 24.9376 30.6243 21.1663 30.6243H13.833C10.0618 30.6243 8.17615 30.6243 7.00458 29.4528C5.83301 28.2812 5.83301 26.3956 5.83301 22.6243V15.666Z" stroke="#979C9E" stroke-width="2"/>
<circle cx="28" cy="9" r="7" fill="#D55634"/>
<path d="M29.7333 10.9C29.8933 10.9 30.0267 10.9533 30.1333 11.06C30.24 11.1667 30.2933 11.3 30.2933 11.46C30.2933 11.6133 30.24 11.7433 30.1333 11.85C30.0267 11.95 29.8933 12 29.7333 12H26.3333C26.16 12 26.0233 11.9467 25.9233 11.84C25.8233 11.7333 25.7733 11.5967 25.7733 11.43C25.7733 11.2633 25.8333 11.1167 25.9533 10.99L28.1333 8.66C28.38 8.39333 28.5733 8.12 28.7133 7.84C28.86 7.56 28.9333 7.31667 28.9333 7.11C28.9333 6.77667 28.8367 6.51 28.6433 6.31C28.45 6.10333 28.1933 6 27.8733 6C27.7467 6 27.6167 6.03 27.4833 6.09C27.35 6.15 27.22 6.23333 27.0933 6.34C26.9733 6.44667 26.86 6.57 26.7533 6.71C26.6733 6.81667 26.5933 6.88333 26.5133 6.91C26.4333 6.93667 26.36 6.95 26.2933 6.95C26.1467 6.95 26.01 6.89667 25.8833 6.79C25.7633 6.67667 25.7033 6.54667 25.7033 6.4C25.7033 6.28667 25.74 6.17667 25.8133 6.07C25.8933 5.96333 25.99 5.85333 26.1033 5.74C26.27 5.57333 26.4567 5.42667 26.6633 5.3C26.87 5.17333 27.0833 5.07667 27.3033 5.01C27.5233 4.93667 27.7367 4.9 27.9433 4.9C28.39 4.9 28.7767 4.99 29.1033 5.17C29.4367 5.34333 29.6933 5.59333 29.8733 5.92C30.0533 6.24 30.1433 6.62 30.1433 7.06C30.1433 7.42667 30.0333 7.83667 29.8133 8.29C29.6 8.73667 29.31 9.15667 28.9433 9.55L27.5933 10.99L27.4833 10.9H29.7333Z" fill="#FBFCFD"/>
</svg>
