<svg width="31" height="30" viewBox="0 0 31 30" fill="none" xmlns="http://www.w3.org/2000/svg">
<path d="M15.3348 21.25C15.3348 24.7018 18.1847 27.5 21.7004 27.5C25.216 27.5 28.066 24.7018 28.066 21.25C28.066 17.7982 25.216 15 21.7004 15C18.1847 15 15.3348 17.7982 15.3348 21.25ZM15.3348 21.25C15.3348 19.8427 15.8085 18.5441 16.6079 17.4994V6.25M15.3348 21.25C15.3348 22.2817 15.5894 23.255 16.0402 24.1127C14.9677 25.0022 12.4904 25.625 9.6057 25.625C5.7385 25.625 2.60352 24.5057 2.60352 23.125V6.25M16.6079 6.25C16.6079 7.63071 13.4729 8.75 9.6057 8.75C5.7385 8.75 2.60352 7.63071 2.60352 6.25M16.6079 6.25C16.6079 4.86929 13.4729 3.75 9.6057 3.75C5.7385 3.75 2.60352 4.86929 2.60352 6.25M2.60352 17.5C2.60352 18.8807 5.7385 20 9.6057 20C12.3926 20 14.7992 19.4187 15.9263 18.5772M16.6079 11.875C16.6079 13.2557 13.4729 14.375 9.6057 14.375C5.7385 14.375 2.60352 13.2557 2.60352 11.875" stroke="#BC8B09" stroke-width="1.5" stroke-linecap="round" stroke-linejoin="round"/>
</svg>
