<svg width="15" height="15" viewBox="0 0 15 15" fill="none" xmlns="http://www.w3.org/2000/svg">
<path d="M8.75 1.41846V4.00005C8.75 4.35008 8.75 4.52509 8.81812 4.65879C8.87804 4.77639 8.97365 4.872 9.09126 4.93192C9.22495 5.00004 9.39997 5.00004 9.75 5.00004H12.3316M8.75 10.625H5M10 8.125H5M12.5 6.24264V10.75C12.5 11.8001 12.5 12.3251 12.2956 12.7262C12.1159 13.079 11.829 13.3659 11.4762 13.5456C11.0751 13.75 10.5501 13.75 9.5 13.75H5.5C4.4499 13.75 3.92485 13.75 3.52377 13.5456C3.17096 13.3659 2.88413 13.079 2.70436 12.7262C2.5 12.3251 2.5 11.8001 2.5 10.75V4.25C2.5 3.1999 2.5 2.67485 2.70436 2.27377C2.88413 1.92096 3.17096 1.63413 3.52377 1.45436C3.92485 1.25 4.4499 1.25 5.5 1.25H7.50736C7.96597 1.25 8.19527 1.25 8.41106 1.30181C8.60238 1.34774 8.78527 1.4235 8.95303 1.5263C9.14225 1.64225 9.3044 1.8044 9.62868 2.12868L11.6213 4.12132C11.9456 4.4456 12.1077 4.60775 12.2237 4.79697C12.3265 4.96473 12.4023 5.14762 12.4482 5.33894C12.5 5.55473 12.5 5.78403 12.5 6.24264Z" stroke="#6C7072" stroke-width="0.5" stroke-linecap="round" stroke-linejoin="round"/>
</svg>
