<svg width="50" height="10" viewBox="0 0 50 10" fill="none" xmlns="http://www.w3.org/2000/svg">
<path d="M4.22657 2.76176C4.55432 1.94467 4.7182 1.53613 5 1.53613C5.2818 1.53613 5.44568 1.94467 5.77343 2.76176L5.78869 2.79981C5.97385 3.26142 6.06644 3.49222 6.25512 3.63251C6.44381 3.7728 6.6915 3.79498 7.18688 3.83934L7.27644 3.84737C8.0872 3.91998 8.49257 3.95628 8.57932 4.21419C8.66606 4.4721 8.36501 4.74599 7.7629 5.29378L7.56195 5.4766C7.25716 5.7539 7.10476 5.89255 7.03373 6.07427C7.02048 6.10817 7.00947 6.1429 7.00076 6.17824C6.95407 6.36768 6.99869 6.56882 7.08795 6.97109L7.11573 7.09631C7.27976 7.83562 7.36178 8.20527 7.21858 8.36472C7.16507 8.42429 7.09552 8.46719 7.01826 8.48827C6.81151 8.54469 6.51798 8.3055 5.93092 7.82713C5.54543 7.51301 5.35268 7.35595 5.13139 7.32062C5.04435 7.30672 4.95565 7.30672 4.8686 7.32062C4.64731 7.35595 4.45457 7.51301 4.06908 7.82713C3.48202 8.3055 3.18848 8.54469 2.98173 8.48827C2.90448 8.46719 2.83493 8.42429 2.78142 8.36472C2.63822 8.20527 2.72024 7.83562 2.88427 7.09631L2.91205 6.97109C3.0013 6.56882 3.04593 6.36768 2.99924 6.17824C2.99053 6.1429 2.97952 6.10817 2.96627 6.07427C2.89523 5.89255 2.74284 5.7539 2.43804 5.4766L2.23709 5.29378C1.63499 4.74599 1.33394 4.4721 1.42068 4.21419C1.50742 3.95628 1.9128 3.91997 2.72356 3.84737L2.81311 3.83934C3.30849 3.79498 3.55619 3.7728 3.74487 3.63251C3.93356 3.49222 4.02614 3.26142 4.21131 2.7998L4.22657 2.76176Z" fill="#FFD669" stroke="#FFD669" stroke-width="1.4"/>
<path d="M14.2266 2.76176C14.5543 1.94467 14.7182 1.53613 15 1.53613C15.2818 1.53613 15.4457 1.94467 15.7734 2.76176L15.7887 2.79981C15.9739 3.26142 16.0664 3.49222 16.2551 3.63251C16.4438 3.7728 16.6915 3.79498 17.1869 3.83934L17.2764 3.84737C18.0872 3.91998 18.4926 3.95628 18.5793 4.21419C18.6661 4.4721 18.365 4.74599 17.7629 5.29378L17.562 5.4766C17.2572 5.7539 17.1048 5.89255 17.0337 6.07427C17.0205 6.10817 17.0095 6.1429 17.0008 6.17824C16.9541 6.36768 16.9987 6.56882 17.0879 6.97109L17.1157 7.09631C17.2798 7.83562 17.3618 8.20527 17.2186 8.36472C17.1651 8.42429 17.0955 8.46719 17.0183 8.48827C16.8115 8.54469 16.518 8.3055 15.9309 7.82713C15.5454 7.51301 15.3527 7.35595 15.1314 7.32062C15.0443 7.30672 14.9556 7.30672 14.8686 7.32062C14.6473 7.35595 14.4546 7.51301 14.0691 7.82713C13.482 8.3055 13.1885 8.54469 12.9817 8.48827C12.9045 8.46719 12.8349 8.42429 12.7814 8.36472C12.6382 8.20527 12.7202 7.83562 12.8843 7.09631L12.912 6.97109C13.0013 6.56882 13.0459 6.36768 12.9992 6.17824C12.9905 6.1429 12.9795 6.10817 12.9663 6.07427C12.8952 5.89255 12.7428 5.7539 12.438 5.4766L12.2371 5.29378C11.635 4.74599 11.3339 4.4721 11.4207 4.21419C11.5074 3.95628 11.9128 3.91997 12.7236 3.84737L12.8131 3.83934C13.3085 3.79498 13.5562 3.7728 13.7449 3.63251C13.9336 3.49222 14.0261 3.26142 14.2113 2.7998L14.2266 2.76176Z" fill="#FFD669" stroke="#FFD669" stroke-width="1.4"/>
<path d="M24.2266 2.76176C24.5543 1.94467 24.7182 1.53613 25 1.53613C25.2818 1.53613 25.4457 1.94467 25.7734 2.76176L25.7887 2.79981C25.9739 3.26142 26.0664 3.49222 26.2551 3.63251C26.4438 3.7728 26.6915 3.79498 27.1869 3.83934L27.2764 3.84737C28.0872 3.91998 28.4926 3.95628 28.5793 4.21419C28.6661 4.4721 28.365 4.74599 27.7629 5.29378L27.562 5.4766C27.2572 5.7539 27.1048 5.89255 27.0337 6.07427C27.0205 6.10817 27.0095 6.1429 27.0008 6.17824C26.9541 6.36768 26.9987 6.56882 27.0879 6.97109L27.1157 7.09631C27.2798 7.83562 27.3618 8.20527 27.2186 8.36472C27.1651 8.42429 27.0955 8.46719 27.0183 8.48827C26.8115 8.54469 26.518 8.3055 25.9309 7.82713C25.5454 7.51301 25.3527 7.35595 25.1314 7.32062C25.0443 7.30672 24.9556 7.30672 24.8686 7.32062C24.6473 7.35595 24.4546 7.51301 24.0691 7.82713C23.482 8.3055 23.1885 8.54469 22.9817 8.48827C22.9045 8.46719 22.8349 8.42429 22.7814 8.36472C22.6382 8.20527 22.7202 7.83562 22.8843 7.09631L22.912 6.97109C23.0013 6.56882 23.0459 6.36768 22.9992 6.17824C22.9905 6.1429 22.9795 6.10817 22.9663 6.07427C22.8952 5.89255 22.7428 5.7539 22.438 5.4766L22.2371 5.29378C21.635 4.74599 21.3339 4.4721 21.4207 4.21419C21.5074 3.95628 21.9128 3.91997 22.7236 3.84737L22.8131 3.83934C23.3085 3.79498 23.5562 3.7728 23.7449 3.63251C23.9336 3.49222 24.0261 3.26142 24.2113 2.7998L24.2266 2.76176Z" fill="#FFD669" stroke="#FFD669" stroke-width="1.4"/>
<path d="M34.2266 2.76176C34.5543 1.94467 34.7182 1.53613 35 1.53613C35.2818 1.53613 35.4457 1.94467 35.7734 2.76176L35.7887 2.79981C35.9739 3.26142 36.0664 3.49222 36.2551 3.63251C36.4438 3.7728 36.6915 3.79498 37.1869 3.83934L37.2764 3.84737C38.0872 3.91998 38.4926 3.95628 38.5793 4.21419C38.6661 4.4721 38.365 4.74599 37.7629 5.29378L37.562 5.4766C37.2572 5.7539 37.1048 5.89255 37.0337 6.07427C37.0205 6.10817 37.0095 6.1429 37.0008 6.17824C36.9541 6.36768 36.9987 6.56882 37.0879 6.97109L37.1157 7.09631C37.2798 7.83562 37.3618 8.20527 37.2186 8.36472C37.1651 8.42429 37.0955 8.46719 37.0183 8.48827C36.8115 8.54469 36.518 8.3055 35.9309 7.82713C35.5454 7.51301 35.3527 7.35595 35.1314 7.32062C35.0443 7.30672 34.9556 7.30672 34.8686 7.32062C34.6473 7.35595 34.4546 7.51301 34.0691 7.82713C33.482 8.3055 33.1885 8.54469 32.9817 8.48827C32.9045 8.46719 32.8349 8.42429 32.7814 8.36472C32.6382 8.20527 32.7202 7.83562 32.8843 7.09631L32.912 6.97109C33.0013 6.56882 33.0459 6.36768 32.9992 6.17824C32.9905 6.1429 32.9795 6.10817 32.9663 6.07427C32.8952 5.89255 32.7428 5.7539 32.438 5.4766L32.2371 5.29378C31.635 4.74599 31.3339 4.4721 31.4207 4.21419C31.5074 3.95628 31.9128 3.91997 32.7236 3.84737L32.8131 3.83934C33.3085 3.79498 33.5562 3.7728 33.7449 3.63251C33.9336 3.49222 34.0261 3.26142 34.2113 2.7998L34.2266 2.76176Z" fill="#FFD669" stroke="#FFD669" stroke-width="1.4"/>
<path d="M44.2266 2.76176C44.5543 1.94467 44.7182 1.53613 45 1.53613C45.2818 1.53613 45.4457 1.94467 45.7734 2.76176L45.7887 2.79981C45.9739 3.26142 46.0664 3.49222 46.2551 3.63251C46.4438 3.7728 46.6915 3.79498 47.1869 3.83934L47.2764 3.84737C48.0872 3.91998 48.4926 3.95628 48.5793 4.21419C48.6661 4.4721 48.365 4.74599 47.7629 5.29378L47.562 5.4766C47.2572 5.7539 47.1048 5.89255 47.0337 6.07427C47.0205 6.10817 47.0095 6.1429 47.0008 6.17824C46.9541 6.36768 46.9987 6.56882 47.0879 6.97109L47.1157 7.09631C47.2798 7.83562 47.3618 8.20527 47.2186 8.36472C47.1651 8.42429 47.0955 8.46719 47.0183 8.48827C46.8115 8.54469 46.518 8.3055 45.9309 7.82713C45.5454 7.51301 45.3527 7.35595 45.1314 7.32062C45.0443 7.30672 44.9556 7.30672 44.8686 7.32062C44.6473 7.35595 44.4546 7.51301 44.0691 7.82713C43.482 8.3055 43.1885 8.54469 42.9817 8.48827C42.9045 8.46719 42.8349 8.42429 42.7814 8.36472C42.6382 8.20527 42.7202 7.83562 42.8843 7.09631L42.912 6.97109C43.0013 6.56882 43.0459 6.36768 42.9992 6.17824C42.9905 6.1429 42.9795 6.10817 42.9663 6.07427C42.8952 5.89255 42.7428 5.7539 42.438 5.4766L42.2371 5.29378C41.635 4.74599 41.3339 4.4721 41.4207 4.21419C41.5074 3.95628 41.9128 3.91997 42.7236 3.84737L42.8131 3.83934C43.3085 3.79498 43.5562 3.7728 43.7449 3.63251C43.9336 3.49222 44.0261 3.26142 44.2113 2.7998L44.2266 2.76176Z" fill="#FFD669" stroke="#FFD669" stroke-width="1.4"/>
</svg>
