<svg width="30" height="30" viewBox="0 0 30 30" fill="none" xmlns="http://www.w3.org/2000/svg">
<path fill-rule="evenodd" clip-rule="evenodd" d="M15.4002 24.805C17.1143 23.9311 23.75 20.1354 23.75 13.75C23.75 8.91751 19.8325 5 15 5C10.1675 5 6.25 8.91751 6.25 13.75C6.25 20.1354 12.8857 23.9311 14.5998 24.805C14.8536 24.9344 15.1464 24.9344 15.4002 24.805ZM15 17.5C17.0711 17.5 18.75 15.8211 18.75 13.75C18.75 11.6789 17.0711 10 15 10C12.9289 10 11.25 11.6789 11.25 13.75C11.25 15.8211 12.9289 17.5 15 17.5Z" fill="#FBFCFD"/>
</svg>
