<svg width="28" height="28" viewBox="0 0 28 28" fill="none" xmlns="http://www.w3.org/2000/svg">
<path fill-rule="evenodd" clip-rule="evenodd" d="M4.37868 6.71266C3.5 7.59134 3.5 9.00556 3.5 11.834V16.1673C3.5 18.9957 3.5 20.41 4.37868 21.2886C5.25736 22.1673 6.67157 22.1673 9.5 22.1673H18.5C21.3284 22.1673 22.7426 22.1673 23.6213 21.2886C24.5 20.41 24.5 18.9957 24.5 16.1673V11.834C24.5 9.00556 24.5 7.59134 23.6213 6.71266C22.7426 5.83398 21.3284 5.83398 18.5 5.83398H9.5C6.67157 5.83398 5.25736 5.83398 4.37868 6.71266ZM7.5547 9.6686C7.09517 9.36225 6.4743 9.48642 6.16795 9.94595C5.8616 10.4055 5.98577 11.0263 6.4453 11.3327L12.8906 15.6296C13.5624 16.0774 14.4376 16.0774 15.1094 15.6296L21.5547 11.3327C22.0142 11.0263 22.1384 10.4055 21.8321 9.94595C21.5257 9.48642 20.9048 9.36225 20.4453 9.6686L14 13.9655L7.5547 9.6686Z" fill="#FBFCFD"/>
</svg>
