<svg width="26" height="27" viewBox="0 0 26 27" fill="none" xmlns="http://www.w3.org/2000/svg">
<path d="M1 7.4C1 5.15979 1 4.03969 1.43597 3.18404C1.81947 2.43139 2.43139 1.81947 3.18404 1.43597C4.03969 1 5.15979 1 7.4 1H18.6C20.8402 1 21.9603 1 22.816 1.43597C23.5686 1.81947 24.1805 2.43139 24.564 3.18404C25 4.03969 25 5.15979 25 7.4V14.6C25 16.8402 25 17.9603 24.564 18.816C24.1805 19.5686 23.5686 20.1805 22.816 20.564C21.9603 21 20.8402 21 18.6 21H9.91167C9.07959 21 8.66356 21 8.26562 21.0817C7.91257 21.1541 7.57093 21.274 7.24998 21.4379C6.88823 21.6228 6.56336 21.8827 5.91362 22.4024L2.73301 24.9469C2.17823 25.3908 1.90084 25.6127 1.66739 25.6129C1.46436 25.6131 1.2723 25.5208 1.14564 25.3622C1 25.1797 1 24.8245 1 24.114V7.4Z" stroke="#6C7072" stroke-width="2" stroke-linecap="round" stroke-linejoin="round"/>
</svg>
