<svg width="31" height="30" viewBox="0 0 31 30" fill="none" xmlns="http://www.w3.org/2000/svg">
<path d="M11.9599 23.125H19.5755M8.91364 2.5H22.6218C23.3326 2.5 23.688 2.5 23.9596 2.63624C24.1984 2.75608 24.3926 2.94731 24.5143 3.18251C24.6526 3.4499 24.6526 3.79993 24.6526 4.5V7.09315C24.6526 7.70462 24.6526 8.01036 24.5825 8.29808C24.5203 8.55317 24.4177 8.79703 24.2785 9.02071C24.1215 9.273 23.902 9.48919 23.463 9.92157L19.7423 13.5858C19.2396 14.0808 18.9883 14.3283 18.8941 14.6137C18.8113 14.8648 18.8113 15.1352 18.8941 15.3863C18.9883 15.6717 19.2396 15.9192 19.7423 16.4142L23.463 20.0784C23.902 20.5108 24.1215 20.727 24.2785 20.9793C24.4177 21.203 24.5203 21.4468 24.5825 21.7019C24.6526 21.9896 24.6526 22.2954 24.6526 22.9069V25.5C24.6526 26.2001 24.6526 26.5501 24.5143 26.8175C24.3926 27.0527 24.1984 27.2439 23.9596 27.3638C23.688 27.5 23.3326 27.5 22.6218 27.5H8.91364C8.20279 27.5 7.84736 27.5 7.57585 27.3638C7.33702 27.2439 7.14284 27.0527 7.02115 26.8175C6.88281 26.5501 6.88281 26.2001 6.88281 25.5V22.9069C6.88281 22.2954 6.88281 21.9896 6.95295 21.7019C7.01514 21.4468 7.11771 21.203 7.25689 20.9793C7.41388 20.727 7.6334 20.5108 8.07245 20.0784L11.7932 16.4142C12.2958 15.9192 12.5471 15.6717 12.6413 15.3863C12.7241 15.1352 12.7241 14.8648 12.6413 14.6137C12.5471 14.3283 12.2958 14.0808 11.7931 13.5858L8.07245 9.92157C7.6334 9.4892 7.41388 9.273 7.25689 9.02071C7.11771 8.79703 7.01514 8.55317 6.95295 8.29808C6.88281 8.01036 6.88281 7.70462 6.88281 7.09315V4.5C6.88281 3.79993 6.88281 3.4499 7.02115 3.18251C7.14284 2.94731 7.33702 2.75608 7.57585 2.63624C7.84736 2.5 8.20279 2.5 8.91364 2.5Z" stroke="#BC8B09" stroke-width="1.5" stroke-linecap="round" stroke-linejoin="round"/>
</svg>
