<svg width="27" height="27" viewBox="0 0 27 27" fill="none" xmlns="http://www.w3.org/2000/svg">
<path d="M8.32391 9.46346C9.25912 11.4113 10.534 13.2369 12.1485 14.8515C13.7631 16.466 15.5887 17.7409 17.5365 18.6761C17.7041 18.7565 17.7879 18.7968 17.8939 18.8277C18.2706 18.9375 18.7331 18.8586 19.0522 18.6301C19.142 18.5659 19.2188 18.4891 19.3724 18.3355C19.8421 17.8657 20.077 17.6308 20.3132 17.4773C21.2039 16.8981 22.3522 16.8981 23.2429 17.4773C23.4791 17.6308 23.714 17.8657 24.1838 18.3355L24.4456 18.5973C25.1597 19.3114 25.5167 19.6684 25.7107 20.0519C26.0964 20.8145 26.0964 21.7152 25.7107 22.4778C25.5167 22.8613 25.1597 23.2183 24.4456 23.9324L24.2338 24.1442C23.5221 24.8559 23.1663 25.2117 22.6825 25.4834C22.1457 25.785 21.312 26.0018 20.6963 26C20.1414 25.9983 19.7622 25.8907 19.0037 25.6754C14.9278 24.5186 11.0817 22.3358 7.87295 19.1271C4.66424 15.9183 2.48144 12.0722 1.32457 7.99626C1.1093 7.23782 1.00166 6.8586 1.00001 6.30373C0.998179 5.68802 1.215 4.85427 1.51655 4.31746C1.78831 3.83368 2.14414 3.47786 2.85579 2.76621L3.0676 2.5544C3.78169 1.8403 4.13874 1.48326 4.5222 1.2893C5.28483 0.903567 6.18546 0.903567 6.94809 1.2893C7.33155 1.48325 7.6886 1.8403 8.40269 2.5544L8.66454 2.81624C9.1343 3.28601 9.36918 3.52089 9.52275 3.75708C10.1019 4.6478 10.1019 5.79609 9.52275 6.68681C9.36918 6.923 9.1343 7.15788 8.66454 7.62765C8.51094 7.78125 8.43414 7.85805 8.36986 7.94782C8.14141 8.26686 8.06254 8.72943 8.17235 9.10614C8.20325 9.21215 8.24347 9.29592 8.32391 9.46346Z" stroke="#6C7072" stroke-width="2" stroke-linecap="round" stroke-linejoin="round"/>
</svg>
