<svg width="32" height="30" viewBox="0 0 32 30" fill="none" xmlns="http://www.w3.org/2000/svg">
<path d="M23.3879 3.75001V3.75001C24.1495 3.75001 24.5303 3.75001 24.8459 3.81877C25.9928 4.06864 26.8886 4.96448 27.1385 6.1114C27.2073 6.427 27.2073 6.8078 27.2073 7.56938L27.2073 10.25C27.2073 10.7214 27.2073 10.9571 27.0608 11.1036C26.9144 11.25 26.6787 11.25 26.2073 11.25L19.5685 11.25M23.3879 3.75001V3.75001C22.6263 3.75001 22.2455 3.75001 21.9299 3.81877C20.783 4.06864 19.8871 4.96448 19.6373 6.1114C19.5685 6.427 19.5685 6.8078 19.5685 7.56939L19.5685 11.25M23.3879 3.75001L8.29101 3.75001C6.4054 3.75001 5.46259 3.75001 4.8768 4.3358C4.29101 4.92158 4.29101 5.86439 4.29101 7.75001L4.29102 26.25L8.11039 25L11.9298 26.25L15.7491 25L19.5685 26.25L19.5685 11.25" stroke="#FF9C82" stroke-width="2"/>
<path d="M9.38281 8.75L14.4753 8.75" stroke="#FF9C82" stroke-width="2" stroke-linecap="round"/>
<path d="M10.6562 13.75H9.38313" stroke="#FF9C82" stroke-width="2" stroke-linecap="round"/>
<path d="M9.38281 18.75L13.2022 18.75" stroke="#FF9C82" stroke-width="2" stroke-linecap="round"/>
</svg>
