<svg width="852" height="179" viewBox="0 0 852 179" fill="none" xmlns="http://www.w3.org/2000/svg">
<circle cx="67" cy="50" r="48.5" fill="#FBFCFD" stroke="#BC8B09" stroke-width="3"/>
<path d="M60.5 46.25L65.5 51.25L76.75 40M88 72.5V39.5C88 35.2996 88 33.1994 87.1825 31.5951C86.4635 30.1839 85.3161 29.0365 83.9049 28.3175C82.3006 27.5 80.2004 27.5 76 27.5H60C55.7996 27.5 53.6994 27.5 52.0951 28.3175C50.6839 29.0365 49.5365 30.1839 48.8175 31.5951C48 33.1994 48 35.2996 48 39.5V72.5L54.875 67.5L61.125 72.5L68 67.5L74.875 72.5L81.125 67.5L88 72.5Z" stroke="#BC8B09" stroke-width="2" stroke-linecap="round" stroke-linejoin="round"/>
<circle cx="557" cy="50" r="48.5" fill="#FBFCFD" stroke="#979C9E" stroke-width="3"/>
<circle cx="313" cy="50" r="48.5" fill="#FBFCFD" stroke="#979C9E" stroke-width="3"/>
<circle cx="802" cy="50" r="48.5" fill="#FBFCFD" stroke="#979C9E" stroke-width="3"/>
<line x1="116" y1="49.5" x2="264" y2="49.5" stroke="#979C9E" stroke-width="3"/>
<line x1="361" y1="49.5" x2="509" y2="49.5" stroke="#979C9E" stroke-width="3"/>
<line x1="606" y1="49.5" x2="754" y2="49.5" stroke="#979C9E" stroke-width="3"/>
<path d="M562 37.5H567.843C568.455 37.5 568.76 37.5 569.048 37.5691C569.303 37.6303 569.547 37.7313 569.771 37.8684C570.023 38.023 570.239 38.2392 570.672 38.6716L580.828 48.8284C581.261 49.2608 581.477 49.477 581.632 49.7293C581.769 49.953 581.87 50.1968 581.931 50.4519C582 50.7396 582 51.0454 582 51.6569V58.75C582 59.9149 582 60.4973 581.81 60.9567C581.556 61.5693 581.069 62.056 580.457 62.3097C579.997 62.5 579.415 62.5 578.25 62.5M565.75 62.5H562M562 62.5V38C562 35.1997 562 33.7996 561.455 32.73C560.976 31.7892 560.211 31.0243 559.27 30.545C558.2 30 556.8 30 554 30H540C537.2 30 535.8 30 534.73 30.545C533.789 31.0243 533.024 31.7892 532.545 32.73C532 33.7996 532 35.1997 532 38V57.5C532 60.2614 534.239 62.5 537 62.5M562 62.5H552M552 62.5C552 66.6421 548.642 70 544.5 70C540.358 70 537 66.6421 537 62.5M552 62.5C552 58.3579 548.642 55 544.5 55C540.358 55 537 58.3579 537 62.5M578.25 63.75C578.25 67.2018 575.452 70 572 70C568.548 70 565.75 67.2018 565.75 63.75C565.75 60.2982 568.548 57.5 572 57.5C575.452 57.5 578.25 60.2982 578.25 63.75Z" stroke="#979C9E" stroke-width="2" stroke-linecap="round" stroke-linejoin="round"/>
<path d="M823.25 38.1943L802 49.9999M802 49.9999L780.75 38.1943M802 49.9999L802 73.75M807 72.2222L803.943 73.9208C803.234 74.3147 802.879 74.5116 802.504 74.5888C802.171 74.6572 801.829 74.6572 801.496 74.5888C801.121 74.5116 800.766 74.3147 800.057 73.9208L781.557 63.643C780.809 63.227 780.434 63.019 780.162 62.7231C779.92 62.4614 779.738 62.1512 779.626 61.8133C779.5 61.4313 779.5 61.003 779.5 60.1464V39.8536C779.5 38.997 779.5 38.5687 779.626 38.1867C779.738 37.8487 779.92 37.5385 780.162 37.2768C780.434 36.981 780.809 36.773 781.557 36.357L800.057 26.0792C800.766 25.6853 801.121 25.4883 801.496 25.4111C801.829 25.3428 802.171 25.3428 802.504 25.4111C802.879 25.4883 803.234 25.6853 803.943 26.0792L822.443 36.357C823.191 36.773 823.566 36.981 823.838 37.2768C824.08 37.5385 824.262 37.8487 824.374 38.1867C824.5 38.5687 824.5 38.997 824.5 39.8536L824.5 51.25M790.75 31.25L813.25 43.75M812 65L817 70L827 60" stroke="#979C9E" stroke-width="2" stroke-linecap="round" stroke-linejoin="round"/>
<path d="M313 58.5001L305.5 51.0001M313 58.5001C316.492 57.172 319.842 55.4969 323 53.5001M313 58.5001V71.0001C313 71.0001 320.575 69.6251 323 66.0001C325.7 61.9501 323 53.5001 323 53.5001M305.5 51.0001C306.83 47.5487 308.506 44.2403 310.5 41.1251C313.413 36.4676 317.469 32.6328 322.283 29.9854C327.096 27.338 332.507 25.9661 338 26.0001C338 32.8001 336.05 44.7501 323 53.5001M305.5 51.0001H293C293 51.0001 294.375 43.4251 298 41.0001C302.05 38.3001 310.5 41.0001 310.5 41.0001M294.25 62.2501C290.5 65.4001 289.25 74.7501 289.25 74.7501C289.25 74.7501 298.6 73.5001 301.75 69.7501C303.525 67.6501 303.5 64.4251 301.525 62.4751C300.553 61.5477 299.273 61.0117 297.931 60.9702C296.588 60.9287 295.277 61.3845 294.25 62.2501Z" stroke="#979C9E" stroke-width="2" stroke-linecap="round" stroke-linejoin="round"/>
<path d="M9.25 122.6C10.306 122.6 11.2447 122.798 12.066 123.194C12.8873 123.59 13.5767 124.147 14.134 124.866C14.706 125.57 15.1313 126.391 15.41 127.33C15.7033 128.254 15.85 129.244 15.85 130.3C15.85 131.723 15.5933 133.021 15.08 134.194C14.5667 135.353 13.8187 136.277 12.836 136.966C11.868 137.655 10.6727 138 9.25 138H3.992C3.61067 138 3.288 137.875 3.024 137.626C2.77467 137.362 2.65 137.039 2.65 136.658V123.942C2.65 123.561 2.77467 123.245 3.024 122.996C3.288 122.732 3.61067 122.6 3.992 122.6H9.25ZM9.03 135.47C9.954 135.47 10.7093 135.235 11.296 134.766C11.8827 134.282 12.308 133.651 12.572 132.874C12.8507 132.082 12.99 131.224 12.99 130.3C12.99 129.611 12.9093 128.958 12.748 128.342C12.6013 127.711 12.3667 127.161 12.044 126.692C11.7213 126.208 11.3107 125.827 10.812 125.548C10.3133 125.269 9.71933 125.13 9.03 125.13H5.18L5.4 124.932V135.712L5.268 135.47H9.03ZM2.254 131.466C1.87267 131.466 1.55 131.356 1.286 131.136C1.03667 130.901 0.912 130.601 0.912 130.234C0.912 129.897 1.03667 129.618 1.286 129.398C1.55 129.163 1.87267 129.046 2.254 129.046H6.082C6.46333 129.046 6.77867 129.163 7.028 129.398C7.292 129.618 7.424 129.897 7.424 130.234C7.424 130.601 7.292 130.901 7.028 131.136C6.77867 131.356 6.46333 131.466 6.082 131.466H2.254ZM27.7926 126.01C28.1739 126.01 28.4892 126.135 28.7386 126.384C28.9879 126.633 29.1126 126.956 29.1126 127.352V136.658C29.1126 137.039 28.9879 137.362 28.7386 137.626C28.4892 137.875 28.1739 138 27.7926 138C27.4112 138 27.0959 137.875 26.8466 137.626C26.5972 137.362 26.4726 137.039 26.4726 136.658V135.58L26.9566 135.778C26.9566 135.969 26.8539 136.203 26.6486 136.482C26.4432 136.746 26.1646 137.01 25.8126 137.274C25.4606 137.538 25.0426 137.765 24.5586 137.956C24.0892 138.132 23.5759 138.22 23.0186 138.22C22.0066 138.22 21.0899 137.963 20.2686 137.45C19.4472 136.922 18.7946 136.203 18.3106 135.294C17.8412 134.37 17.6066 133.314 17.6066 132.126C17.6066 130.923 17.8412 129.867 18.3106 128.958C18.7946 128.034 19.4399 127.315 20.2466 126.802C21.0532 126.274 21.9479 126.01 22.9306 126.01C23.5612 126.01 24.1406 126.105 24.6686 126.296C25.1966 126.487 25.6512 126.729 26.0326 127.022C26.4286 127.315 26.7292 127.616 26.9346 127.924C27.1546 128.217 27.2646 128.467 27.2646 128.672L26.4726 128.958V127.352C26.4726 126.971 26.5972 126.655 26.8466 126.406C27.0959 126.142 27.4112 126.01 27.7926 126.01ZM23.3486 135.8C23.9939 135.8 24.5586 135.639 25.0426 135.316C25.5266 134.993 25.9006 134.553 26.1646 133.996C26.4432 133.439 26.5826 132.815 26.5826 132.126C26.5826 131.422 26.4432 130.791 26.1646 130.234C25.9006 129.677 25.5266 129.237 25.0426 128.914C24.5586 128.591 23.9939 128.43 23.3486 128.43C22.7179 128.43 22.1606 128.591 21.6766 128.914C21.1926 129.237 20.8112 129.677 20.5326 130.234C20.2686 130.791 20.1366 131.422 20.1366 132.126C20.1366 132.815 20.2686 133.439 20.5326 133.996C20.8112 134.553 21.1926 134.993 21.6766 135.316C22.1606 135.639 22.7179 135.8 23.3486 135.8ZM20.5326 125.02C20.2099 125.02 19.9239 124.888 19.6746 124.624C19.4399 124.36 19.3226 123.993 19.3226 123.524C19.3226 123.055 19.5426 122.615 19.9826 122.204C20.4226 121.793 21.1046 121.588 22.0286 121.588C22.4099 121.588 22.7546 121.661 23.0626 121.808C23.3706 121.955 23.6492 122.123 23.8986 122.314C24.1626 122.49 24.4046 122.651 24.6246 122.798C24.8592 122.945 25.0719 123.018 25.2626 123.018C25.4239 123.018 25.5486 122.981 25.6366 122.908C25.7246 122.82 25.7466 122.703 25.7026 122.556C25.5999 122.219 25.6366 121.955 25.8126 121.764C25.9886 121.573 26.2086 121.478 26.4726 121.478C26.8099 121.478 27.0959 121.61 27.3306 121.874C27.5652 122.123 27.6826 122.475 27.6826 122.93C27.6826 123.179 27.6019 123.458 27.4406 123.766C27.2792 124.074 27.0152 124.345 26.6486 124.58C26.2819 124.8 25.7906 124.91 25.1746 124.91C24.8666 124.91 24.5512 124.837 24.2286 124.69C23.9206 124.543 23.6126 124.382 23.3046 124.206C22.9966 124.015 22.7106 123.847 22.4466 123.7C22.1826 123.553 21.9479 123.48 21.7426 123.48C21.5959 123.48 21.4712 123.524 21.3686 123.612C21.2806 123.685 21.2586 123.795 21.3026 123.942C21.4052 124.265 21.3686 124.529 21.1926 124.734C21.0166 124.925 20.7966 125.02 20.5326 125.02ZM38.379 126.23C38.8044 126.23 39.1637 126.413 39.457 126.78L46.805 135.91C46.9957 136.145 47.091 136.409 47.091 136.702C47.091 137.069 46.9517 137.384 46.673 137.648C46.3944 137.912 46.0864 138.044 45.749 138.044C45.3237 138.044 44.9644 137.853 44.671 137.472L37.323 128.342C37.1324 128.107 37.037 127.843 37.037 127.55C37.037 127.169 37.169 126.853 37.433 126.604C37.7117 126.355 38.027 126.23 38.379 126.23ZM38.401 138.022C38.1077 138.022 37.8144 137.912 37.521 137.692C37.2424 137.457 37.103 137.179 37.103 136.856C37.103 136.563 37.213 136.284 37.433 136.02L40.799 131.906L42.119 134.106L39.457 137.472C39.1784 137.839 38.8264 138.022 38.401 138.022ZM45.727 126.23C46.079 126.23 46.3724 126.355 46.607 126.604C46.8564 126.839 46.981 127.11 46.981 127.418C46.981 127.565 46.959 127.711 46.915 127.858C46.871 128.005 46.7904 128.144 46.673 128.276L43.351 132.324L41.965 130.41L44.671 126.824C44.9644 126.428 45.3164 126.23 45.727 126.23ZM58.4937 126.01C58.8751 126.01 59.1904 126.135 59.4397 126.384C59.6891 126.633 59.8137 126.956 59.8137 127.352V136.658C59.8137 137.039 59.6891 137.362 59.4397 137.626C59.1904 137.875 58.8751 138 58.4937 138C58.1124 138 57.7971 137.875 57.5477 137.626C57.2984 137.362 57.1737 137.039 57.1737 136.658V135.58L57.6577 135.778C57.6577 135.969 57.5551 136.203 57.3497 136.482C57.1444 136.746 56.8657 137.01 56.5137 137.274C56.1617 137.538 55.7437 137.765 55.2597 137.956C54.7904 138.132 54.2771 138.22 53.7197 138.22C52.7077 138.22 51.7911 137.963 50.9697 137.45C50.1484 136.922 49.4957 136.203 49.0117 135.294C48.5424 134.37 48.3077 133.314 48.3077 132.126C48.3077 130.923 48.5424 129.867 49.0117 128.958C49.4957 128.034 50.1411 127.315 50.9477 126.802C51.7544 126.274 52.6491 126.01 53.6317 126.01C54.2624 126.01 54.8417 126.105 55.3697 126.296C55.8977 126.487 56.3524 126.729 56.7337 127.022C57.1297 127.315 57.4304 127.616 57.6357 127.924C57.8557 128.217 57.9657 128.467 57.9657 128.672L57.1737 128.958V127.352C57.1737 126.971 57.2984 126.655 57.5477 126.406C57.7971 126.142 58.1124 126.01 58.4937 126.01ZM54.0497 135.8C54.6951 135.8 55.2597 135.639 55.7437 135.316C56.2277 134.993 56.6017 134.553 56.8657 133.996C57.1444 133.439 57.2837 132.815 57.2837 132.126C57.2837 131.422 57.1444 130.791 56.8657 130.234C56.6017 129.677 56.2277 129.237 55.7437 128.914C55.2597 128.591 54.6951 128.43 54.0497 128.43C53.4191 128.43 52.8617 128.591 52.3777 128.914C51.8937 129.237 51.5124 129.677 51.2337 130.234C50.9697 130.791 50.8377 131.422 50.8377 132.126C50.8377 132.815 50.9697 133.439 51.2337 133.996C51.5124 134.553 51.8937 134.993 52.3777 135.316C52.8617 135.639 53.4191 135.8 54.0497 135.8ZM54.2917 125.482C54.1744 125.482 54.0204 125.423 53.8297 125.306C53.6537 125.174 53.5731 124.991 53.5877 124.756C53.5877 124.624 53.6317 124.485 53.7197 124.338L54.9957 122.094C55.1277 121.859 55.2964 121.654 55.5017 121.478C55.7071 121.302 55.9417 121.214 56.2057 121.214C56.6164 121.214 56.9171 121.324 57.1077 121.544C57.2984 121.749 57.3864 122.006 57.3717 122.314C57.3571 122.461 57.3131 122.615 57.2397 122.776C57.1811 122.937 57.0857 123.099 56.9537 123.26L55.2817 125.108C55.1351 125.269 54.9737 125.372 54.7977 125.416C54.6217 125.46 54.4531 125.482 54.2917 125.482ZM67.9082 126.01C68.7442 126.01 69.4702 126.098 70.0862 126.274C70.7169 126.45 71.2009 126.699 71.5382 127.022C71.8902 127.33 72.0662 127.704 72.0662 128.144C72.0662 128.437 71.9782 128.716 71.8022 128.98C71.6262 129.229 71.3695 129.354 71.0322 129.354C70.7975 129.354 70.5995 129.325 70.4382 129.266C70.2915 129.193 70.1595 129.105 70.0422 129.002C69.9249 128.899 69.7855 128.804 69.6242 128.716C69.4775 128.628 69.2502 128.562 68.9422 128.518C68.6489 128.459 68.4289 128.43 68.2822 128.43C67.5342 128.43 66.8962 128.591 66.3682 128.914C65.8549 129.237 65.4589 129.677 65.1802 130.234C64.9015 130.777 64.7622 131.407 64.7622 132.126C64.7622 132.83 64.9015 133.461 65.1802 134.018C65.4735 134.561 65.8695 134.993 66.3682 135.316C66.8815 135.639 67.4682 135.8 68.1282 135.8C68.4949 135.8 68.8102 135.778 69.0742 135.734C69.3382 135.69 69.5582 135.624 69.7342 135.536C69.9395 135.419 70.1229 135.294 70.2842 135.162C70.4455 135.03 70.6875 134.964 71.0102 134.964C71.3915 134.964 71.6849 135.089 71.8902 135.338C72.0955 135.573 72.1982 135.866 72.1982 136.218C72.1982 136.585 71.9929 136.922 71.5822 137.23C71.1715 137.523 70.6289 137.765 69.9542 137.956C69.2942 138.132 68.5755 138.22 67.7982 138.22C66.6395 138.22 65.6349 137.956 64.7842 137.428C63.9335 136.885 63.2735 136.152 62.8042 135.228C62.3495 134.304 62.1222 133.27 62.1222 132.126C62.1222 130.923 62.3642 129.867 62.8482 128.958C63.3469 128.034 64.0289 127.315 64.8942 126.802C65.7742 126.274 66.7789 126.01 67.9082 126.01ZM86.5599 126.01C87.6452 126.01 88.4666 126.237 89.0239 126.692C89.5959 127.147 89.9846 127.755 90.1899 128.518C90.4099 129.266 90.5199 130.102 90.5199 131.026V136.658C90.5199 137.039 90.3952 137.362 90.1459 137.626C89.8966 137.875 89.5812 138 89.1999 138C88.8186 138 88.5032 137.875 88.2539 137.626C88.0046 137.362 87.8799 137.039 87.8799 136.658V131.026C87.8799 130.542 87.8139 130.109 87.6819 129.728C87.5646 129.332 87.3446 129.017 87.0219 128.782C86.6992 128.547 86.2372 128.43 85.6359 128.43C85.0492 128.43 84.5506 128.547 84.1399 128.782C83.7439 129.017 83.4359 129.332 83.2159 129.728C83.0106 130.109 82.9079 130.542 82.9079 131.026V136.658C82.9079 137.039 82.7832 137.362 82.5339 137.626C82.2846 137.875 81.9692 138 81.5879 138C81.2066 138 80.8912 137.875 80.6419 137.626C80.3926 137.362 80.2679 137.039 80.2679 136.658V127.572C80.2679 127.191 80.3926 126.875 80.6419 126.626C80.8912 126.362 81.2066 126.23 81.5879 126.23C81.9692 126.23 82.2846 126.362 82.5339 126.626C82.7832 126.875 82.9079 127.191 82.9079 127.572V128.518L82.5779 128.452C82.7099 128.203 82.9006 127.939 83.1499 127.66C83.3992 127.367 83.6926 127.095 84.0299 126.846C84.3672 126.597 84.7486 126.399 85.1739 126.252C85.5992 126.091 86.0612 126.01 86.5599 126.01ZM99.5554 126.01C100.611 126.01 101.411 126.237 101.953 126.692C102.511 127.147 102.892 127.755 103.097 128.518C103.303 129.266 103.405 130.102 103.405 131.026V136.658C103.405 137.039 103.281 137.362 103.031 137.626C102.782 137.875 102.467 138 102.085 138C101.704 138 101.389 137.875 101.139 137.626C100.89 137.362 100.765 137.039 100.765 136.658V131.026C100.765 130.542 100.707 130.109 100.589 129.728C100.472 129.332 100.259 129.017 99.9514 128.782C99.6434 128.547 99.2034 128.43 98.6314 128.43C98.074 128.43 97.5974 128.547 97.2014 128.782C96.8054 129.017 96.5047 129.332 96.2994 129.728C96.1087 130.109 96.0134 130.542 96.0134 131.026V136.658C96.0134 137.039 95.8887 137.362 95.6394 137.626C95.39 137.875 95.0747 138 94.6934 138C94.312 138 93.9967 137.875 93.7474 137.626C93.498 137.362 93.3734 137.039 93.3734 136.658V123.062C93.3734 122.681 93.498 122.365 93.7474 122.116C93.9967 121.852 94.312 121.72 94.6934 121.72C95.0747 121.72 95.39 121.852 95.6394 122.116C95.8887 122.365 96.0134 122.681 96.0134 123.062V128.518L95.6834 128.452C95.8154 128.203 95.9987 127.939 96.2334 127.66C96.468 127.367 96.754 127.095 97.0914 126.846C97.4287 126.597 97.8027 126.399 98.2134 126.252C98.624 126.091 99.0714 126.01 99.5554 126.01ZM115.9 126.01C116.281 126.01 116.597 126.135 116.846 126.384C117.095 126.633 117.22 126.956 117.22 127.352V136.658C117.22 137.039 117.095 137.362 116.846 137.626C116.597 137.875 116.281 138 115.9 138C115.519 138 115.203 137.875 114.954 137.626C114.705 137.362 114.58 137.039 114.58 136.658V135.58L115.064 135.778C115.064 135.969 114.961 136.203 114.756 136.482C114.551 136.746 114.272 137.01 113.92 137.274C113.568 137.538 113.15 137.765 112.666 137.956C112.197 138.132 111.683 138.22 111.126 138.22C110.114 138.22 109.197 137.963 108.376 137.45C107.555 136.922 106.902 136.203 106.418 135.294C105.949 134.37 105.714 133.314 105.714 132.126C105.714 130.923 105.949 129.867 106.418 128.958C106.902 128.034 107.547 127.315 108.354 126.802C109.161 126.274 110.055 126.01 111.038 126.01C111.669 126.01 112.248 126.105 112.776 126.296C113.304 126.487 113.759 126.729 114.14 127.022C114.536 127.315 114.837 127.616 115.042 127.924C115.262 128.217 115.372 128.467 115.372 128.672L114.58 128.958V127.352C114.58 126.971 114.705 126.655 114.954 126.406C115.203 126.142 115.519 126.01 115.9 126.01ZM111.456 135.8C112.101 135.8 112.666 135.639 113.15 135.316C113.634 134.993 114.008 134.553 114.272 133.996C114.551 133.439 114.69 132.815 114.69 132.126C114.69 131.422 114.551 130.791 114.272 130.234C114.008 129.677 113.634 129.237 113.15 128.914C112.666 128.591 112.101 128.43 111.456 128.43C110.825 128.43 110.268 128.591 109.784 128.914C109.3 129.237 108.919 129.677 108.64 130.234C108.376 130.791 108.244 131.422 108.244 132.126C108.244 132.815 108.376 133.439 108.64 133.996C108.919 134.553 109.3 134.993 109.784 135.316C110.268 135.639 110.825 135.8 111.456 135.8ZM111.764 141.52C111.28 141.52 110.935 141.439 110.73 141.278C110.525 141.117 110.422 140.831 110.422 140.42V140.002C110.422 139.577 110.532 139.283 110.752 139.122C110.987 138.975 111.324 138.902 111.764 138.902C112.307 138.902 112.681 138.975 112.886 139.122C113.091 139.283 113.194 139.577 113.194 140.002V140.42C113.194 140.845 113.084 141.131 112.864 141.278C112.644 141.439 112.277 141.52 111.764 141.52ZM112.072 122.886L110.378 124.294C110.187 124.455 110.026 124.587 109.894 124.69C109.777 124.778 109.579 124.822 109.3 124.822C109.109 124.822 108.948 124.771 108.816 124.668C108.699 124.551 108.64 124.419 108.64 124.272C108.64 124.155 108.655 124.052 108.684 123.964C108.713 123.861 108.787 123.737 108.904 123.59L109.982 122.226C110.319 121.801 110.767 121.588 111.324 121.588H112.116C112.409 121.588 112.637 121.632 112.798 121.72C112.974 121.808 113.143 121.977 113.304 122.226L114.272 123.59C114.389 123.737 114.463 123.861 114.492 123.964C114.521 124.052 114.536 124.155 114.536 124.272C114.536 124.419 114.477 124.551 114.36 124.668C114.243 124.771 114.081 124.822 113.876 124.822C113.597 124.822 113.399 124.778 113.282 124.69C113.165 124.587 113.003 124.455 112.798 124.294L110.95 122.666L112.072 122.886ZM126.37 126.01C127.456 126.01 128.277 126.237 128.834 126.692C129.406 127.147 129.795 127.755 130 128.518C130.22 129.266 130.33 130.102 130.33 131.026V136.658C130.33 137.039 130.206 137.362 129.956 137.626C129.707 137.875 129.392 138 129.01 138C128.629 138 128.314 137.875 128.064 137.626C127.815 137.362 127.69 137.039 127.69 136.658V131.026C127.69 130.542 127.624 130.109 127.492 129.728C127.375 129.332 127.155 129.017 126.832 128.782C126.51 128.547 126.048 128.43 125.446 128.43C124.86 128.43 124.361 128.547 123.95 128.782C123.554 129.017 123.246 129.332 123.026 129.728C122.821 130.109 122.718 130.542 122.718 131.026V136.658C122.718 137.039 122.594 137.362 122.344 137.626C122.095 137.875 121.78 138 121.398 138C121.017 138 120.702 137.875 120.452 137.626C120.203 137.362 120.078 137.039 120.078 136.658V127.572C120.078 127.191 120.203 126.875 120.452 126.626C120.702 126.362 121.017 126.23 121.398 126.23C121.78 126.23 122.095 126.362 122.344 126.626C122.594 126.875 122.718 127.191 122.718 127.572V128.518L122.388 128.452C122.52 128.203 122.711 127.939 122.96 127.66C123.21 127.367 123.503 127.095 123.84 126.846C124.178 126.597 124.559 126.399 124.984 126.252C125.41 126.091 125.872 126.01 126.37 126.01Z" fill="#BC8B09"/>
<path d="M31.5405 157.314C32.3325 157.314 33.0438 157.483 33.6745 157.82C34.3198 158.143 34.8625 158.59 35.3025 159.162C35.7571 159.734 36.1018 160.379 36.3365 161.098C36.5858 161.802 36.7105 162.543 36.7105 163.32C36.7105 163.819 36.6518 164.427 36.5345 165.146C36.4318 165.865 36.2411 166.627 35.9625 167.434C35.6838 168.226 35.2951 169.003 34.7965 169.766C34.2978 170.514 33.6598 171.189 32.8825 171.79C32.1198 172.391 31.1811 172.846 30.0665 173.154C29.8905 173.198 29.7218 173.22 29.5605 173.22C29.2231 173.22 28.9151 173.132 28.6365 172.956C28.3725 172.765 28.2405 172.443 28.2405 171.988C28.2405 171.651 28.3431 171.365 28.5485 171.13C28.7685 170.895 29.0545 170.727 29.4065 170.624C30.0811 170.419 30.7338 170.081 31.3645 169.612C32.0098 169.128 32.5671 168.549 33.0365 167.874C33.5058 167.185 33.8211 166.437 33.9825 165.63L34.5765 165.652C34.3858 165.887 34.1365 166.151 33.8285 166.444C33.5351 166.737 33.1685 166.994 32.7285 167.214C32.3031 167.419 31.7898 167.522 31.1885 167.522C30.2205 167.522 29.3771 167.317 28.6585 166.906C27.9545 166.481 27.4045 165.887 27.0085 165.124C26.6125 164.347 26.4145 163.445 26.4145 162.418C26.4145 161.494 26.6418 160.643 27.0965 159.866C27.5658 159.089 28.1891 158.473 28.9665 158.018C29.7438 157.549 30.6018 157.314 31.5405 157.314ZM31.5405 159.734C31.0711 159.734 30.6458 159.859 30.2645 160.108C29.8978 160.343 29.6045 160.665 29.3845 161.076C29.1645 161.472 29.0545 161.919 29.0545 162.418C29.0545 162.961 29.1571 163.437 29.3625 163.848C29.5678 164.244 29.8538 164.552 30.2205 164.772C30.6018 164.992 31.0418 165.102 31.5405 165.102C32.0098 165.102 32.4278 164.985 32.7945 164.75C33.1758 164.515 33.4765 164.193 33.6965 163.782C33.9165 163.371 34.0265 162.917 34.0265 162.418C34.0265 161.905 33.9165 161.45 33.6965 161.054C33.4765 160.643 33.1758 160.321 32.7945 160.086C32.4278 159.851 32.0098 159.734 31.5405 159.734ZM40.6784 164.398C40.253 164.398 39.923 164.288 39.6884 164.068C39.4684 163.833 39.3584 163.503 39.3584 163.078V162.704C39.3584 162.279 39.4684 161.956 39.6884 161.736C39.923 161.501 40.253 161.384 40.6784 161.384H40.9644C41.3897 161.384 41.7124 161.501 41.9324 161.736C42.167 161.956 42.2844 162.279 42.2844 162.704V163.078C42.2844 163.503 42.167 163.833 41.9324 164.068C41.7124 164.288 41.3897 164.398 40.9644 164.398H40.6784ZM40.6784 173C40.253 173 39.923 172.89 39.6884 172.67C39.4684 172.435 39.3584 172.105 39.3584 171.68V171.306C39.3584 170.881 39.4684 170.558 39.6884 170.338C39.923 170.103 40.253 169.986 40.6784 169.986H40.9644C41.3897 169.986 41.7124 170.103 41.9324 170.338C42.167 170.558 42.2844 170.881 42.2844 171.306V171.68C42.2844 172.105 42.167 172.435 41.9324 172.67C41.7124 172.89 41.3897 173 40.9644 173H40.6784ZM52.392 173C52.0253 173 51.7173 172.875 51.468 172.626C51.2187 172.362 51.094 172.039 51.094 171.658V161.318L51.556 161.428L47.31 166.686L47.2 166.4H54.988C55.34 166.4 55.6333 166.517 55.868 166.752C56.1027 166.987 56.22 167.28 56.22 167.632C56.22 167.969 56.1027 168.255 55.868 168.49C55.6333 168.71 55.34 168.82 54.988 168.82H45.374C45.066 168.82 44.7653 168.695 44.472 168.446C44.1933 168.197 44.054 167.889 44.054 167.522C44.054 167.199 44.164 166.906 44.384 166.642L51.336 158.128C51.4533 157.967 51.6073 157.842 51.798 157.754C51.9887 157.651 52.2013 157.6 52.436 157.6C52.8173 157.6 53.1253 157.732 53.36 157.996C53.6093 158.245 53.734 158.561 53.734 158.942V171.658C53.734 172.039 53.602 172.362 53.338 172.626C53.0887 172.875 52.7733 173 52.392 173ZM62.0696 173.22C61.5269 173.22 60.9476 173.139 60.3316 172.978C59.7156 172.802 59.2096 172.553 58.8136 172.23C58.6229 172.069 58.4689 171.863 58.3516 171.614C58.2489 171.35 58.1976 171.101 58.1976 170.866C58.1976 170.617 58.3002 170.382 58.5056 170.162C58.7256 169.942 59.0336 169.832 59.4296 169.832C59.6936 169.832 60.0236 169.971 60.4196 170.25C60.6542 170.397 60.9109 170.529 61.1896 170.646C61.4682 170.763 61.7542 170.822 62.0476 170.822C62.7516 170.822 63.3602 170.697 63.8736 170.448C64.3869 170.184 64.7829 169.825 65.0616 169.37C65.3402 168.915 65.4796 168.38 65.4796 167.764C65.4796 167.207 65.3476 166.73 65.0836 166.334C64.8342 165.938 64.4969 165.63 64.0716 165.41C63.6609 165.19 63.2136 165.08 62.7296 165.08C62.2749 165.08 61.8789 165.153 61.5416 165.3C61.2042 165.447 60.8962 165.601 60.6176 165.762C60.3389 165.909 60.0602 165.982 59.7816 165.982C59.2976 165.982 58.9382 165.879 58.7036 165.674C58.4689 165.454 58.3222 165.197 58.2636 164.904C58.2049 164.611 58.1902 164.347 58.2196 164.112L58.9016 158.766C58.9602 158.458 59.1069 158.209 59.3416 158.018C59.5909 157.813 59.8842 157.71 60.2216 157.71H66.5796C66.9316 157.71 67.2249 157.827 67.4596 158.062C67.6942 158.297 67.8116 158.59 67.8116 158.942C67.8116 159.279 67.6942 159.565 67.4596 159.8C67.2249 160.02 66.9316 160.13 66.5796 160.13H60.9036L61.1456 159.932L60.5516 164.398L60.2656 163.562C60.3536 163.415 60.5442 163.276 60.8376 163.144C61.1309 163.012 61.4682 162.902 61.8496 162.814C62.2309 162.711 62.6049 162.66 62.9716 162.66C63.9542 162.66 64.8342 162.887 65.6116 163.342C66.3889 163.782 66.9976 164.391 67.4376 165.168C67.8922 165.931 68.1196 166.796 68.1196 167.764C68.1196 168.864 67.8702 169.825 67.3716 170.646C66.8729 171.467 66.1689 172.105 65.2596 172.56C64.3649 173 63.3016 173.22 62.0696 173.22ZM82.9134 161.054L78.1614 172.23C78.0587 172.509 77.8974 172.729 77.6774 172.89C77.472 173.037 77.2447 173.11 76.9954 173.11C76.5994 173.11 76.306 173 76.1154 172.78C75.9247 172.56 75.8294 172.289 75.8294 171.966C75.8294 171.834 75.8514 171.695 75.8954 171.548L81.3734 158.392C81.4907 158.099 81.6667 157.871 81.9014 157.71C82.1507 157.549 82.4147 157.483 82.6934 157.512C82.9574 157.512 83.1994 157.593 83.4194 157.754C83.654 157.901 83.8227 158.113 83.9254 158.392L89.3374 171.284C89.4107 171.475 89.4474 171.651 89.4474 171.812C89.4474 172.208 89.3154 172.523 89.0514 172.758C88.802 172.993 88.5234 173.11 88.2154 173.11C87.9514 173.11 87.7094 173.029 87.4894 172.868C87.284 172.707 87.1227 172.487 87.0054 172.208L82.2754 161.186L82.9134 161.054ZM78.8434 169.546L80.0534 167.016H85.9934L86.4114 169.546H78.8434ZM92.6962 157.578C92.9015 157.578 93.1142 157.637 93.3342 157.754C93.5688 157.857 93.7448 157.996 93.8622 158.172L99.2082 166.4L98.1082 166.356L103.586 158.172C103.865 157.776 104.224 157.578 104.664 157.578C105.016 157.578 105.331 157.703 105.61 157.952C105.889 158.201 106.028 158.524 106.028 158.92V171.658C106.028 172.039 105.903 172.362 105.654 172.626C105.405 172.875 105.075 173 104.664 173C104.253 173 103.916 172.875 103.652 172.626C103.403 172.362 103.278 172.039 103.278 171.658V161.296L104.136 161.494L99.6482 168.336C99.5162 168.497 99.3475 168.637 99.1422 168.754C98.9515 168.871 98.7535 168.923 98.5482 168.908C98.3575 168.923 98.1595 168.871 97.9542 168.754C97.7635 168.637 97.6022 168.497 97.4702 168.336L93.2682 161.692L93.8402 160.526V171.658C93.8402 172.039 93.7228 172.362 93.4882 172.626C93.2535 172.875 92.9455 173 92.5642 173C92.1975 173 91.8968 172.875 91.6622 172.626C91.4275 172.362 91.3102 172.039 91.3102 171.658V158.92C91.3102 158.553 91.4422 158.238 91.7062 157.974C91.9848 157.71 92.3148 157.578 92.6962 157.578Z" fill="#BC8B09"/>
<path d="M244.25 121.6C245.306 121.6 246.245 121.798 247.066 122.194C247.887 122.59 248.577 123.147 249.134 123.866C249.706 124.57 250.131 125.391 250.41 126.33C250.703 127.254 250.85 128.244 250.85 129.3C250.85 130.723 250.593 132.021 250.08 133.194C249.567 134.353 248.819 135.277 247.836 135.966C246.868 136.655 245.673 137 244.25 137H238.992C238.611 137 238.288 136.875 238.024 136.626C237.775 136.362 237.65 136.039 237.65 135.658V122.942C237.65 122.561 237.775 122.245 238.024 121.996C238.288 121.732 238.611 121.6 238.992 121.6H244.25ZM244.03 134.47C244.954 134.47 245.709 134.235 246.296 133.766C246.883 133.282 247.308 132.651 247.572 131.874C247.851 131.082 247.99 130.224 247.99 129.3C247.99 128.611 247.909 127.958 247.748 127.342C247.601 126.711 247.367 126.161 247.044 125.692C246.721 125.208 246.311 124.827 245.812 124.548C245.313 124.269 244.719 124.13 244.03 124.13H240.18L240.4 123.932V134.712L240.268 134.47H244.03ZM237.254 130.466C236.873 130.466 236.55 130.356 236.286 130.136C236.037 129.901 235.912 129.601 235.912 129.234C235.912 128.897 236.037 128.618 236.286 128.398C236.55 128.163 236.873 128.046 237.254 128.046H241.082C241.463 128.046 241.779 128.163 242.028 128.398C242.292 128.618 242.424 128.897 242.424 129.234C242.424 129.601 242.292 129.901 242.028 130.136C241.779 130.356 241.463 130.466 241.082 130.466H237.254ZM262.793 125.01C263.174 125.01 263.489 125.135 263.739 125.384C263.988 125.633 264.113 125.956 264.113 126.352V135.658C264.113 136.039 263.988 136.362 263.739 136.626C263.489 136.875 263.174 137 262.793 137C262.411 137 262.096 136.875 261.847 136.626C261.597 136.362 261.473 136.039 261.473 135.658V134.58L261.957 134.778C261.957 134.969 261.854 135.203 261.649 135.482C261.443 135.746 261.165 136.01 260.813 136.274C260.461 136.538 260.043 136.765 259.559 136.956C259.089 137.132 258.576 137.22 258.019 137.22C257.007 137.22 256.09 136.963 255.269 136.45C254.447 135.922 253.795 135.203 253.311 134.294C252.841 133.37 252.607 132.314 252.607 131.126C252.607 129.923 252.841 128.867 253.311 127.958C253.795 127.034 254.44 126.315 255.247 125.802C256.053 125.274 256.948 125.01 257.931 125.01C258.561 125.01 259.141 125.105 259.669 125.296C260.197 125.487 260.651 125.729 261.033 126.022C261.429 126.315 261.729 126.616 261.935 126.924C262.155 127.217 262.265 127.467 262.265 127.672L261.473 127.958V126.352C261.473 125.971 261.597 125.655 261.847 125.406C262.096 125.142 262.411 125.01 262.793 125.01ZM258.349 134.8C258.994 134.8 259.559 134.639 260.043 134.316C260.527 133.993 260.901 133.553 261.165 132.996C261.443 132.439 261.583 131.815 261.583 131.126C261.583 130.422 261.443 129.791 261.165 129.234C260.901 128.677 260.527 128.237 260.043 127.914C259.559 127.591 258.994 127.43 258.349 127.43C257.718 127.43 257.161 127.591 256.677 127.914C256.193 128.237 255.811 128.677 255.533 129.234C255.269 129.791 255.137 130.422 255.137 131.126C255.137 131.815 255.269 132.439 255.533 132.996C255.811 133.553 256.193 133.993 256.677 134.316C257.161 134.639 257.718 134.8 258.349 134.8ZM273.263 125.01C274.348 125.01 275.17 125.237 275.727 125.692C276.299 126.147 276.688 126.755 276.893 127.518C277.113 128.266 277.223 129.102 277.223 130.026V135.658C277.223 136.039 277.098 136.362 276.849 136.626C276.6 136.875 276.284 137 275.903 137C275.522 137 275.206 136.875 274.957 136.626C274.708 136.362 274.583 136.039 274.583 135.658V130.026C274.583 129.542 274.517 129.109 274.385 128.728C274.268 128.332 274.048 128.017 273.725 127.782C273.402 127.547 272.94 127.43 272.339 127.43C271.752 127.43 271.254 127.547 270.843 127.782C270.447 128.017 270.139 128.332 269.919 128.728C269.714 129.109 269.611 129.542 269.611 130.026V135.658C269.611 136.039 269.486 136.362 269.237 136.626C268.988 136.875 268.672 137 268.291 137C267.91 137 267.594 136.875 267.345 136.626C267.096 136.362 266.971 136.039 266.971 135.658V126.572C266.971 126.191 267.096 125.875 267.345 125.626C267.594 125.362 267.91 125.23 268.291 125.23C268.672 125.23 268.988 125.362 269.237 125.626C269.486 125.875 269.611 126.191 269.611 126.572V127.518L269.281 127.452C269.413 127.203 269.604 126.939 269.853 126.66C270.102 126.367 270.396 126.095 270.733 125.846C271.07 125.597 271.452 125.399 271.877 125.252C272.302 125.091 272.764 125.01 273.263 125.01ZM284.96 125.01C285.576 125.01 286.141 125.105 286.654 125.296C287.168 125.487 287.608 125.729 287.974 126.022C288.356 126.315 288.649 126.616 288.854 126.924C289.074 127.217 289.184 127.467 289.184 127.672L288.612 127.958V126.352C288.612 125.971 288.737 125.655 288.986 125.406C289.236 125.142 289.551 125.01 289.932 125.01C290.314 125.01 290.629 125.135 290.878 125.384C291.128 125.633 291.252 125.956 291.252 126.352V136.142C291.252 137.418 290.974 138.437 290.416 139.2C289.874 139.977 289.155 140.535 288.26 140.872C287.366 141.224 286.405 141.4 285.378 141.4C285.085 141.4 284.704 141.363 284.234 141.29C283.765 141.217 283.318 141.129 282.892 141.026C282.467 140.923 282.144 140.828 281.924 140.74C281.484 140.549 281.176 140.307 281 140.014C280.839 139.735 280.81 139.435 280.912 139.112C281.044 138.687 281.257 138.393 281.55 138.232C281.844 138.085 282.152 138.071 282.474 138.188C282.621 138.232 282.863 138.32 283.2 138.452C283.538 138.584 283.904 138.701 284.3 138.804C284.711 138.921 285.07 138.98 285.378 138.98C286.478 138.98 287.292 138.76 287.82 138.32C288.348 137.88 288.612 137.271 288.612 136.494V134.58L288.876 134.778C288.876 134.969 288.774 135.203 288.568 135.482C288.378 135.746 288.106 136.01 287.754 136.274C287.417 136.538 287.014 136.765 286.544 136.956C286.075 137.132 285.576 137.22 285.048 137.22C284.007 137.22 283.068 136.963 282.232 136.45C281.396 135.922 280.736 135.203 280.252 134.294C279.768 133.37 279.526 132.314 279.526 131.126C279.526 129.923 279.768 128.867 280.252 127.958C280.736 127.034 281.389 126.315 282.21 125.802C283.032 125.274 283.948 125.01 284.96 125.01ZM285.378 127.43C284.718 127.43 284.139 127.591 283.64 127.914C283.142 128.237 282.753 128.677 282.474 129.234C282.196 129.791 282.056 130.422 282.056 131.126C282.056 131.815 282.196 132.439 282.474 132.996C282.753 133.553 283.142 133.993 283.64 134.316C284.139 134.639 284.718 134.8 285.378 134.8C286.053 134.8 286.64 134.639 287.138 134.316C287.637 133.993 288.026 133.553 288.304 132.996C288.583 132.439 288.722 131.815 288.722 131.126C288.722 130.422 288.583 129.791 288.304 129.234C288.026 128.677 287.637 128.237 287.138 127.914C286.64 127.591 286.053 127.43 285.378 127.43ZM305.508 125.01C306.344 125.01 307.07 125.098 307.686 125.274C308.316 125.45 308.8 125.699 309.138 126.022C309.49 126.33 309.666 126.704 309.666 127.144C309.666 127.437 309.578 127.716 309.402 127.98C309.226 128.229 308.969 128.354 308.632 128.354C308.397 128.354 308.199 128.325 308.038 128.266C307.891 128.193 307.759 128.105 307.642 128.002C307.524 127.899 307.385 127.804 307.224 127.716C307.077 127.628 306.85 127.562 306.542 127.518C306.248 127.459 306.028 127.43 305.882 127.43C305.134 127.43 304.496 127.591 303.968 127.914C303.454 128.237 303.058 128.677 302.78 129.234C302.501 129.777 302.362 130.407 302.362 131.126C302.362 131.83 302.501 132.461 302.78 133.018C303.073 133.561 303.469 133.993 303.968 134.316C304.481 134.639 305.068 134.8 305.728 134.8C306.094 134.8 306.41 134.778 306.674 134.734C306.938 134.69 307.158 134.624 307.334 134.536C307.539 134.419 307.722 134.294 307.884 134.162C308.045 134.03 308.287 133.964 308.61 133.964C308.991 133.964 309.284 134.089 309.49 134.338C309.695 134.573 309.798 134.866 309.798 135.218C309.798 135.585 309.592 135.922 309.182 136.23C308.771 136.523 308.228 136.765 307.554 136.956C306.894 137.132 306.175 137.22 305.398 137.22C304.239 137.22 303.234 136.956 302.384 136.428C301.533 135.885 300.873 135.152 300.404 134.228C299.949 133.304 299.722 132.27 299.722 131.126C299.722 129.923 299.964 128.867 300.448 127.958C300.946 127.034 301.628 126.315 302.494 125.802C303.374 125.274 304.378 125.01 305.508 125.01ZM317.883 125.01C318.939 125.01 319.739 125.237 320.281 125.692C320.839 126.147 321.22 126.755 321.425 127.518C321.631 128.266 321.733 129.102 321.733 130.026V135.658C321.733 136.039 321.609 136.362 321.359 136.626C321.11 136.875 320.795 137 320.413 137C320.032 137 319.717 136.875 319.467 136.626C319.218 136.362 319.093 136.039 319.093 135.658V130.026C319.093 129.542 319.035 129.109 318.917 128.728C318.8 128.332 318.587 128.017 318.279 127.782C317.971 127.547 317.531 127.43 316.959 127.43C316.402 127.43 315.925 127.547 315.529 127.782C315.133 128.017 314.833 128.332 314.627 128.728C314.437 129.109 314.341 129.542 314.341 130.026V135.658C314.341 136.039 314.217 136.362 313.967 136.626C313.718 136.875 313.403 137 313.021 137C312.64 137 312.325 136.875 312.075 136.626C311.826 136.362 311.701 136.039 311.701 135.658V122.062C311.701 121.681 311.826 121.365 312.075 121.116C312.325 120.852 312.64 120.72 313.021 120.72C313.403 120.72 313.718 120.852 313.967 121.116C314.217 121.365 314.341 121.681 314.341 122.062V127.518L314.011 127.452C314.143 127.203 314.327 126.939 314.561 126.66C314.796 126.367 315.082 126.095 315.419 125.846C315.757 125.597 316.131 125.399 316.541 125.252C316.952 125.091 317.399 125.01 317.883 125.01ZM333.326 125.23C333.707 125.23 334.023 125.362 334.272 125.626C334.521 125.875 334.646 126.191 334.646 126.572V132.16C334.646 133.715 334.213 134.947 333.348 135.856C332.483 136.765 331.236 137.22 329.608 137.22C327.98 137.22 326.733 136.765 325.868 135.856C325.017 134.947 324.592 133.715 324.592 132.16V126.572C324.592 126.191 324.717 125.875 324.966 125.626C325.215 125.362 325.531 125.23 325.912 125.23C326.293 125.23 326.609 125.362 326.858 125.626C327.107 125.875 327.232 126.191 327.232 126.572V132.16C327.232 133.055 327.43 133.722 327.826 134.162C328.222 134.587 328.816 134.8 329.608 134.8C330.415 134.8 331.016 134.587 331.412 134.162C331.808 133.722 332.006 133.055 332.006 132.16V126.572C332.006 126.191 332.131 125.875 332.38 125.626C332.629 125.362 332.945 125.23 333.326 125.23ZM347.14 125.01C347.522 125.01 347.837 125.135 348.086 125.384C348.336 125.633 348.46 125.956 348.46 126.352V135.658C348.46 136.039 348.336 136.362 348.086 136.626C347.837 136.875 347.522 137 347.14 137C346.759 137 346.444 136.875 346.194 136.626C345.945 136.362 345.82 136.039 345.82 135.658V134.58L346.304 134.778C346.304 134.969 346.202 135.203 345.996 135.482C345.791 135.746 345.512 136.01 345.16 136.274C344.808 136.538 344.39 136.765 343.906 136.956C343.437 137.132 342.924 137.22 342.366 137.22C341.354 137.22 340.438 136.963 339.616 136.45C338.795 135.922 338.142 135.203 337.658 134.294C337.189 133.37 336.954 132.314 336.954 131.126C336.954 129.923 337.189 128.867 337.658 127.958C338.142 127.034 338.788 126.315 339.594 125.802C340.401 125.274 341.296 125.01 342.278 125.01C342.909 125.01 343.488 125.105 344.016 125.296C344.544 125.487 344.999 125.729 345.38 126.022C345.776 126.315 346.077 126.616 346.282 126.924C346.502 127.217 346.612 127.467 346.612 127.672L345.82 127.958V126.352C345.82 125.971 345.945 125.655 346.194 125.406C346.444 125.142 346.759 125.01 347.14 125.01ZM342.696 134.8C343.342 134.8 343.906 134.639 344.39 134.316C344.874 133.993 345.248 133.553 345.512 132.996C345.791 132.439 345.93 131.815 345.93 131.126C345.93 130.422 345.791 129.791 345.512 129.234C345.248 128.677 344.874 128.237 344.39 127.914C343.906 127.591 343.342 127.43 342.696 127.43C342.066 127.43 341.508 127.591 341.024 127.914C340.54 128.237 340.159 128.677 339.88 129.234C339.616 129.791 339.484 130.422 339.484 131.126C339.484 131.815 339.616 132.439 339.88 132.996C340.159 133.553 340.54 133.993 341.024 134.316C341.508 134.639 342.066 134.8 342.696 134.8ZM343.268 122.524L341.574 123.932C341.384 124.093 341.222 124.225 341.09 124.328C340.973 124.416 340.775 124.46 340.496 124.46C340.306 124.46 340.144 124.409 340.012 124.306C339.895 124.189 339.836 124.057 339.836 123.91C339.836 123.793 339.851 123.69 339.88 123.602C339.91 123.499 339.983 123.375 340.1 123.228L341.178 121.864C341.516 121.439 341.963 121.226 342.52 121.226H343.312C343.606 121.226 343.833 121.27 343.994 121.358C344.17 121.446 344.339 121.615 344.5 121.864L345.468 123.228C345.586 123.375 345.659 123.499 345.688 123.602C345.718 123.69 345.732 123.793 345.732 123.91C345.732 124.057 345.674 124.189 345.556 124.306C345.439 124.409 345.278 124.46 345.072 124.46C344.794 124.46 344.596 124.416 344.478 124.328C344.361 124.225 344.2 124.093 343.994 123.932L342.146 122.304L343.268 122.524ZM344.192 119.004C344.427 118.813 344.676 118.659 344.94 118.542C345.204 118.425 345.534 118.366 345.93 118.366C346.546 118.366 347.016 118.469 347.338 118.674C347.676 118.879 347.903 119.136 348.02 119.444C348.138 119.737 348.196 120.016 348.196 120.28C348.196 120.515 348.16 120.727 348.086 120.918C348.028 121.094 347.925 121.277 347.778 121.468C347.632 121.644 347.507 121.798 347.404 121.93C347.302 122.062 347.25 122.187 347.25 122.304C347.25 122.48 347.177 122.627 347.03 122.744C346.884 122.861 346.708 122.92 346.502 122.92C346.312 122.92 346.136 122.869 345.974 122.766C345.828 122.649 345.754 122.495 345.754 122.304C345.754 122.157 345.784 122.018 345.842 121.886C345.916 121.739 346.004 121.593 346.106 121.446C346.224 121.285 346.334 121.116 346.436 120.94C346.554 120.764 346.612 120.617 346.612 120.5C346.612 120.309 346.539 120.163 346.392 120.06C346.246 119.957 346.07 119.906 345.864 119.906C345.674 119.906 345.505 119.95 345.358 120.038C345.212 120.111 345.072 120.192 344.94 120.28C344.838 120.353 344.706 120.397 344.544 120.412C344.398 120.412 344.229 120.317 344.038 120.126C343.848 119.921 343.789 119.715 343.862 119.51C343.936 119.29 344.046 119.121 344.192 119.004ZM357.611 125.01C358.696 125.01 359.517 125.237 360.075 125.692C360.647 126.147 361.035 126.755 361.241 127.518C361.461 128.266 361.571 129.102 361.571 130.026V135.658C361.571 136.039 361.446 136.362 361.197 136.626C360.947 136.875 360.632 137 360.251 137C359.869 137 359.554 136.875 359.305 136.626C359.055 136.362 358.931 136.039 358.931 135.658V130.026C358.931 129.542 358.865 129.109 358.733 128.728C358.615 128.332 358.395 128.017 358.073 127.782C357.75 127.547 357.288 127.43 356.687 127.43C356.1 127.43 355.601 127.547 355.191 127.782C354.795 128.017 354.487 128.332 354.267 128.728C354.061 129.109 353.959 129.542 353.959 130.026V135.658C353.959 136.039 353.834 136.362 353.585 136.626C353.335 136.875 353.02 137 352.639 137C352.257 137 351.942 136.875 351.693 136.626C351.443 136.362 351.319 136.039 351.319 135.658V126.572C351.319 126.191 351.443 125.875 351.693 125.626C351.942 125.362 352.257 125.23 352.639 125.23C353.02 125.23 353.335 125.362 353.585 125.626C353.834 125.875 353.959 126.191 353.959 126.572V127.518L353.629 127.452C353.761 127.203 353.951 126.939 354.201 126.66C354.45 126.367 354.743 126.095 355.081 125.846C355.418 125.597 355.799 125.399 356.225 125.252C356.65 125.091 357.112 125.01 357.611 125.01ZM376.684 125.01C377.711 125.01 378.627 125.274 379.434 125.802C380.255 126.315 380.901 127.027 381.37 127.936C381.854 128.845 382.096 129.901 382.096 131.104C382.096 132.307 381.854 133.37 381.37 134.294C380.901 135.203 380.263 135.922 379.456 136.45C378.664 136.963 377.769 137.22 376.772 137.22C376.185 137.22 375.635 137.125 375.122 136.934C374.609 136.743 374.154 136.501 373.758 136.208C373.377 135.915 373.076 135.621 372.856 135.328C372.651 135.02 372.548 134.763 372.548 134.558L373.23 134.272V135.878C373.23 136.259 373.105 136.582 372.856 136.846C372.607 137.095 372.291 137.22 371.91 137.22C371.529 137.22 371.213 137.095 370.964 136.846C370.715 136.597 370.59 136.274 370.59 135.878V122.062C370.59 121.681 370.715 121.365 370.964 121.116C371.213 120.852 371.529 120.72 371.91 120.72C372.291 120.72 372.607 120.852 372.856 121.116C373.105 121.365 373.23 121.681 373.23 122.062V127.65L372.856 127.452C372.856 127.261 372.959 127.034 373.164 126.77C373.369 126.491 373.648 126.22 374 125.956C374.352 125.677 374.755 125.45 375.21 125.274C375.679 125.098 376.171 125.01 376.684 125.01ZM376.354 127.43C375.709 127.43 375.144 127.591 374.66 127.914C374.176 128.237 373.795 128.677 373.516 129.234C373.252 129.777 373.12 130.4 373.12 131.104C373.12 131.793 373.252 132.424 373.516 132.996C373.795 133.553 374.176 133.993 374.66 134.316C375.144 134.639 375.709 134.8 376.354 134.8C376.999 134.8 377.557 134.639 378.026 134.316C378.51 133.993 378.884 133.553 379.148 132.996C379.427 132.424 379.566 131.793 379.566 131.104C379.566 130.4 379.427 129.777 379.148 129.234C378.884 128.677 378.51 128.237 378.026 127.914C377.557 127.591 376.999 127.43 376.354 127.43ZM386.891 135.658C386.891 136.039 386.766 136.362 386.517 136.626C386.267 136.875 385.952 137 385.571 137C385.189 137 384.874 136.875 384.625 136.626C384.375 136.362 384.251 136.039 384.251 135.658V126.572C384.251 126.191 384.375 125.875 384.625 125.626C384.874 125.362 385.189 125.23 385.571 125.23C385.952 125.23 386.267 125.362 386.517 125.626C386.766 125.875 386.891 126.191 386.891 126.572V135.658ZM385.549 123.8C385.05 123.8 384.698 123.719 384.493 123.558C384.287 123.397 384.185 123.111 384.185 122.7V122.282C384.185 121.857 384.295 121.571 384.515 121.424C384.749 121.263 385.101 121.182 385.571 121.182C386.084 121.182 386.443 121.263 386.649 121.424C386.854 121.585 386.957 121.871 386.957 122.282V122.7C386.957 123.125 386.847 123.419 386.627 123.58C386.407 123.727 386.047 123.8 385.549 123.8ZM385.725 140.52C385.241 140.52 384.896 140.439 384.691 140.278C384.485 140.117 384.383 139.831 384.383 139.42V139.002C384.383 138.577 384.493 138.283 384.713 138.122C384.947 137.975 385.285 137.902 385.725 137.902C386.267 137.902 386.641 137.975 386.847 138.122C387.052 138.283 387.155 138.577 387.155 139.002V139.42C387.155 139.845 387.045 140.131 386.825 140.278C386.605 140.439 386.238 140.52 385.725 140.52Z" fill="#979C9E"/>
<path d="M486.6 137.22C485.573 137.22 484.649 137.095 483.828 136.846C483.007 136.582 482.222 136.127 481.474 135.482C481.283 135.321 481.137 135.137 481.034 134.932C480.931 134.727 480.88 134.521 480.88 134.316C480.88 133.979 480.997 133.685 481.232 133.436C481.481 133.172 481.789 133.04 482.156 133.04C482.435 133.04 482.684 133.128 482.904 133.304C483.461 133.759 484.011 134.103 484.554 134.338C485.111 134.573 485.793 134.69 486.6 134.69C487.143 134.69 487.641 134.609 488.096 134.448C488.551 134.272 488.917 134.045 489.196 133.766C489.475 133.473 489.614 133.143 489.614 132.776C489.614 132.336 489.482 131.962 489.218 131.654C488.954 131.346 488.551 131.089 488.008 130.884C487.465 130.664 486.776 130.495 485.94 130.378C485.148 130.261 484.451 130.085 483.85 129.85C483.249 129.601 482.743 129.293 482.332 128.926C481.936 128.545 481.635 128.105 481.43 127.606C481.225 127.093 481.122 126.521 481.122 125.89C481.122 124.937 481.364 124.123 481.848 123.448C482.347 122.773 483.014 122.26 483.85 121.908C484.686 121.556 485.61 121.38 486.622 121.38C487.575 121.38 488.455 121.527 489.262 121.82C490.083 122.099 490.751 122.458 491.264 122.898C491.689 123.235 491.902 123.624 491.902 124.064C491.902 124.387 491.777 124.68 491.528 124.944C491.279 125.208 490.985 125.34 490.648 125.34C490.428 125.34 490.23 125.274 490.054 125.142C489.819 124.937 489.504 124.746 489.108 124.57C488.712 124.379 488.294 124.225 487.854 124.108C487.414 123.976 487.003 123.91 486.622 123.91C485.991 123.91 485.456 123.991 485.016 124.152C484.591 124.313 484.268 124.533 484.048 124.812C483.828 125.091 483.718 125.413 483.718 125.78C483.718 126.22 483.843 126.587 484.092 126.88C484.356 127.159 484.73 127.386 485.214 127.562C485.698 127.723 486.277 127.87 486.952 128.002C487.832 128.163 488.602 128.354 489.262 128.574C489.937 128.794 490.494 129.08 490.934 129.432C491.374 129.769 491.704 130.202 491.924 130.73C492.144 131.243 492.254 131.874 492.254 132.622C492.254 133.575 491.99 134.397 491.462 135.086C490.934 135.775 490.237 136.303 489.372 136.67C488.521 137.037 487.597 137.22 486.6 137.22ZM500.739 125.01C501.795 125.01 502.594 125.237 503.137 125.692C503.694 126.147 504.076 126.755 504.281 127.518C504.486 128.266 504.589 129.102 504.589 130.026V135.658C504.589 136.039 504.464 136.362 504.215 136.626C503.966 136.875 503.65 137 503.269 137C502.888 137 502.572 136.875 502.323 136.626C502.074 136.362 501.949 136.039 501.949 135.658V130.026C501.949 129.542 501.89 129.109 501.773 128.728C501.656 128.332 501.443 128.017 501.135 127.782C500.827 127.547 500.387 127.43 499.815 127.43C499.258 127.43 498.781 127.547 498.385 127.782C497.989 128.017 497.688 128.332 497.483 128.728C497.292 129.109 497.197 129.542 497.197 130.026V135.658C497.197 136.039 497.072 136.362 496.823 136.626C496.574 136.875 496.258 137 495.877 137C495.496 137 495.18 136.875 494.931 136.626C494.682 136.362 494.557 136.039 494.557 135.658V122.062C494.557 121.681 494.682 121.365 494.931 121.116C495.18 120.852 495.496 120.72 495.877 120.72C496.258 120.72 496.574 120.852 496.823 121.116C497.072 121.365 497.197 121.681 497.197 122.062V127.518L496.867 127.452C496.999 127.203 497.182 126.939 497.417 126.66C497.652 126.367 497.938 126.095 498.275 125.846C498.612 125.597 498.986 125.399 499.397 125.252C499.808 125.091 500.255 125.01 500.739 125.01ZM509.934 135.658C509.934 136.039 509.809 136.362 509.56 136.626C509.31 136.875 508.995 137 508.614 137C508.232 137 507.917 136.875 507.668 136.626C507.418 136.362 507.294 136.039 507.294 135.658V126.572C507.294 126.191 507.418 125.875 507.668 125.626C507.917 125.362 508.232 125.23 508.614 125.23C508.995 125.23 509.31 125.362 509.56 125.626C509.809 125.875 509.934 126.191 509.934 126.572V135.658ZM508.592 123.8C508.093 123.8 507.741 123.719 507.536 123.558C507.33 123.397 507.228 123.111 507.228 122.7V122.282C507.228 121.857 507.338 121.571 507.558 121.424C507.792 121.263 508.144 121.182 508.614 121.182C509.127 121.182 509.486 121.263 509.692 121.424C509.897 121.585 510 121.871 510 122.282V122.7C510 123.125 509.89 123.419 509.67 123.58C509.45 123.727 509.09 123.8 508.592 123.8ZM518.741 125.01C519.767 125.01 520.684 125.274 521.491 125.802C522.312 126.315 522.957 127.027 523.427 127.936C523.911 128.845 524.153 129.901 524.153 131.104C524.153 132.307 523.911 133.37 523.427 134.294C522.957 135.203 522.319 135.922 521.513 136.45C520.721 136.963 519.826 137.22 518.829 137.22C518.242 137.22 517.692 137.125 517.179 136.934C516.665 136.743 516.211 136.501 515.815 136.208C515.433 135.915 515.133 135.621 514.913 135.328C514.707 135.02 514.605 134.763 514.605 134.558L515.287 134.272V140.058C515.287 140.439 515.162 140.755 514.913 141.004C514.663 141.268 514.348 141.4 513.967 141.4C513.585 141.4 513.27 141.275 513.021 141.026C512.771 140.777 512.647 140.454 512.647 140.058V126.572C512.647 126.191 512.771 125.875 513.021 125.626C513.27 125.362 513.585 125.23 513.967 125.23C514.348 125.23 514.663 125.362 514.913 125.626C515.162 125.875 515.287 126.191 515.287 126.572V127.65L514.913 127.452C514.913 127.261 515.015 127.034 515.221 126.77C515.426 126.491 515.705 126.22 516.057 125.956C516.409 125.677 516.812 125.45 517.267 125.274C517.736 125.098 518.227 125.01 518.741 125.01ZM518.411 127.43C517.765 127.43 517.201 127.591 516.717 127.914C516.233 128.237 515.851 128.677 515.573 129.234C515.309 129.777 515.177 130.4 515.177 131.104C515.177 131.793 515.309 132.424 515.573 132.996C515.851 133.553 516.233 133.993 516.717 134.316C517.201 134.639 517.765 134.8 518.411 134.8C519.056 134.8 519.613 134.639 520.083 134.316C520.567 133.993 520.941 133.553 521.205 132.996C521.483 132.424 521.623 131.793 521.623 131.104C521.623 130.4 521.483 129.777 521.205 129.234C520.941 128.677 520.567 128.237 520.083 127.914C519.613 127.591 519.056 127.43 518.411 127.43ZM532.555 125.01C533.582 125.01 534.499 125.274 535.305 125.802C536.127 126.315 536.772 127.027 537.241 127.936C537.725 128.845 537.967 129.901 537.967 131.104C537.967 132.307 537.725 133.37 537.241 134.294C536.772 135.203 536.134 135.922 535.327 136.45C534.535 136.963 533.641 137.22 532.643 137.22C532.057 137.22 531.507 137.125 530.993 136.934C530.48 136.743 530.025 136.501 529.629 136.208C529.248 135.915 528.947 135.621 528.727 135.328C528.522 135.02 528.419 134.763 528.419 134.558L529.101 134.272V140.058C529.101 140.439 528.977 140.755 528.727 141.004C528.478 141.268 528.163 141.4 527.781 141.4C527.4 141.4 527.085 141.275 526.835 141.026C526.586 140.777 526.461 140.454 526.461 140.058V126.572C526.461 126.191 526.586 125.875 526.835 125.626C527.085 125.362 527.4 125.23 527.781 125.23C528.163 125.23 528.478 125.362 528.727 125.626C528.977 125.875 529.101 126.191 529.101 126.572V127.65L528.727 127.452C528.727 127.261 528.83 127.034 529.035 126.77C529.241 126.491 529.519 126.22 529.871 125.956C530.223 125.677 530.627 125.45 531.081 125.274C531.551 125.098 532.042 125.01 532.555 125.01ZM532.225 127.43C531.58 127.43 531.015 127.591 530.531 127.914C530.047 128.237 529.666 128.677 529.387 129.234C529.123 129.777 528.991 130.4 528.991 131.104C528.991 131.793 529.123 132.424 529.387 132.996C529.666 133.553 530.047 133.993 530.531 134.316C531.015 134.639 531.58 134.8 532.225 134.8C532.871 134.8 533.428 134.639 533.897 134.316C534.381 133.993 534.755 133.553 535.019 132.996C535.298 132.424 535.437 131.793 535.437 131.104C535.437 130.4 535.298 129.777 535.019 129.234C534.755 128.677 534.381 128.237 533.897 127.914C533.428 127.591 532.871 127.43 532.225 127.43ZM545.82 137.22C544.573 137.22 543.488 136.963 542.564 136.45C541.654 135.922 540.95 135.211 540.452 134.316C539.968 133.421 539.726 132.409 539.726 131.28C539.726 129.96 539.99 128.838 540.518 127.914C541.06 126.975 541.764 126.257 542.63 125.758C543.495 125.259 544.412 125.01 545.38 125.01C546.128 125.01 546.832 125.164 547.492 125.472C548.166 125.78 548.76 126.205 549.274 126.748C549.787 127.276 550.19 127.892 550.484 128.596C550.792 129.3 550.946 130.048 550.946 130.84C550.931 131.192 550.792 131.478 550.528 131.698C550.264 131.918 549.956 132.028 549.604 132.028H541.2L540.54 129.828H548.614L548.13 130.268V129.674C548.1 129.249 547.946 128.867 547.668 128.53C547.404 128.193 547.066 127.929 546.656 127.738C546.26 127.533 545.834 127.43 545.38 127.43C544.94 127.43 544.529 127.489 544.148 127.606C543.766 127.723 543.436 127.921 543.158 128.2C542.879 128.479 542.659 128.853 542.498 129.322C542.336 129.791 542.256 130.385 542.256 131.104C542.256 131.896 542.417 132.571 542.74 133.128C543.077 133.671 543.502 134.089 544.016 134.382C544.544 134.661 545.101 134.8 545.688 134.8C546.23 134.8 546.663 134.756 546.986 134.668C547.308 134.58 547.565 134.477 547.756 134.36C547.961 134.228 548.144 134.118 548.306 134.03C548.57 133.898 548.819 133.832 549.054 133.832C549.376 133.832 549.64 133.942 549.846 134.162C550.066 134.382 550.176 134.639 550.176 134.932C550.176 135.328 549.97 135.687 549.56 136.01C549.178 136.333 548.643 136.619 547.954 136.868C547.264 137.103 546.553 137.22 545.82 137.22ZM554.572 137C554.191 137 553.876 136.875 553.626 136.626C553.377 136.362 553.252 136.039 553.252 135.658V126.572C553.252 126.191 553.377 125.875 553.626 125.626C553.876 125.362 554.191 125.23 554.572 125.23C554.954 125.23 555.269 125.362 555.518 125.626C555.768 125.875 555.892 126.191 555.892 126.572V128.64L555.738 127.166C555.9 126.814 556.105 126.506 556.354 126.242C556.618 125.963 556.912 125.736 557.234 125.56C557.557 125.369 557.902 125.23 558.268 125.142C558.635 125.054 559.002 125.01 559.368 125.01C559.808 125.01 560.175 125.135 560.468 125.384C560.776 125.633 560.93 125.927 560.93 126.264C560.93 126.748 560.806 127.1 560.556 127.32C560.307 127.525 560.036 127.628 559.742 127.628C559.464 127.628 559.207 127.577 558.972 127.474C558.752 127.371 558.496 127.32 558.202 127.32C557.938 127.32 557.667 127.386 557.388 127.518C557.124 127.635 556.875 127.826 556.64 128.09C556.42 128.354 556.237 128.684 556.09 129.08C555.958 129.461 555.892 129.916 555.892 130.444V135.658C555.892 136.039 555.768 136.362 555.518 136.626C555.269 136.875 554.954 137 554.572 137ZM578.593 120.72C578.975 120.72 579.29 120.845 579.539 121.094C579.789 121.343 579.913 121.666 579.913 122.062V135.658C579.913 136.039 579.789 136.362 579.539 136.626C579.29 136.875 578.975 137 578.593 137C578.212 137 577.897 136.875 577.647 136.626C577.398 136.362 577.273 136.039 577.273 135.658V134.58L577.757 134.778C577.757 134.969 577.655 135.203 577.449 135.482C577.244 135.746 576.965 136.01 576.613 136.274C576.261 136.538 575.843 136.765 575.359 136.956C574.89 137.132 574.377 137.22 573.819 137.22C572.807 137.22 571.891 136.963 571.069 136.45C570.248 135.922 569.595 135.203 569.111 134.294C568.642 133.37 568.407 132.314 568.407 131.126C568.407 129.923 568.642 128.867 569.111 127.958C569.595 127.034 570.241 126.315 571.047 125.802C571.854 125.274 572.749 125.01 573.731 125.01C574.362 125.01 574.941 125.105 575.469 125.296C575.997 125.487 576.452 125.729 576.833 126.022C577.229 126.315 577.53 126.616 577.735 126.924C577.955 127.217 578.065 127.467 578.065 127.672L577.273 127.958V122.062C577.273 121.681 577.398 121.365 577.647 121.116C577.897 120.852 578.212 120.72 578.593 120.72ZM574.149 134.8C574.795 134.8 575.359 134.639 575.843 134.316C576.327 133.993 576.701 133.553 576.965 132.996C577.244 132.439 577.383 131.815 577.383 131.126C577.383 130.422 577.244 129.791 576.965 129.234C576.701 128.677 576.327 128.237 575.843 127.914C575.359 127.591 574.795 127.43 574.149 127.43C573.519 127.43 572.961 127.591 572.477 127.914C571.993 128.237 571.612 128.677 571.333 129.234C571.069 129.791 570.937 130.422 570.937 131.126C570.937 131.815 571.069 132.439 571.333 132.996C571.612 133.553 571.993 133.993 572.477 134.316C572.961 134.639 573.519 134.8 574.149 134.8ZM576.393 124.658C576.012 124.658 575.689 124.548 575.425 124.328C575.176 124.093 575.051 123.793 575.051 123.426C575.051 123.089 575.176 122.81 575.425 122.59C575.689 122.355 576.012 122.238 576.393 122.238H580.221C580.603 122.238 580.918 122.355 581.167 122.59C581.431 122.81 581.563 123.089 581.563 123.426C581.563 123.793 581.431 124.093 581.167 124.328C580.918 124.548 580.603 124.658 580.221 124.658H576.393ZM592.408 125.01C592.789 125.01 593.104 125.135 593.354 125.384C593.603 125.633 593.728 125.956 593.728 126.352V135.658C593.728 136.039 593.603 136.362 593.354 136.626C593.104 136.875 592.789 137 592.408 137C592.026 137 591.711 136.875 591.462 136.626C591.212 136.362 591.088 136.039 591.088 135.658V134.58L591.572 134.778C591.572 134.969 591.469 135.203 591.264 135.482C591.058 135.746 590.78 136.01 590.428 136.274C590.076 136.538 589.658 136.765 589.174 136.956C588.704 137.132 588.191 137.22 587.634 137.22C586.622 137.22 585.705 136.963 584.884 136.45C584.062 135.922 583.41 135.203 582.926 134.294C582.456 133.37 582.222 132.314 582.222 131.126C582.222 129.923 582.456 128.867 582.926 127.958C583.41 127.034 584.055 126.315 584.862 125.802C585.668 125.274 586.563 125.01 587.546 125.01C588.176 125.01 588.756 125.105 589.284 125.296C589.812 125.487 590.266 125.729 590.648 126.022C591.044 126.315 591.344 126.616 591.55 126.924C591.77 127.217 591.88 127.467 591.88 127.672L591.088 127.958V126.352C591.088 125.971 591.212 125.655 591.462 125.406C591.711 125.142 592.026 125.01 592.408 125.01ZM587.964 134.8C588.609 134.8 589.174 134.639 589.658 134.316C590.142 133.993 590.516 133.553 590.78 132.996C591.058 132.439 591.198 131.815 591.198 131.126C591.198 130.422 591.058 129.791 590.78 129.234C590.516 128.677 590.142 128.237 589.658 127.914C589.174 127.591 588.609 127.43 587.964 127.43C587.333 127.43 586.776 127.591 586.292 127.914C585.808 128.237 585.426 128.677 585.148 129.234C584.884 129.791 584.752 130.422 584.752 131.126C584.752 131.815 584.884 132.439 585.148 132.996C585.426 133.553 585.808 133.993 586.292 134.316C586.776 134.639 587.333 134.8 587.964 134.8ZM585.148 124.02C584.825 124.02 584.539 123.888 584.29 123.624C584.055 123.36 583.938 122.993 583.938 122.524C583.938 122.055 584.158 121.615 584.598 121.204C585.038 120.793 585.72 120.588 586.644 120.588C587.025 120.588 587.37 120.661 587.678 120.808C587.986 120.955 588.264 121.123 588.514 121.314C588.778 121.49 589.02 121.651 589.24 121.798C589.474 121.945 589.687 122.018 589.878 122.018C590.039 122.018 590.164 121.981 590.252 121.908C590.34 121.82 590.362 121.703 590.318 121.556C590.215 121.219 590.252 120.955 590.428 120.764C590.604 120.573 590.824 120.478 591.088 120.478C591.425 120.478 591.711 120.61 591.946 120.874C592.18 121.123 592.298 121.475 592.298 121.93C592.298 122.179 592.217 122.458 592.056 122.766C591.894 123.074 591.63 123.345 591.264 123.58C590.897 123.8 590.406 123.91 589.79 123.91C589.482 123.91 589.166 123.837 588.844 123.69C588.536 123.543 588.228 123.382 587.92 123.206C587.612 123.015 587.326 122.847 587.062 122.7C586.798 122.553 586.563 122.48 586.358 122.48C586.211 122.48 586.086 122.524 585.984 122.612C585.896 122.685 585.874 122.795 585.918 122.942C586.02 123.265 585.984 123.529 585.808 123.734C585.632 123.925 585.412 124.02 585.148 124.02ZM605.612 135.658C605.612 136.039 605.48 136.362 605.216 136.626C604.967 136.875 604.652 137 604.27 137C603.904 137 603.596 136.875 603.346 136.626C603.097 136.362 602.972 136.039 602.972 135.658V122.062C602.972 121.681 603.097 121.365 603.346 121.116C603.61 120.852 603.933 120.72 604.314 120.72C604.696 120.72 605.004 120.852 605.238 121.116C605.488 121.365 605.612 121.681 605.612 122.062V135.658ZM618.318 125.01C618.699 125.01 619.015 125.135 619.264 125.384C619.513 125.633 619.638 125.956 619.638 126.352V135.658C619.638 136.039 619.513 136.362 619.264 136.626C619.015 136.875 618.699 137 618.318 137C617.937 137 617.621 136.875 617.372 136.626C617.123 136.362 616.998 136.039 616.998 135.658V134.58L617.482 134.778C617.482 134.969 617.379 135.203 617.174 135.482C616.969 135.746 616.69 136.01 616.338 136.274C615.986 136.538 615.568 136.765 615.084 136.956C614.615 137.132 614.101 137.22 613.544 137.22C612.532 137.22 611.615 136.963 610.794 136.45C609.973 135.922 609.32 135.203 608.836 134.294C608.367 133.37 608.132 132.314 608.132 131.126C608.132 129.923 608.367 128.867 608.836 127.958C609.32 127.034 609.965 126.315 610.772 125.802C611.579 125.274 612.473 125.01 613.456 125.01C614.087 125.01 614.666 125.105 615.194 125.296C615.722 125.487 616.177 125.729 616.558 126.022C616.954 126.315 617.255 126.616 617.46 126.924C617.68 127.217 617.79 127.467 617.79 127.672L616.998 127.958V126.352C616.998 125.971 617.123 125.655 617.372 125.406C617.621 125.142 617.937 125.01 618.318 125.01ZM613.874 134.8C614.519 134.8 615.084 134.639 615.568 134.316C616.052 133.993 616.426 133.553 616.69 132.996C616.969 132.439 617.108 131.815 617.108 131.126C617.108 130.422 616.969 129.791 616.69 129.234C616.426 128.677 616.052 128.237 615.568 127.914C615.084 127.591 614.519 127.43 613.874 127.43C613.243 127.43 612.686 127.591 612.202 127.914C611.718 128.237 611.337 128.677 611.058 129.234C610.794 129.791 610.662 130.422 610.662 131.126C610.662 131.815 610.794 132.439 611.058 132.996C611.337 133.553 611.718 133.993 612.202 134.316C612.686 134.639 613.243 134.8 613.874 134.8ZM614.336 121.886L612.642 123.294C612.451 123.455 612.29 123.587 612.158 123.69C612.041 123.778 611.843 123.822 611.564 123.822C611.373 123.822 611.212 123.771 611.08 123.668C610.963 123.551 610.904 123.419 610.904 123.272C610.904 123.155 610.919 123.052 610.948 122.964C610.977 122.861 611.051 122.737 611.168 122.59L612.246 121.226C612.583 120.801 613.031 120.588 613.588 120.588H614.38C614.673 120.588 614.901 120.632 615.062 120.72C615.238 120.808 615.407 120.977 615.568 121.226L616.536 122.59C616.653 122.737 616.727 122.861 616.756 122.964C616.785 123.052 616.8 123.155 616.8 123.272C616.8 123.419 616.741 123.551 616.624 123.668C616.507 123.771 616.345 123.822 616.14 123.822C615.861 123.822 615.663 123.778 615.546 123.69C615.429 123.587 615.267 123.455 615.062 123.294L613.214 121.666L614.336 121.886ZM617.02 122.062C616.903 122.062 616.749 122.003 616.558 121.886C616.382 121.754 616.301 121.571 616.316 121.336C616.316 121.204 616.36 121.065 616.448 120.918L617.724 118.674C617.856 118.439 618.025 118.234 618.23 118.058C618.435 117.882 618.67 117.794 618.934 117.794C619.345 117.794 619.645 117.904 619.836 118.124C620.027 118.329 620.115 118.586 620.1 118.894C620.085 119.041 620.041 119.195 619.968 119.356C619.909 119.517 619.814 119.679 619.682 119.84L618.01 121.688C617.863 121.849 617.702 121.952 617.526 121.996C617.35 122.04 617.181 122.062 617.02 122.062ZM631.23 125.23C631.612 125.23 631.927 125.362 632.176 125.626C632.426 125.875 632.55 126.191 632.55 126.572V135.922C632.55 137.271 632.294 138.342 631.78 139.134C631.282 139.941 630.607 140.52 629.756 140.872C628.906 141.224 627.952 141.4 626.896 141.4C626.427 141.4 625.928 141.363 625.4 141.29C624.872 141.217 624.44 141.107 624.102 140.96C623.662 140.769 623.354 140.527 623.178 140.234C623.017 139.955 622.988 139.655 623.09 139.332C623.222 138.907 623.435 138.613 623.728 138.452C624.022 138.305 624.33 138.291 624.652 138.408C624.887 138.481 625.195 138.591 625.576 138.738C625.958 138.899 626.398 138.98 626.896 138.98C627.571 138.98 628.128 138.885 628.568 138.694C629.023 138.518 629.36 138.21 629.58 137.77C629.815 137.345 629.932 136.758 629.932 136.01V134.536L630.394 135.064C630.145 135.548 629.83 135.951 629.448 136.274C629.082 136.582 628.642 136.817 628.128 136.978C627.615 137.139 627.028 137.22 626.368 137.22C625.591 137.22 624.909 137.044 624.322 136.692C623.75 136.325 623.303 135.827 622.98 135.196C622.658 134.551 622.496 133.817 622.496 132.996V126.572C622.496 126.191 622.621 125.875 622.87 125.626C623.12 125.362 623.435 125.23 623.816 125.23C624.198 125.23 624.513 125.362 624.762 125.626C625.012 125.875 625.136 126.191 625.136 126.572V132.204C625.136 133.157 625.342 133.832 625.752 134.228C626.178 134.609 626.764 134.8 627.512 134.8C628.026 134.8 628.458 134.705 628.81 134.514C629.162 134.309 629.434 134.015 629.624 133.634C629.815 133.238 629.91 132.761 629.91 132.204V126.572C629.91 126.191 630.035 125.875 630.284 125.626C630.534 125.362 630.849 125.23 631.23 125.23Z" fill="#979C9E"/>
<path d="M765.25 122.6C766.306 122.6 767.245 122.798 768.066 123.194C768.887 123.59 769.577 124.147 770.134 124.866C770.706 125.57 771.131 126.391 771.41 127.33C771.703 128.254 771.85 129.244 771.85 130.3C771.85 131.723 771.593 133.021 771.08 134.194C770.567 135.353 769.819 136.277 768.836 136.966C767.868 137.655 766.673 138 765.25 138H759.992C759.611 138 759.288 137.875 759.024 137.626C758.775 137.362 758.65 137.039 758.65 136.658V123.942C758.65 123.561 758.775 123.245 759.024 122.996C759.288 122.732 759.611 122.6 759.992 122.6H765.25ZM765.03 135.47C765.954 135.47 766.709 135.235 767.296 134.766C767.883 134.282 768.308 133.651 768.572 132.874C768.851 132.082 768.99 131.224 768.99 130.3C768.99 129.611 768.909 128.958 768.748 128.342C768.601 127.711 768.367 127.161 768.044 126.692C767.721 126.208 767.311 125.827 766.812 125.548C766.313 125.269 765.719 125.13 765.03 125.13H761.18L761.4 124.932V135.712L761.268 135.47H765.03ZM758.254 131.466C757.873 131.466 757.55 131.356 757.286 131.136C757.037 130.901 756.912 130.601 756.912 130.234C756.912 129.897 757.037 129.618 757.286 129.398C757.55 129.163 757.873 129.046 758.254 129.046H762.082C762.463 129.046 762.779 129.163 763.028 129.398C763.292 129.618 763.424 129.897 763.424 130.234C763.424 130.601 763.292 130.901 763.028 131.136C762.779 131.356 762.463 131.466 762.082 131.466H758.254ZM783.793 126.01C784.174 126.01 784.489 126.135 784.739 126.384C784.988 126.633 785.113 126.956 785.113 127.352V136.658C785.113 137.039 784.988 137.362 784.739 137.626C784.489 137.875 784.174 138 783.793 138C783.411 138 783.096 137.875 782.847 137.626C782.597 137.362 782.473 137.039 782.473 136.658V135.58L782.957 135.778C782.957 135.969 782.854 136.203 782.649 136.482C782.443 136.746 782.165 137.01 781.813 137.274C781.461 137.538 781.043 137.765 780.559 137.956C780.089 138.132 779.576 138.22 779.019 138.22C778.007 138.22 777.09 137.963 776.269 137.45C775.447 136.922 774.795 136.203 774.311 135.294C773.841 134.37 773.607 133.314 773.607 132.126C773.607 130.923 773.841 129.867 774.311 128.958C774.795 128.034 775.44 127.315 776.247 126.802C777.053 126.274 777.948 126.01 778.931 126.01C779.561 126.01 780.141 126.105 780.669 126.296C781.197 126.487 781.651 126.729 782.033 127.022C782.429 127.315 782.729 127.616 782.935 127.924C783.155 128.217 783.265 128.467 783.265 128.672L782.473 128.958V127.352C782.473 126.971 782.597 126.655 782.847 126.406C783.096 126.142 783.411 126.01 783.793 126.01ZM779.349 135.8C779.994 135.8 780.559 135.639 781.043 135.316C781.527 134.993 781.901 134.553 782.165 133.996C782.443 133.439 782.583 132.815 782.583 132.126C782.583 131.422 782.443 130.791 782.165 130.234C781.901 129.677 781.527 129.237 781.043 128.914C780.559 128.591 779.994 128.43 779.349 128.43C778.718 128.43 778.161 128.591 777.677 128.914C777.193 129.237 776.811 129.677 776.533 130.234C776.269 130.791 776.137 131.422 776.137 132.126C776.137 132.815 776.269 133.439 776.533 133.996C776.811 134.553 777.193 134.993 777.677 135.316C778.161 135.639 778.718 135.8 779.349 135.8ZM776.533 125.02C776.21 125.02 775.924 124.888 775.675 124.624C775.44 124.36 775.323 123.993 775.323 123.524C775.323 123.055 775.543 122.615 775.983 122.204C776.423 121.793 777.105 121.588 778.029 121.588C778.41 121.588 778.755 121.661 779.063 121.808C779.371 121.955 779.649 122.123 779.899 122.314C780.163 122.49 780.405 122.651 780.625 122.798C780.859 122.945 781.072 123.018 781.263 123.018C781.424 123.018 781.549 122.981 781.637 122.908C781.725 122.82 781.747 122.703 781.703 122.556C781.6 122.219 781.637 121.955 781.813 121.764C781.989 121.573 782.209 121.478 782.473 121.478C782.81 121.478 783.096 121.61 783.331 121.874C783.565 122.123 783.683 122.475 783.683 122.93C783.683 123.179 783.602 123.458 783.441 123.766C783.279 124.074 783.015 124.345 782.649 124.58C782.282 124.8 781.791 124.91 781.175 124.91C780.867 124.91 780.551 124.837 780.229 124.69C779.921 124.543 779.613 124.382 779.305 124.206C778.997 124.015 778.711 123.847 778.447 123.7C778.183 123.553 777.948 123.48 777.743 123.48C777.596 123.48 777.471 123.524 777.369 123.612C777.281 123.685 777.259 123.795 777.303 123.942C777.405 124.265 777.369 124.529 777.193 124.734C777.017 124.925 776.797 125.02 776.533 125.02ZM800.429 126.01C801.514 126.01 802.336 126.237 802.893 126.692C803.465 127.147 803.854 127.755 804.059 128.518C804.279 129.266 804.389 130.102 804.389 131.026V136.658C804.389 137.039 804.264 137.362 804.015 137.626C803.766 137.875 803.45 138 803.069 138C802.688 138 802.372 137.875 802.123 137.626C801.874 137.362 801.749 137.039 801.749 136.658V131.026C801.749 130.542 801.683 130.109 801.551 129.728C801.434 129.332 801.214 129.017 800.891 128.782C800.568 128.547 800.106 128.43 799.505 128.43C798.918 128.43 798.42 128.547 798.009 128.782C797.613 129.017 797.305 129.332 797.085 129.728C796.88 130.109 796.777 130.542 796.777 131.026V136.658C796.777 137.039 796.652 137.362 796.403 137.626C796.154 137.875 795.838 138 795.457 138C795.076 138 794.76 137.875 794.511 137.626C794.262 137.362 794.137 137.039 794.137 136.658V127.572C794.137 127.191 794.262 126.875 794.511 126.626C794.76 126.362 795.076 126.23 795.457 126.23C795.838 126.23 796.154 126.362 796.403 126.626C796.652 126.875 796.777 127.191 796.777 127.572V128.518L796.447 128.452C796.579 128.203 796.77 127.939 797.019 127.66C797.268 127.367 797.562 127.095 797.899 126.846C798.236 126.597 798.618 126.399 799.043 126.252C799.468 126.091 799.93 126.01 800.429 126.01ZM813.425 126.01C814.481 126.01 815.28 126.237 815.823 126.692C816.38 127.147 816.761 127.755 816.967 128.518C817.172 129.266 817.275 130.102 817.275 131.026V136.658C817.275 137.039 817.15 137.362 816.901 137.626C816.651 137.875 816.336 138 815.955 138C815.573 138 815.258 137.875 815.009 137.626C814.759 137.362 814.635 137.039 814.635 136.658V131.026C814.635 130.542 814.576 130.109 814.459 129.728C814.341 129.332 814.129 129.017 813.821 128.782C813.513 128.547 813.073 128.43 812.501 128.43C811.943 128.43 811.467 128.547 811.071 128.782C810.675 129.017 810.374 129.332 810.169 129.728C809.978 130.109 809.883 130.542 809.883 131.026V136.658C809.883 137.039 809.758 137.362 809.509 137.626C809.259 137.875 808.944 138 808.562 138C808.181 138 807.866 137.875 807.617 137.626C807.367 137.362 807.243 137.039 807.243 136.658V123.062C807.243 122.681 807.367 122.365 807.617 122.116C807.866 121.852 808.181 121.72 808.562 121.72C808.944 121.72 809.259 121.852 809.509 122.116C809.758 122.365 809.883 122.681 809.883 123.062V128.518L809.553 128.452C809.685 128.203 809.868 127.939 810.103 127.66C810.337 127.367 810.623 127.095 810.961 126.846C811.298 126.597 811.672 126.399 812.083 126.252C812.493 126.091 812.941 126.01 813.425 126.01ZM829.769 126.01C830.15 126.01 830.466 126.135 830.715 126.384C830.964 126.633 831.089 126.956 831.089 127.352V136.658C831.089 137.039 830.964 137.362 830.715 137.626C830.466 137.875 830.15 138 829.769 138C829.388 138 829.072 137.875 828.823 137.626C828.574 137.362 828.449 137.039 828.449 136.658V135.58L828.933 135.778C828.933 135.969 828.83 136.203 828.625 136.482C828.42 136.746 828.141 137.01 827.789 137.274C827.437 137.538 827.019 137.765 826.535 137.956C826.066 138.132 825.552 138.22 824.995 138.22C823.983 138.22 823.066 137.963 822.245 137.45C821.424 136.922 820.771 136.203 820.287 135.294C819.818 134.37 819.583 133.314 819.583 132.126C819.583 130.923 819.818 129.867 820.287 128.958C820.771 128.034 821.416 127.315 822.223 126.802C823.03 126.274 823.924 126.01 824.907 126.01C825.538 126.01 826.117 126.105 826.645 126.296C827.173 126.487 827.628 126.729 828.009 127.022C828.405 127.315 828.706 127.616 828.911 127.924C829.131 128.217 829.241 128.467 829.241 128.672L828.449 128.958V127.352C828.449 126.971 828.574 126.655 828.823 126.406C829.072 126.142 829.388 126.01 829.769 126.01ZM825.325 135.8C825.97 135.8 826.535 135.639 827.019 135.316C827.503 134.993 827.877 134.553 828.141 133.996C828.42 133.439 828.559 132.815 828.559 132.126C828.559 131.422 828.42 130.791 828.141 130.234C827.877 129.677 827.503 129.237 827.019 128.914C826.535 128.591 825.97 128.43 825.325 128.43C824.694 128.43 824.137 128.591 823.653 128.914C823.169 129.237 822.788 129.677 822.509 130.234C822.245 130.791 822.113 131.422 822.113 132.126C822.113 132.815 822.245 133.439 822.509 133.996C822.788 134.553 823.169 134.993 823.653 135.316C824.137 135.639 824.694 135.8 825.325 135.8ZM825.633 141.52C825.149 141.52 824.804 141.439 824.599 141.278C824.394 141.117 824.291 140.831 824.291 140.42V140.002C824.291 139.577 824.401 139.283 824.621 139.122C824.856 138.975 825.193 138.902 825.633 138.902C826.176 138.902 826.55 138.975 826.755 139.122C826.96 139.283 827.063 139.577 827.063 140.002V140.42C827.063 140.845 826.953 141.131 826.733 141.278C826.513 141.439 826.146 141.52 825.633 141.52ZM825.941 122.886L824.247 124.294C824.056 124.455 823.895 124.587 823.763 124.69C823.646 124.778 823.448 124.822 823.169 124.822C822.978 124.822 822.817 124.771 822.685 124.668C822.568 124.551 822.509 124.419 822.509 124.272C822.509 124.155 822.524 124.052 822.553 123.964C822.582 123.861 822.656 123.737 822.773 123.59L823.851 122.226C824.188 121.801 824.636 121.588 825.193 121.588H825.985C826.278 121.588 826.506 121.632 826.667 121.72C826.843 121.808 827.012 121.977 827.173 122.226L828.141 123.59C828.258 123.737 828.332 123.861 828.361 123.964C828.39 124.052 828.405 124.155 828.405 124.272C828.405 124.419 828.346 124.551 828.229 124.668C828.112 124.771 827.95 124.822 827.745 124.822C827.466 124.822 827.268 124.778 827.151 124.69C827.034 124.587 826.872 124.455 826.667 124.294L824.819 122.666L825.941 122.886ZM840.24 126.01C841.325 126.01 842.146 126.237 842.704 126.692C843.276 127.147 843.664 127.755 843.87 128.518C844.09 129.266 844.2 130.102 844.2 131.026V136.658C844.2 137.039 844.075 137.362 843.826 137.626C843.576 137.875 843.261 138 842.88 138C842.498 138 842.183 137.875 841.934 137.626C841.684 137.362 841.56 137.039 841.56 136.658V131.026C841.56 130.542 841.494 130.109 841.362 129.728C841.244 129.332 841.024 129.017 840.702 128.782C840.379 128.547 839.917 128.43 839.316 128.43C838.729 128.43 838.23 128.547 837.82 128.782C837.424 129.017 837.116 129.332 836.896 129.728C836.69 130.109 836.588 130.542 836.588 131.026V136.658C836.588 137.039 836.463 137.362 836.214 137.626C835.964 137.875 835.649 138 835.268 138C834.886 138 834.571 137.875 834.322 137.626C834.072 137.362 833.948 137.039 833.948 136.658V127.572C833.948 127.191 834.072 126.875 834.322 126.626C834.571 126.362 834.886 126.23 835.268 126.23C835.649 126.23 835.964 126.362 836.214 126.626C836.463 126.875 836.588 127.191 836.588 127.572V128.518L836.258 128.452C836.39 128.203 836.58 127.939 836.83 127.66C837.079 127.367 837.372 127.095 837.71 126.846C838.047 126.597 838.428 126.399 838.854 126.252C839.279 126.091 839.741 126.01 840.24 126.01Z" fill="#979C9E"/>
</svg>
