<svg width="60" height="60" viewBox="0 0 60 60" fill="none" xmlns="http://www.w3.org/2000/svg">
<circle cx="30" cy="30" r="30" fill="#FFE8AA"/>
<path d="M18 24.4C18 22.1598 18 21.0397 18.436 20.184C18.8195 19.4314 19.4314 18.8195 20.184 18.436C21.0397 18 22.1598 18 24.4 18H35.6C37.8402 18 38.9603 18 39.816 18.436C40.5686 18.8195 41.1805 19.4314 41.564 20.184C42 21.0397 42 22.1598 42 24.4V31.6C42 33.8402 42 34.9603 41.564 35.816C41.1805 36.5686 40.5686 37.1805 39.816 37.564C38.9603 38 37.8402 38 35.6 38H26.9117C26.0796 38 25.6636 38 25.2656 38.0817C24.9126 38.1541 24.5709 38.274 24.25 38.4379C23.8882 38.6228 23.5634 38.8827 22.9136 39.4024L19.733 41.9469C19.1782 42.3908 18.9008 42.6127 18.6674 42.6129C18.4644 42.6131 18.2723 42.5208 18.1456 42.3622C18 42.1797 18 41.8245 18 41.114V24.4Z" stroke="#6C7072" stroke-width="2" stroke-linecap="round" stroke-linejoin="round"/>
</svg>
