<svg width="60" height="60" viewBox="0 0 60 60" fill="none" xmlns="http://www.w3.org/2000/svg">
<circle cx="30" cy="30" r="30" fill="#FFE8AA"/>
<path d="M24.3239 26.4635C25.2591 28.4113 26.534 30.2369 28.1485 31.8515C29.7631 33.466 31.5887 34.7409 33.5365 35.6761C33.7041 35.7565 33.7879 35.7968 33.8939 35.8277C34.2706 35.9375 34.7331 35.8586 35.0522 35.6301C35.142 35.5659 35.2188 35.4891 35.3724 35.3355C35.8421 34.8657 36.077 34.6308 36.3132 34.4773C37.2039 33.8981 38.3522 33.8981 39.2429 34.4773C39.4791 34.6308 39.714 34.8657 40.1838 35.3355L40.4456 35.5973C41.1597 36.3114 41.5167 36.6684 41.7107 37.0519C42.0964 37.8145 42.0964 38.7152 41.7107 39.4778C41.5167 39.8613 41.1597 40.2183 40.4456 40.9324L40.2338 41.1442C39.5221 41.8559 39.1663 42.2117 38.6825 42.4834C38.1457 42.785 37.312 43.0018 36.6963 43C36.1414 42.9983 35.7622 42.8907 35.0037 42.6754C30.9278 41.5186 27.0817 39.3358 23.8729 36.1271C20.6642 32.9183 18.4814 29.0722 17.3246 24.9963C17.1093 24.2378 17.0017 23.8586 17 23.3037C16.9982 22.688 17.215 21.8543 17.5166 21.3175C17.7883 20.8337 18.1441 20.4779 18.8558 19.7662L19.0676 19.5544C19.7817 18.8403 20.1387 18.4833 20.5222 18.2893C21.2848 17.9036 22.1855 17.9036 22.9481 18.2893C23.3316 18.4833 23.6886 18.8403 24.4027 19.5544L24.6645 19.8162C25.1343 20.286 25.3692 20.5209 25.5227 20.7571C26.1019 21.6478 26.1019 22.7961 25.5227 23.6868C25.3692 23.923 25.1343 24.1579 24.6645 24.6276C24.5109 24.7812 24.4341 24.858 24.3699 24.9478C24.1414 25.2669 24.0625 25.7294 24.1723 26.1061C24.2032 26.2121 24.2435 26.2959 24.3239 26.4635Z" stroke="#6C7072" stroke-width="2" stroke-linecap="round" stroke-linejoin="round"/>
</svg>
