<svg width="30" height="30" viewBox="0 0 30 30" fill="none" xmlns="http://www.w3.org/2000/svg">
<path d="M11.25 13.125L13.75 15.625L19.375 10M25 26.25V9.75C25 7.6498 25 6.5997 24.5913 5.79754C24.2317 5.09193 23.6581 4.51825 22.9525 4.15873C22.1503 3.75 21.1002 3.75 19 3.75H11C8.8998 3.75 7.8497 3.75 7.04754 4.15873C6.34193 4.51825 5.76825 5.09193 5.40873 5.79754C5 6.5997 5 7.6498 5 9.75V26.25L8.4375 23.75L11.5625 26.25L15 23.75L18.4375 26.25L21.5625 23.75L25 26.25Z" stroke="#BC8B09" stroke-width="2" stroke-linecap="round" stroke-linejoin="round"/>
</svg>
