<svg width="35" height="35" viewBox="0 0 35 35" fill="none" xmlns="http://www.w3.org/2000/svg">
<path d="M27.7084 13.125L23.3334 8.75M23.3334 8.75L27.7084 4.375M23.3334 8.75L32.0834 8.75M23.3334 30.625V28.875C23.3334 26.4248 23.3334 25.1997 22.8566 24.2638C22.4371 23.4406 21.7678 22.7713 20.9446 22.3518C20.0088 21.875 18.7836 21.875 16.3334 21.875H9.91675C7.46652 21.875 6.2414 21.875 5.30554 22.3518C4.48233 22.7713 3.81304 23.4406 3.39359 24.2638C2.91675 25.1997 2.91675 26.4248 2.91675 28.875V30.625M18.2292 10.9375C18.2292 13.7565 15.944 16.0417 13.1251 16.0417C10.3061 16.0417 8.02091 13.7565 8.02091 10.9375C8.02091 8.11855 10.3061 5.83333 13.1251 5.83333C15.944 5.83333 18.2292 8.11855 18.2292 10.9375Z" stroke="#979C9E" stroke-width="2" stroke-linecap="round" stroke-linejoin="round"/>
</svg>
