<svg width="50" height="50" viewBox="0 0 50 50" fill="none" xmlns="http://www.w3.org/2000/svg">
<path fill-rule="evenodd" clip-rule="evenodd" d="M7.8125 0C3.49779 0 0 3.49778 0 7.8125V42.1875C0 46.5022 3.49779 50 7.8125 50H42.1875C46.5022 50 50 46.5022 50 42.1875V7.8125C50 3.49778 46.5022 0 42.1875 0H7.8125ZM29.8722 12.5C29.8722 12.8715 29.9069 13.2373 29.9708 13.5914C30.2783 15.2282 31.2469 16.6329 32.5925 17.5093C33.532 18.1246 34.6456 18.4787 35.846 18.4787L35.8459 19.4363V22.7739C33.6187 22.7739 31.5541 22.06 29.8721 20.8526V29.5884C29.8721 33.9476 26.3228 37.5 21.9674 37.5C20.2855 37.5 18.7195 36.9659 17.4377 36.0662C15.3964 34.6325 14.0625 32.2642 14.0625 29.5884C14.0625 25.2234 17.6061 21.6769 21.9615 21.6827C22.3269 21.6827 22.6807 21.7117 23.0287 21.7582V22.7739L23.016 22.78L23.0287 22.7797V26.1464C22.6923 26.0419 22.3327 25.978 21.9615 25.978C19.9723 25.978 18.3542 27.5975 18.3542 29.5884C18.3542 30.9758 19.1429 32.1772 20.2912 32.7867C20.3083 32.81 20.3255 32.8331 20.343 32.8559C20.3298 32.8304 20.3146 32.8054 20.2971 32.7809C20.8016 33.0479 21.37 33.1988 21.9732 33.1988C23.916 33.1988 25.5052 31.6491 25.5747 29.722L25.5805 12.5H29.8722Z" fill="#FBFCFD"/>
</svg>
