<svg width="22" height="26" viewBox="0 0 22 26" fill="none" xmlns="http://www.w3.org/2000/svg">
<path d="M21 24.25C21 22.5055 21 21.6333 20.7847 20.9236C20.2999 19.3256 19.0494 18.075 17.4514 17.5903C16.7417 17.375 15.8695 17.375 14.125 17.375H7.87501C6.13055 17.375 5.25832 17.375 4.54857 17.5903C2.95057 18.075 1.70005 19.3256 1.2153 20.9236C1 21.6333 1 22.5055 1 24.25M16.625 7.375C16.625 10.4816 14.1066 13 11 13C7.8934 13 5.375 10.4816 5.375 7.375C5.375 4.2684 7.8934 1.75 11 1.75C14.1066 1.75 16.625 4.2684 16.625 7.375Z" stroke="#BC8B09" stroke-width="2" stroke-linecap="round" stroke-linejoin="round"/>
</svg>
