<svg width="35" height="35" viewBox="0 0 35 35" fill="none" xmlns="http://www.w3.org/2000/svg">
<circle opacity="0.3" cx="17.5" cy="17.5" r="17.5" fill="#FFD669"/>
<path d="M13.1518 10.6C13.5038 10.6 13.8118 10.732 14.0758 10.996C14.3544 11.2453 14.4938 11.5607 14.4938 11.942V24.658C14.4938 25.0393 14.3544 25.362 14.0758 25.626C13.7971 25.8753 13.4744 26 13.1078 26C12.6971 26 12.3671 25.8753 12.1178 25.626C11.8684 25.362 11.7438 25.0393 11.7438 24.658V11.942C11.7438 11.5607 11.8758 11.2453 12.1398 10.996C12.4038 10.732 12.7411 10.6 13.1518 10.6ZM22.8978 10.6C23.3084 10.6 23.6384 10.732 23.8878 10.996C24.1371 11.2453 24.2618 11.5607 24.2618 11.942V24.658C24.2618 25.0393 24.1298 25.362 23.8658 25.626C23.6164 25.8753 23.2791 26 22.8538 26C22.5018 26 22.1864 25.8753 21.9078 25.626C21.6438 25.362 21.5118 25.0393 21.5118 24.658V11.942C21.5118 11.5607 21.6511 11.2453 21.9298 10.996C22.2084 10.732 22.5311 10.6 22.8978 10.6ZM13.0858 17.002H22.8978V19.532H13.0858V17.002Z" fill="#BC8B09"/>
</svg>
