<svg width="30" height="30" viewBox="0 0 30 30" fill="none" xmlns="http://www.w3.org/2000/svg">
<path d="M12.5 10V8.75M12.5 15.625V14.375M12.5 21.25V20M6.5 5H23.5C24.9001 5 25.6002 5 26.135 5.27248C26.6054 5.51217 26.9878 5.89462 27.2275 6.36502C27.5 6.8998 27.5 7.59987 27.5 9V10.625C25.0838 10.625 23.125 12.5838 23.125 15C23.125 17.4162 25.0838 19.375 27.5 19.375V21C27.5 22.4001 27.5 23.1002 27.2275 23.635C26.9878 24.1054 26.6054 24.4878 26.135 24.7275C25.6002 25 24.9001 25 23.5 25H6.5C5.09987 25 4.3998 25 3.86502 24.7275C3.39462 24.4878 3.01217 24.1054 2.77248 23.635C2.5 23.1002 2.5 22.4001 2.5 21V19.375C4.91625 19.375 6.875 17.4162 6.875 15C6.875 12.5838 4.91625 10.625 2.5 10.625V9C2.5 7.59987 2.5 6.8998 2.77248 6.36502C3.01217 5.89462 3.39462 5.51217 3.86502 5.27248C4.3998 5 5.09987 5 6.5 5Z" stroke="#BC8B09" stroke-width="2" stroke-linecap="round" stroke-linejoin="round"/>
</svg>
