<svg width="30" height="30" viewBox="0 0 30 30" fill="none" xmlns="http://www.w3.org/2000/svg">
<path d="M12.6797 8.28625C13.663 5.835 14.1546 4.60938 15 4.60938C15.8454 4.60937 16.337 5.835 17.3203 8.28625L17.3661 8.40039C17.9216 9.78523 18.1993 10.4776 18.7654 10.8985C19.3314 11.3194 20.0745 11.3859 21.5606 11.519L21.8293 11.5431C24.2616 11.7609 25.4777 11.8698 25.7379 12.6435C25.9982 13.4173 25.095 14.239 23.2887 15.8823L22.6859 16.4308C21.7715 17.2627 21.3143 17.6786 21.1012 18.2238C21.0614 18.3255 21.0284 18.4297 21.0023 18.5357C20.8622 19.104 20.9961 19.7074 21.2638 20.9143L21.3472 21.2899C21.8393 23.5078 22.0853 24.6168 21.6557 25.0951C21.4952 25.2739 21.2866 25.4026 21.0548 25.4658C20.4345 25.635 19.5539 24.9175 17.7928 23.4824C16.6363 22.54 16.0581 22.0688 15.3942 21.9628C15.133 21.9211 14.8669 21.9211 14.6058 21.9628C13.9419 22.0688 13.3637 22.54 12.2072 23.4824C10.446 24.9175 9.56545 25.635 8.9452 25.4658C8.71343 25.4026 8.50479 25.2739 8.34426 25.0951C7.91466 24.6168 8.16071 23.5078 8.6528 21.2899L8.73615 20.9143C9.00391 19.7074 9.13779 19.104 8.99772 18.5357C8.97159 18.4297 8.93855 18.3255 8.8988 18.2238C8.6857 17.6786 8.22851 17.2627 7.31413 16.4308L6.71128 15.8823C4.90497 14.239 4.00182 13.4173 4.26204 12.6435C4.52227 11.8698 5.7384 11.7609 8.17067 11.5431L8.43934 11.519C9.92548 11.3859 10.6686 11.3194 11.2346 10.8985C11.8007 10.4776 12.0784 9.78523 12.6339 8.40039L12.6797 8.28625Z" fill="#FFD669" stroke="#FFD669" stroke-width="1.4"/>
</svg>
