<svg width="35" height="35" viewBox="0 0 35 35" fill="none" xmlns="http://www.w3.org/2000/svg">
<path d="M11.6667 11.666L11.6667 10.2077C11.6667 6.98602 14.2784 4.37435 17.5001 4.37435V4.37435C20.7217 4.37435 23.3334 6.98602 23.3334 10.2077L23.3334 11.666" stroke="#FFD669" stroke-width="2" stroke-linecap="round"/>
<path d="M21.875 20.4167V17.5" stroke="#FFD669" stroke-width="2" stroke-linecap="round"/>
<path d="M13.125 20.4167V17.5" stroke="#FFD669" stroke-width="2" stroke-linecap="round"/>
<path d="M5.83325 15.666C5.83325 13.7804 5.83325 12.8376 6.41904 12.2518C7.00482 11.666 7.94763 11.666 9.83325 11.666H25.1666C27.0522 11.666 27.995 11.666 28.5808 12.2518C29.1666 12.8376 29.1666 13.7804 29.1666 15.666V22.6243C29.1666 26.3956 29.1666 28.2812 27.995 29.4528C26.8234 30.6243 24.9378 30.6243 21.1666 30.6243H13.8333C10.062 30.6243 8.1764 30.6243 7.00482 29.4528C5.83325 28.2812 5.83325 26.3956 5.83325 22.6243V15.666Z" stroke="#FFD669" stroke-width="2"/>
</svg>
