<svg width="32" height="30" viewBox="0 0 32 30" fill="none" xmlns="http://www.w3.org/2000/svg">
<path d="M16.1609 21.25C16.1609 24.7018 19.0109 27.5 22.5266 27.5C26.0422 27.5 28.8922 24.7018 28.8922 21.25C28.8922 17.7982 26.0422 15 22.5266 15C19.0109 15 16.1609 17.7982 16.1609 21.25ZM16.1609 21.25C16.1609 19.8427 16.6346 18.5441 17.4341 17.4994V6.25M16.1609 21.25C16.1609 22.2817 16.4155 23.255 16.8664 24.1127C15.7939 25.0022 13.3166 25.625 10.4319 25.625C6.56467 25.625 3.42969 24.5057 3.42969 23.125V6.25M17.4341 6.25C17.4341 7.63071 14.2991 8.75 10.4319 8.75C6.56467 8.75 3.42969 7.63071 3.42969 6.25M17.4341 6.25C17.4341 4.86929 14.2991 3.75 10.4319 3.75C6.56467 3.75 3.42969 4.86929 3.42969 6.25M3.42969 17.5C3.42969 18.8807 6.56467 20 10.4319 20C13.2187 20 15.6254 19.4187 16.7525 18.5772M17.4341 11.875C17.4341 13.2557 14.2991 14.375 10.4319 14.375C6.56467 14.375 3.42969 13.2557 3.42969 11.875" stroke="#5CC7AF" stroke-width="1.5" stroke-linecap="round" stroke-linejoin="round"/>
</svg>
