<svg width="31" height="30" viewBox="0 0 31 30" fill="none" xmlns="http://www.w3.org/2000/svg">
<path d="M15.2781 21.25C15.2781 24.7018 18.1281 27.5 21.6437 27.5C25.1594 27.5 28.0094 24.7018 28.0094 21.25C28.0094 17.7982 25.1594 15 21.6437 15C18.1281 15 15.2781 17.7982 15.2781 21.25ZM15.2781 21.25C15.2781 19.8427 15.7518 18.5441 16.5512 17.4994V6.25M15.2781 21.25C15.2781 22.2817 15.5327 23.255 15.9836 24.1127C14.911 25.0022 12.4338 25.625 9.54906 25.625C5.68186 25.625 2.54688 24.5057 2.54688 23.125V6.25M16.5512 6.25C16.5512 7.63071 13.4163 8.75 9.54906 8.75C5.68186 8.75 2.54688 7.63071 2.54688 6.25M16.5512 6.25C16.5512 4.86929 13.4163 3.75 9.54906 3.75C5.68186 3.75 2.54688 4.86929 2.54688 6.25M2.54688 17.5C2.54688 18.8807 5.68186 20 9.54906 20C12.3359 20 14.7425 19.4187 15.8697 18.5772M16.5512 11.875C16.5512 13.2557 13.4163 14.375 9.54906 14.375C5.68186 14.375 2.54688 13.2557 2.54688 11.875" stroke="#FF9C82" stroke-width="1.5" stroke-linecap="round" stroke-linejoin="round"/>
</svg>
