<svg width="30" height="30" viewBox="0 0 30 30" fill="none" xmlns="http://www.w3.org/2000/svg">
<path d="M17.5 8.75H20.4216C20.7273 8.75 20.8802 8.75 21.024 8.78454C21.1516 8.81516 21.2735 8.86566 21.3854 8.9342C21.5115 9.0115 21.6196 9.1196 21.8358 9.33579L26.9142 14.4142C27.1304 14.6304 27.2385 14.7385 27.3158 14.8646C27.3843 14.9765 27.4348 15.0984 27.4655 15.226C27.5 15.3698 27.5 15.5227 27.5 15.8284V19.375C27.5 19.9574 27.5 20.2486 27.4048 20.4784C27.278 20.7846 27.0346 21.028 26.7284 21.1548C26.4986 21.25 26.2074 21.25 25.625 21.25M19.375 21.25H17.5M17.5 21.25V9C17.5 7.59987 17.5 6.8998 17.2275 6.36502C16.9878 5.89462 16.6054 5.51217 16.135 5.27248C15.6002 5 14.9001 5 13.5 5H6.5C5.09987 5 4.3998 5 3.86502 5.27248C3.39462 5.51217 3.01217 5.89462 2.77248 6.36502C2.5 6.8998 2.5 7.59987 2.5 9V18.75C2.5 20.1307 3.61929 21.25 5 21.25M17.5 21.25H12.5M12.5 21.25C12.5 23.3211 10.8211 25 8.75 25C6.67893 25 5 23.3211 5 21.25M12.5 21.25C12.5 19.1789 10.8211 17.5 8.75 17.5C6.67893 17.5 5 19.1789 5 21.25M25.625 21.875C25.625 23.6009 24.2259 25 22.5 25C20.7741 25 19.375 23.6009 19.375 21.875C19.375 20.1491 20.7741 18.75 22.5 18.75C24.2259 18.75 25.625 20.1491 25.625 21.875Z" stroke="#BC8B09" stroke-width="2" stroke-linecap="round" stroke-linejoin="round"/>
</svg>
