<svg width="32" height="30" viewBox="0 0 32 30" fill="none" xmlns="http://www.w3.org/2000/svg">
<path d="M18.4851 8.75H21.4518C21.7622 8.75 21.9174 8.75 22.0635 8.78454C22.193 8.81516 22.3168 8.86566 22.4304 8.9342C22.5585 9.0115 22.6683 9.1196 22.8878 9.33579L28.0445 14.4142C28.264 14.6304 28.3738 14.7385 28.4523 14.8646C28.5219 14.9765 28.5731 15.0984 28.6042 15.226C28.6393 15.3698 28.6393 15.5227 28.6393 15.8284V19.375C28.6393 19.9574 28.6393 20.2486 28.5427 20.4784C28.4139 20.7846 28.1668 21.028 27.8558 21.1548C27.6225 21.25 27.3268 21.25 26.7354 21.25M20.3891 21.25H18.4851M18.4851 21.25V9C18.4851 7.59987 18.4851 6.8998 18.2085 6.36502C17.9651 5.89462 17.5767 5.51217 17.0991 5.27248C16.5561 5 15.8452 5 14.4235 5H7.31557C5.89386 5 5.183 5 4.63997 5.27248C4.16232 5.51217 3.77397 5.89462 3.53059 6.36502C3.25391 6.8998 3.25391 7.59987 3.25391 9V18.75C3.25391 20.1307 4.39045 21.25 5.79245 21.25M18.4851 21.25H13.4081M13.4081 21.25C13.4081 23.3211 11.7033 25 9.60026 25C7.49726 25 5.79245 23.3211 5.79245 21.25M13.4081 21.25C13.4081 19.1789 11.7033 17.5 9.60026 17.5C7.49726 17.5 5.79245 19.1789 5.79245 21.25M26.7354 21.875C26.7354 23.6009 25.3147 25 23.5622 25C21.8097 25 20.3891 23.6009 20.3891 21.875C20.3891 20.1491 21.8097 18.75 23.5622 18.75C25.3147 18.75 26.7354 20.1491 26.7354 21.875Z" stroke="#FF9C82" stroke-width="2" stroke-linecap="round" stroke-linejoin="round"/>
</svg>
