<svg width="166" height="38" viewBox="0 0 166 38" fill="none" xmlns="http://www.w3.org/2000/svg">
<path d="M15.8431 10.351C17.0717 7.28821 17.6859 5.75684 18.7422 5.75684C19.7986 5.75684 20.4128 7.28822 21.6414 10.351L21.6986 10.4936C22.3927 12.2239 22.7397 13.0891 23.447 13.6149C24.1542 14.1408 25.0827 14.2239 26.9396 14.3902L27.2753 14.4203C30.3143 14.6924 31.8338 14.8285 32.159 15.7953C32.4841 16.762 31.3557 17.7887 29.0987 19.842L28.3455 20.5273C27.203 21.5667 26.6318 22.0865 26.3655 22.7676C26.3158 22.8947 26.2745 23.0249 26.2419 23.1573C26.0669 23.8674 26.2342 24.6214 26.5687 26.1293L26.6729 26.5986C27.2877 29.3699 27.5951 30.7555 27.0584 31.3531C26.8578 31.5765 26.5971 31.7373 26.3075 31.8163C25.5325 32.0277 24.4323 31.1312 22.2317 29.338C20.7867 28.1606 20.0643 27.5719 19.2348 27.4394C18.9085 27.3873 18.576 27.3873 18.2497 27.4394C17.4202 27.5719 16.6978 28.1606 15.2528 29.338C13.0522 31.1312 11.952 32.0277 11.177 31.8163C10.8874 31.7373 10.6267 31.5765 10.4261 31.3531C9.88935 30.7555 10.1968 29.3699 10.8116 26.5986L10.9158 26.1293C11.2503 24.6214 11.4176 23.8674 11.2426 23.1573C11.2099 23.0249 11.1687 22.8947 11.119 22.7676C10.8527 22.0865 10.2815 21.5667 9.139 20.5273L8.38576 19.842C6.12884 17.7887 5.00038 16.762 5.32552 15.7953C5.65066 14.8285 7.17018 14.6924 10.2092 14.4203L10.5449 14.3902C12.4018 14.2239 13.3303 14.1408 14.0375 13.6149C14.7448 13.0891 15.0918 12.2239 15.7859 10.4936L15.8431 10.351Z" fill="#FFD669"/>
<path d="M47.973 10.351C49.2015 7.28821 49.8158 5.75684 50.8721 5.75684C51.9284 5.75684 52.5427 7.28822 53.7713 10.351L53.8285 10.4936C54.5225 12.2239 54.8696 13.0891 55.5768 13.6149C56.2841 14.1408 57.2126 14.2239 59.0695 14.3902L59.4052 14.4203C62.4442 14.6924 63.9637 14.8285 64.2889 15.7953C64.614 16.762 63.4855 17.7887 61.2286 19.842L60.4754 20.5273C59.3329 21.5667 58.7616 22.0865 58.4954 22.7676C58.4457 22.8947 58.4044 23.0249 58.3718 23.1573C58.1968 23.8674 58.3641 24.6214 58.6986 26.1293L58.8027 26.5986C59.4176 29.3699 59.725 30.7555 59.1883 31.3531C58.9877 31.5765 58.727 31.7373 58.4374 31.8163C57.6624 32.0277 56.5621 31.1312 54.3616 29.338C52.9166 28.1606 52.1941 27.5719 51.3646 27.4394C51.0384 27.3873 50.7059 27.3873 50.3796 27.4394C49.5501 27.5719 48.8276 28.1606 47.3827 29.338C45.1821 31.1312 44.0818 32.0277 43.3069 31.8163C43.0173 31.7373 42.7566 31.5765 42.556 31.3531C42.0192 30.7555 42.3267 29.3699 42.9415 26.5986L43.0457 26.1293C43.3802 24.6214 43.5475 23.8674 43.3725 23.1573C43.3398 23.0249 43.2985 22.8947 43.2489 22.7676C42.9826 22.0865 42.4114 21.5667 41.2689 20.5273L40.5156 19.842C38.2587 17.7887 37.1303 16.762 37.4554 15.7953C37.7805 14.8285 39.3001 14.6924 42.3391 14.4203L42.6748 14.3902C44.5317 14.2239 45.4601 14.1408 46.1674 13.6149C46.8747 13.0891 47.2217 12.2239 47.9158 10.4936L47.973 10.351Z" fill="#FFD669"/>
<path d="M80.1009 10.351C81.3295 7.28821 81.9437 5.75684 83.0001 5.75684C84.0564 5.75684 84.6706 7.28822 85.8992 10.351L85.9564 10.4936C86.6505 12.2239 86.9975 13.0891 87.7048 13.6149C88.4121 14.1408 89.3405 14.2239 91.1974 14.3902L91.5331 14.4203C94.5721 14.6924 96.0917 14.8285 96.4168 15.7953C96.7419 16.762 95.6135 17.7887 93.3566 19.842L92.6033 20.5273C91.4608 21.5667 90.8896 22.0865 90.6233 22.7676C90.5736 22.8947 90.5324 23.0249 90.4997 23.1573C90.3247 23.8674 90.492 24.6214 90.8265 26.1293L90.9307 26.5986C91.5455 29.3699 91.853 30.7555 91.3162 31.3531C91.1156 31.5765 90.8549 31.7373 90.5653 31.8163C89.7903 32.0277 88.6901 31.1312 86.4895 29.338C85.0446 28.1606 84.3221 27.5719 83.4926 27.4394C83.1663 27.3873 82.8338 27.3873 82.5075 27.4394C81.678 27.5719 80.9556 28.1606 79.5106 29.338C77.31 31.1312 76.2098 32.0277 75.4348 31.8163C75.1452 31.7373 74.8845 31.5765 74.6839 31.3531C74.1472 30.7555 74.4546 29.3699 75.0694 26.5986L75.1736 26.1293C75.5081 24.6214 75.6754 23.8674 75.5004 23.1573C75.4678 23.0249 75.4265 22.8947 75.3768 22.7676C75.1106 22.0865 74.5393 21.5667 73.3968 20.5273L72.6436 19.842C70.3866 17.7887 69.2582 16.762 69.5833 15.7953C69.9085 14.8285 71.428 14.6924 74.467 14.4203L74.8027 14.3902C76.6596 14.2239 77.5881 14.1408 78.2953 13.6149C79.0026 13.0891 79.3497 12.2239 80.0437 10.4936L80.1009 10.351Z" fill="#FFD669"/>
<path d="M112.231 10.351C113.459 7.28821 114.074 5.75684 115.13 5.75684C116.186 5.75684 116.801 7.28822 118.029 10.351L118.086 10.4936C118.78 12.2239 119.127 13.0891 119.835 13.6149C120.542 14.1408 121.47 14.2239 123.327 14.3902L123.663 14.4203C126.702 14.6924 128.222 14.8285 128.547 15.7953C128.872 16.762 127.743 17.7887 125.486 19.842L124.733 20.5273C123.591 21.5667 123.019 22.0865 122.753 22.7676C122.704 22.8947 122.662 23.0249 122.63 23.1573C122.455 23.8674 122.622 24.6214 122.956 26.1293L123.061 26.5986C123.675 29.3699 123.983 30.7555 123.446 31.3531C123.245 31.5765 122.985 31.7373 122.695 31.8163C121.92 32.0277 120.82 31.1312 118.619 29.338C117.174 28.1606 116.452 27.5719 115.622 27.4394C115.296 27.3873 114.964 27.3873 114.637 27.4394C113.808 27.5719 113.085 28.1606 111.64 29.338C109.44 31.1312 108.34 32.0277 107.565 31.8163C107.275 31.7373 107.014 31.5765 106.814 31.3531C106.277 30.7555 106.584 29.3699 107.199 26.5986L107.303 26.1293C107.638 24.6214 107.805 23.8674 107.63 23.1573C107.598 23.0249 107.556 22.8947 107.507 22.7676C107.24 22.0865 106.669 21.5667 105.527 20.5273L104.773 19.842C102.517 17.7887 101.388 16.762 101.713 15.7953C102.038 14.8285 103.558 14.6924 106.597 14.4203L106.933 14.3902C108.79 14.2239 109.718 14.1408 110.425 13.6149C111.133 13.0891 111.48 12.2239 112.174 10.4936L112.231 10.351Z" fill="#FFD669"/>
<path d="M144.359 10.351C145.587 7.28821 146.202 5.75684 147.258 5.75684C148.314 5.75684 148.928 7.28822 150.157 10.351L150.214 10.4936C150.908 12.2239 151.255 13.0891 151.963 13.6149C152.67 14.1408 153.598 14.2239 155.455 14.3902L155.791 14.4203C158.83 14.6924 160.349 14.8285 160.675 15.7953C161 16.762 159.871 17.7887 157.614 19.842L156.861 20.5273C155.719 21.5667 155.147 22.0865 154.881 22.7676C154.831 22.8947 154.79 23.0249 154.758 23.1573C154.583 23.8674 154.75 24.6214 155.084 26.1293L155.188 26.5986C155.803 29.3699 156.111 30.7555 155.574 31.3531C155.373 31.5765 155.113 31.7373 154.823 31.8163C154.048 32.0277 152.948 31.1312 150.747 29.338C149.302 28.1606 148.58 27.5719 147.75 27.4394C147.424 27.3873 147.092 27.3873 146.765 27.4394C145.936 27.5719 145.213 28.1606 143.768 29.338C141.568 31.1312 140.468 32.0277 139.693 31.8163C139.403 31.7373 139.142 31.5765 138.942 31.3531C138.405 30.7555 138.712 29.3699 139.327 26.5986L139.431 26.1293C139.766 24.6214 139.933 23.8674 139.758 23.1573C139.726 23.0249 139.684 22.8947 139.635 22.7676C139.368 22.0865 138.797 21.5667 137.655 20.5273L136.901 19.842C134.644 17.7887 133.516 16.762 133.841 15.7953C134.166 14.8285 135.686 14.6924 138.725 14.4203L139.061 14.3902C140.917 14.2239 141.846 14.1408 142.553 13.6149C143.26 13.0891 143.607 12.2239 144.302 10.4936L144.359 10.351Z" fill="#E3E4E5"/>
</svg>
