<svg width="24" height="170" viewBox="0 0 24 170" fill="none" xmlns="http://www.w3.org/2000/svg">
<circle cx="12" cy="84" r="12" fill="#090A0A"/>
<path d="M13.1623 84.796C13.1623 85.452 13.0143 86.032 12.7183 86.536C12.4303 87.032 12.0383 87.42 11.5423 87.7C11.0543 87.98 10.5063 88.12 9.8983 88.12C9.2903 88.12 8.7383 87.98 8.2423 87.7C7.7543 87.42 7.3623 87.032 7.0663 86.536C6.7783 86.032 6.6343 85.452 6.6343 84.796C6.6343 84.14 6.7783 83.564 7.0663 83.068C7.3623 82.564 7.7543 82.172 8.2423 81.892C8.7383 81.604 9.2903 81.46 9.8983 81.46C10.5063 81.46 11.0543 81.604 11.5423 81.892C12.0383 82.172 12.4303 82.564 12.7183 83.068C13.0143 83.564 13.1623 84.14 13.1623 84.796ZM11.7223 84.796C11.7223 84.388 11.6383 84.036 11.4703 83.74C11.3103 83.436 11.0903 83.2 10.8103 83.032C10.5383 82.864 10.2343 82.78 9.8983 82.78C9.5623 82.78 9.2543 82.864 8.9743 83.032C8.7023 83.2 8.4823 83.436 8.3143 83.74C8.1543 84.036 8.0743 84.388 8.0743 84.796C8.0743 85.196 8.1543 85.548 8.3143 85.852C8.4823 86.148 8.7023 86.38 8.9743 86.548C9.2543 86.716 9.5623 86.8 9.8983 86.8C10.2343 86.8 10.5383 86.716 10.8103 86.548C11.0903 86.38 11.3103 86.148 11.4703 85.852C11.6383 85.548 11.7223 85.196 11.7223 84.796ZM15.1426 88C14.9346 88 14.7626 87.932 14.6266 87.796C14.4906 87.652 14.4226 87.476 14.4226 87.268V82.312C14.4226 82.104 14.4906 81.932 14.6266 81.796C14.7626 81.652 14.9346 81.58 15.1426 81.58C15.3506 81.58 15.5226 81.652 15.6586 81.796C15.7946 81.932 15.8626 82.104 15.8626 82.312V83.44L15.7786 82.636C15.8666 82.444 15.9786 82.276 16.1146 82.132C16.2586 81.98 16.4186 81.856 16.5946 81.76C16.7706 81.656 16.9586 81.58 17.1586 81.532C17.3586 81.484 17.5586 81.46 17.7586 81.46C17.9986 81.46 18.1986 81.528 18.3586 81.664C18.5266 81.8 18.6106 81.96 18.6106 82.144C18.6106 82.408 18.5426 82.6 18.4066 82.72C18.2706 82.832 18.1226 82.888 17.9626 82.888C17.8106 82.888 17.6706 82.86 17.5426 82.804C17.4226 82.748 17.2826 82.72 17.1226 82.72C16.9786 82.72 16.8306 82.756 16.6786 82.828C16.5346 82.892 16.3986 82.996 16.2706 83.14C16.1506 83.284 16.0506 83.464 15.9706 83.68C15.8986 83.888 15.8626 84.136 15.8626 84.424V87.268C15.8626 87.476 15.7946 87.652 15.6586 87.796C15.5226 87.932 15.3506 88 15.1426 88Z" fill="#FBFCFD"/>
<line x1="13" y1="4.37114e-08" x2="13" y2="64" stroke="#090A0A" stroke-width="2"/>
<line x1="13" y1="106" x2="13" y2="170" stroke="#090A0A" stroke-width="2"/>
</svg>
