<svg width="38" height="38" viewBox="0 0 38 38" fill="none" xmlns="http://www.w3.org/2000/svg">
<path d="M15.834 23.75L15.834 19" stroke="#6C7072" stroke-width="2" stroke-linecap="round"/>
<path d="M22.166 23.75L22.166 19" stroke="#6C7072" stroke-width="2" stroke-linecap="round"/>
<path d="M4.75 11.083H33.25H32.5C30.6144 11.083 29.6716 11.083 29.0858 11.6688C28.5 12.2546 28.5 13.1974 28.5 15.083V27.6663C28.5 29.552 28.5 30.4948 27.9142 31.0806C27.3284 31.6663 26.3856 31.6663 24.5 31.6663H13.5C11.6144 31.6663 10.6716 31.6663 10.0858 31.0806C9.5 30.4948 9.5 29.552 9.5 27.6663V15.083C9.5 13.1974 9.5 12.2546 8.91421 11.6688C8.32843 11.083 7.38562 11.083 5.5 11.083H4.75Z" stroke="#6C7072" stroke-width="2" stroke-linecap="round"/>
<path d="M15.9406 5.33677C16.121 5.16843 16.5186 5.01969 17.0716 4.9136C17.6246 4.8075 18.3023 4.75 18.9993 4.75C19.6964 4.75 20.3741 4.8075 20.9271 4.9136C21.4801 5.01969 21.8777 5.16843 22.0581 5.33677" stroke="#6C7072" stroke-width="2" stroke-linecap="round"/>
</svg>
